  0
SECTION
  2
HEADER
  9
$ACADVER
  1
AC1027
  9
$ACADMAINTVER
 70
    55
  9
$DWGCODEPAGE
  3
ANSI_1252
  9
$LASTSAVEDBY
  1
dave
  9
$REQUIREDVERSIONS
160
                 0
  9
$INSBASE
 10
0.0
 20
0.0
 30
0.0
  9
$EXTMIN
 10
53.24825150259961
 20
12.62195676590238
 30
0.0
  9
$EXTMAX
 10
342.7481587090195
 20
380.6379832423326
 30
0.0
  9
$LIMMIN
 10
0.0
 20
0.0
  9
$LIMMAX
 10
12.0
 20
9.0
  9
$ORTHOMODE
 70
     0
  9
$REGENMODE
 70
     1
  9
$FILLMODE
 70
     1
  9
$QTEXTMODE
 70
     0
  9
$MIRRTEXT
 70
     1
  9
$LTSCALE
 40
1.0
  9
$ATTMODE
 70
     1
  9
$TEXTSIZE
 40
0.2
  9
$TRACEWID
 40
0.05
  9
$TEXTSTYLE
  7
Standard
  9
$CLAYER
  8
0
  9
$CELTYPE
  6
ByLayer
  9
$CECOLOR
 62
   256
  9
$CELTSCALE
 40
1.0
  9
$DISPSILH
 70
     0
  9
$DIMSCALE
 40
1.0
  9
$DIMASZ
 40
0.18
  9
$DIMEXO
 40
0.0625
  9
$DIMDLI
 40
0.38
  9
$DIMRND
 40
0.0
  9
$DIMDLE
 40
0.0
  9
$DIMEXE
 40
0.18
  9
$DIMTP
 40
0.0
  9
$DIMTM
 40
0.0
  9
$DIMTXT
 40
0.18
  9
$DIMCEN
 40
0.09
  9
$DIMTSZ
 40
0.0
  9
$DIMTOL
 70
     0
  9
$DIMLIM
 70
     0
  9
$DIMTIH
 70
     1
  9
$DIMTOH
 70
     1
  9
$DIMSE1
 70
     0
  9
$DIMSE2
 70
     0
  9
$DIMTAD
 70
     0
  9
$DIMZIN
 70
     0
  9
$DIMBLK
  1

  9
$DIMASO
 70
     1
  9
$DIMSHO
 70
     1
  9
$DIMPOST
  1

  9
$DIMAPOST
  1

  9
$DIMALT
 70
     0
  9
$DIMALTD
 70
     2
  9
$DIMALTF
 40
25.4
  9
$DIMLFAC
 40
1.0
  9
$DIMTOFL
 70
     0
  9
$DIMTVP
 40
0.0
  9
$DIMTIX
 70
     0
  9
$DIMSOXD
 70
     0
  9
$DIMSAH
 70
     0
  9
$DIMBLK1
  1

  9
$DIMBLK2
  1

  9
$DIMSTYLE
  2
Standard
  9
$DIMCLRD
 70
     0
  9
$DIMCLRE
 70
     0
  9
$DIMCLRT
 70
     0
  9
$DIMTFAC
 40
1.0
  9
$DIMGAP
 40
0.09
  9
$DIMJUST
 70
     0
  9
$DIMSD1
 70
     0
  9
$DIMSD2
 70
     0
  9
$DIMTOLJ
 70
     1
  9
$DIMTZIN
 70
     0
  9
$DIMALTZ
 70
     0
  9
$DIMALTTZ
 70
     0
  9
$DIMUPT
 70
     0
  9
$DIMDEC
 70
     4
  9
$DIMTDEC
 70
     4
  9
$DIMALTU
 70
     2
  9
$DIMALTTD
 70
     2
  9
$DIMTXSTY
  7
Standard
  9
$DIMAUNIT
 70
     0
  9
$DIMADEC
 70
     0
  9
$DIMALTRND
 40
0.0
  9
$DIMAZIN
 70
     0
  9
$DIMDSEP
 70
    46
  9
$DIMATFIT
 70
     3
  9
$DIMFRAC
 70
     0
  9
$DIMLDRBLK
  1

  9
$DIMLUNIT
 70
     2
  9
$DIMLWD
 70
    -2
  9
$DIMLWE
 70
    -2
  9
$DIMTMOVE
 70
     0
  9
$DIMFXL
 40
1.0
  9
$DIMFXLON
 70
     0
  9
$DIMJOGANG
 40
0.7853981633974483
  9
$DIMTFILL
 70
     0
  9
$DIMTFILLCLR
 70
     0
  9
$DIMARCSYM
 70
     0
  9
$DIMLTYPE
  6

  9
$DIMLTEX1
  6

  9
$DIMLTEX2
  6

  9
$DIMTXTDIRECTION
 70
     0
  9
$LUNITS
 70
     2
  9
$LUPREC
 70
     4
  9
$SKETCHINC
 40
0.1
  9
$FILLETRAD
 40
0.5
  9
$AUNITS
 70
     0
  9
$AUPREC
 70
     0
  9
$MENU
  1
.
  9
$ELEVATION
 40
0.0
  9
$PELEVATION
 40
0.0
  9
$THICKNESS
 40
0.0
  9
$LIMCHECK
 70
     0
  9
$CHAMFERA
 40
0.5
  9
$CHAMFERB
 40
0.5
  9
$CHAMFERC
 40
1.0
  9
$CHAMFERD
 40
0.0
  9
$SKPOLY
 70
     0
  9
$TDCREATE
 40
2456433.198021574
  9
$TDUCREATE
 40
2456433.489688241
  9
$TDUPDATE
 40
2457227.776004329
  9
$TDUUPDATE
 40
2457228.067670996
  9
$TDINDWG
 40
0.0247371644
  9
$TDUSRTIMER
 40
0.0247371065
  9
$USRTIMER
 70
     1
  9
$ANGBASE
 50
0.0
  9
$ANGDIR
 70
     0
  9
$PDMODE
 70
     0
  9
$PDSIZE
 40
0.0
  9
$PLINEWID
 40
0.0
  9
$SPLFRAME
 70
     0
  9
$SPLINETYPE
 70
     6
  9
$SPLINESEGS
 70
     8
  9
$HANDSEED
  5
2CD0
  9
$SURFTAB1
 70
     6
  9
$SURFTAB2
 70
     6
  9
$SURFTYPE
 70
     6
  9
$SURFU
 70
     6
  9
$SURFV
 70
     6
  9
$UCSBASE
  2

  9
$UCSNAME
  2

  9
$UCSORG
 10
0.0
 20
0.0
 30
0.0
  9
$UCSXDIR
 10
1.0
 20
0.0
 30
0.0
  9
$UCSYDIR
 10
0.0
 20
1.0
 30
0.0
  9
$UCSORTHOREF
  2

  9
$UCSORTHOVIEW
 70
     0
  9
$UCSORGTOP
 10
0.0
 20
0.0
 30
0.0
  9
$UCSORGBOTTOM
 10
0.0
 20
0.0
 30
0.0
  9
$UCSORGLEFT
 10
0.0
 20
0.0
 30
0.0
  9
$UCSORGRIGHT
 10
0.0
 20
0.0
 30
0.0
  9
$UCSORGFRONT
 10
0.0
 20
0.0
 30
0.0
  9
$UCSORGBACK
 10
0.0
 20
0.0
 30
0.0
  9
$PUCSBASE
  2

  9
$PUCSNAME
  2

  9
$PUCSORG
 10
0.0
 20
0.0
 30
0.0
  9
$PUCSXDIR
 10
1.0
 20
0.0
 30
0.0
  9
$PUCSYDIR
 10
0.0
 20
1.0
 30
0.0
  9
$PUCSORTHOREF
  2

  9
$PUCSORTHOVIEW
 70
     0
  9
$PUCSORGTOP
 10
0.0
 20
0.0
 30
0.0
  9
$PUCSORGBOTTOM
 10
0.0
 20
0.0
 30
0.0
  9
$PUCSORGLEFT
 10
0.0
 20
0.0
 30
0.0
  9
$PUCSORGRIGHT
 10
0.0
 20
0.0
 30
0.0
  9
$PUCSORGFRONT
 10
0.0
 20
0.0
 30
0.0
  9
$PUCSORGBACK
 10
0.0
 20
0.0
 30
0.0
  9
$USERI1
 70
     0
  9
$USERI2
 70
     0
  9
$USERI3
 70
     0
  9
$USERI4
 70
     0
  9
$USERI5
 70
     0
  9
$USERR1
 40
0.0
  9
$USERR2
 40
0.0
  9
$USERR3
 40
0.0
  9
$USERR4
 40
0.0
  9
$USERR5
 40
0.0
  9
$WORLDVIEW
 70
     1
  9
$SHADEDGE
 70
     3
  9
$SHADEDIF
 70
    70
  9
$TILEMODE
 70
     1
  9
$MAXACTVP
 70
    64
  9
$PINSBASE
 10
0.0
 20
0.0
 30
0.0
  9
$PLIMCHECK
 70
     0
  9
$PEXTMIN
 10
1.000000000000000E+20
 20
1.000000000000000E+20
 30
1.000000000000000E+20
  9
$PEXTMAX
 10
-1.000000000000000E+20
 20
-1.000000000000000E+20
 30
-1.000000000000000E+20
  9
$PLIMMIN
 10
0.0
 20
0.0
  9
$PLIMMAX
 10
12.0
 20
9.0
  9
$UNITMODE
 70
     0
  9
$VISRETAIN
 70
     1
  9
$PLINEGEN
 70
     0
  9
$PSLTSCALE
 70
     1
  9
$TREEDEPTH
 70
  3020
  9
$CMLSTYLE
  2
Standard
  9
$CMLJUST
 70
     0
  9
$CMLSCALE
 40
1.0
  9
$PROXYGRAPHICS
 70
     1
  9
$MEASUREMENT
 70
     0
  9
$CELWEIGHT
370
    -1
  9
$ENDCAPS
280
     0
  9
$JOINSTYLE
280
     0
  9
$LWDISPLAY
290
     0
  9
$INSUNITS
 70
     1
  9
$HYPERLINKBASE
  1

  9
$STYLESHEET
  1

  9
$XEDIT
290
     1
  9
$CEPSNTYPE
380
     0
  9
$PSTYLEMODE
290
     1
  9
$FINGERPRINTGUID
  2
{A1201AC6-B900-4CD1-AAB6-991A5C93D916}
  9
$VERSIONGUID
  2
{EE0A5BD8-99A4-4EEA-96B6-AA3DC2FD71AC}
  9
$EXTNAMES
290
     1
  9
$PSVPSCALE
 40
0.0
  9
$OLESTARTUP
290
     0
  9
$SORTENTS
280
   127
  9
$INDEXCTL
280
     0
  9
$HIDETEXT
280
     1
  9
$XCLIPFRAME
280
     2
  9
$HALOGAP
280
     0
  9
$OBSCOLOR
 70
   257
  9
$OBSLTYPE
280
     0
  9
$INTERSECTIONDISPLAY
280
     0
  9
$INTERSECTIONCOLOR
 70
   257
  9
$DIMASSOC
280
     2
  9
$PROJECTNAME
  1

  9
$CAMERADISPLAY
290
     0
  9
$LENSLENGTH
 40
50.0
  9
$CAMERAHEIGHT
 40
0.0
  9
$STEPSPERSEC
 40
2.0
  9
$STEPSIZE
 40
6.0
  9
$3DDWFPREC
 40
2.0
  9
$PSOLWIDTH
 40
0.25
  9
$PSOLHEIGHT
 40
4.0
  9
$LOFTANG1
 40
1.570796326794897
  9
$LOFTANG2
 40
1.570796326794897
  9
$LOFTMAG1
 40
0.0
  9
$LOFTMAG2
 40
0.0
  9
$LOFTPARAM
 70
     7
  9
$LOFTNORMALS
280
     1
  9
$LATITUDE
 40
37.795
  9
$LONGITUDE
 40
-122.394
  9
$NORTHDIRECTION
 40
0.0
  9
$TIMEZONE
 70
 -8000
  9
$LIGHTGLYPHDISPLAY
280
     1
  9
$TILEMODELIGHTSYNCH
280
     1
  9
$CMATERIAL
347
3C
  9
$SOLIDHIST
280
     1
  9
$SHOWHIST
280
     1
  9
$DWFFRAME
280
     2
  9
$DGNFRAME
280
     2
  9
$REALWORLDSCALE
290
     1
  9
$INTERFERECOLOR
 62
   256
  9
$INTERFEREOBJVS
345
33
  9
$INTERFEREVPVS
346
2C2D
  9
$CSHADOW
280
     0
  9
$SHADOWPLANELOCATION
 40
0.0
  0
ENDSEC
  0
SECTION
  2
CLASSES
  0
CLASS
  1
ACDBDICTIONARYWDFLT
  2
AcDbDictionaryWithDefault
  3
ObjectDBX Classes
 90
        0
 91
        1
280
     0
281
     0
  0
CLASS
  1
VISUALSTYLE
  2
AcDbVisualStyle
  3
ObjectDBX Classes
 90
     4095
 91
       26
280
     0
281
     0
  0
CLASS
  1
MATERIAL
  2
AcDbMaterial
  3
ObjectDBX Classes
 90
     1153
 91
        3
280
     0
281
     0
  0
CLASS
  1
TABLESTYLE
  2
AcDbTableStyle
  3
ObjectDBX Classes
 90
     4095
 91
        1
280
     0
281
     0
  0
CLASS
  1
SCALE
  2
AcDbScale
  3
ObjectDBX Classes
 90
     1153
 91
       17
280
     0
281
     0
  0
CLASS
  1
MLEADERSTYLE
  2
AcDbMLeaderStyle
  3
ACDB_MLEADERSTYLE_CLASS
 90
     4095
 91
        1
280
     0
281
     0
  0
CLASS
  1
ACDBSECTIONVIEWSTYLE
  2
AcDbSectionViewStyle
  3
ObjectDBX Classes
 90
     1025
 91
        2
280
     0
281
     0
  0
CLASS
  1
ACDBDETAILVIEWSTYLE
  2
AcDbDetailViewStyle
  3
ObjectDBX Classes
 90
     1025
 91
        2
280
     0
281
     0
  0
CLASS
  1
DICTIONARYVAR
  2
AcDbDictionaryVar
  3
ObjectDBX Classes
 90
        0
 91
        5
280
     0
281
     0
  0
CLASS
  1
CELLSTYLEMAP
  2
AcDbCellStyleMap
  3
ObjectDBX Classes
 90
     1152
 91
        1
280
     0
281
     0
  0
ENDSEC
  0
SECTION
  2
TABLES
  0
TABLE
  2
VPORT
  5
8
330
0
100
AcDbSymbolTable
 70
     1
  0
VPORT
  5
29
330
8
100
AcDbSymbolTableRecord
100
AcDbViewportTableRecord
  2
*Active
 70
     0
 10
0.0
 20
0.0
 11
1.0
 21
1.0
 12
102.4643910730476
 22
202.0236243495822
 13
0.0
 23
0.0
 14
0.5
 24
0.5
 15
0.5
 25
0.5
 16
0.0
 26
0.0
 36
1.0
 17
0.0
 27
0.0
 37
-1000.0
 40
848.4211178988868
 41
2.293793103448275
 42
50.0
 43
1377.805741101714
 44
1711.924794679872
 50
0.0
 51
0.0
 71
     0
 72
   100
 73
     1
 74
     3
 75
     0
 76
     1
 77
     0
 78
     0
281
     0
 65
     1
110
0.0
120
0.0
130
0.0
111
1.0
121
0.0
131
0.0
112
0.0
122
1.0
132
0.0
 79
     0
146
0.0
348
2F
 60
     3
 61
     5
292
     1
282
     1
141
0.0
142
0.0
 63
   250
1001
ACAD_NAV_VCDISPLAY
1070
     3
  0
ENDTAB
  0
TABLE
  2
LTYPE
  5
5
330
0
100
AcDbSymbolTable
 70
     1
  0
LTYPE
  5
14
330
5
100
AcDbSymbolTableRecord
100
AcDbLinetypeTableRecord
  2
ByBlock
 70
     0
  3

 72
    65
 73
     0
 40
0.0
  0
LTYPE
  5
15
330
5
100
AcDbSymbolTableRecord
100
AcDbLinetypeTableRecord
  2
ByLayer
 70
     0
  3

 72
    65
 73
     0
 40
0.0
  0
LTYPE
  5
16
330
5
100
AcDbSymbolTableRecord
100
AcDbLinetypeTableRecord
  2
Continuous
 70
     0
  3
Solid line
 72
    65
 73
     0
 40
0.0
  0
ENDTAB
  0
TABLE
  2
LAYER
  5
2
102
{ACAD_XDICTIONARY
360
2CAB
102
}
330
0
100
AcDbSymbolTable
 70
     3
  0
LAYER
  5
10
330
2
100
AcDbSymbolTableRecord
100
AcDbLayerTableRecord
  2
0
 70
     0
 62
     7
  6
Continuous
370
    -3
390
F
347
3E
348
0
  0
LAYER
  5
3F
330
2
100
AcDbSymbolTableRecord
100
AcDbLayerTableRecord
  2
ProfileEdges
 70
     0
 62
     7
  6
Continuous
370
    -3
390
F
347
3E
348
0
  0
LAYER
  5
40
330
2
100
AcDbSymbolTableRecord
100
AcDbLayerTableRecord
  2
SectionCutEdges
 70
     0
 62
     7
  6
Continuous
370
    -3
390
F
347
3E
348
0
  0
ENDTAB
  0
TABLE
  2
STYLE
  5
3
330
0
100
AcDbSymbolTable
 70
     1
  0
STYLE
  5
11
330
3
100
AcDbSymbolTableRecord
100
AcDbTextStyleTableRecord
  2
Standard
 70
     0
 40
0.0
 41
1.0
 50
0.0
 71
     0
 42
0.2
  3
txt
  4

  0
ENDTAB
  0
TABLE
  2
VIEW
  5
6
330
0
100
AcDbSymbolTable
 70
     0
  0
ENDTAB
  0
TABLE
  2
UCS
  5
7
330
0
100
AcDbSymbolTable
 70
     0
  0
ENDTAB
  0
TABLE
  2
APPID
  5
9
330
0
100
AcDbSymbolTable
 70
     3
  0
APPID
  5
12
330
9
100
AcDbSymbolTableRecord
100
AcDbRegAppTableRecord
  2
ACAD
 70
     0
  0
APPID
  5
2C53
330
9
100
AcDbSymbolTableRecord
100
AcDbRegAppTableRecord
  2
ACAD_EXEMPT_FROM_CAD_STANDARDS
 70
     0
  0
APPID
  5
2C5A
330
9
100
AcDbSymbolTableRecord
100
AcDbRegAppTableRecord
  2
ACAD_NAV_VCDISPLAY
 70
     0
  0
ENDTAB
  0
TABLE
  2
DIMSTYLE
  5
A
330
0
100
AcDbSymbolTable
 70
     1
100
AcDbDimStyleTable
 71
     1
340
27
  0
DIMSTYLE
105
27
330
A
100
AcDbSymbolTableRecord
100
AcDbDimStyleTableRecord
  2
Standard
 70
     0
340
11
  0
ENDTAB
  0
TABLE
  2
BLOCK_RECORD
  5
1
330
0
100
AcDbSymbolTable
 70
     1
  0
BLOCK_RECORD
  5
1F
330
1
100
AcDbSymbolTableRecord
100
AcDbBlockTableRecord
  2
*Model_Space
340
22
 70
     0
280
     1
281
     0
  0
BLOCK_RECORD
  5
1B
330
1
100
AcDbSymbolTableRecord
100
AcDbBlockTableRecord
  2
*Paper_Space
340
1E
 70
     0
280
     1
281
     0
  0
BLOCK_RECORD
  5
23
330
1
100
AcDbSymbolTableRecord
100
AcDbBlockTableRecord
  2
*Paper_Space0
340
26
 70
     0
280
     1
281
     0
  0
ENDTAB
  0
ENDSEC
  0
SECTION
  2
BLOCKS
  0
BLOCK
  5
20
330
1F
100
AcDbEntity
  8
0
100
AcDbBlockBegin
  2
*Model_Space
 70
     0
 10
0.0
 20
0.0
 30
0.0
  3
*Model_Space
  1

  0
ENDBLK
  5
21
330
1F
100
AcDbEntity
  8
0
100
AcDbBlockEnd
  0
BLOCK
  5
1C
330
1B
100
AcDbEntity
 67
     1
  8
0
100
AcDbBlockBegin
  2
*Paper_Space
 70
     0
 10
0.0
 20
0.0
 30
0.0
  3
*Paper_Space
  1

  0
ENDBLK
  5
1D
330
1B
100
AcDbEntity
 67
     1
  8
0
100
AcDbBlockEnd
  0
BLOCK
  5
24
330
23
100
AcDbEntity
 67
     1
  8
0
100
AcDbBlockBegin
  2
*Paper_Space0
 70
     0
 10
0.0
 20
0.0
 30
0.0
  3
*Paper_Space0
  1

  0
ENDBLK
  5
25
330
23
100
AcDbEntity
 67
     1
  8
0
100
AcDbBlockEnd
  0
ENDSEC
  0
SECTION
  2
ENTITIES
  0
LINE
  5
552
330
1F
100
AcDbEntity
  8
0
100
AcDbLine
 10
153.798222289656
 20
368.9879865293314
 30
0.0
 11
153.798222289656
 21
374.2879853511312
 31
0.0
  0
LINE
  5
553
330
1F
100
AcDbEntity
  8
0
100
AcDbLine
 10
153.7982222896557
 20
363.8879887648308
 30
0.0
 11
155.5982205215564
 21
363.8879887648311
 31
0.0
  0
LINE
  5
554
330
1F
100
AcDbEntity
  8
0
100
AcDbLine
 10
155.5982205215566
 20
368.9879865293314
 30
0.0
 11
153.798222289656
 21
368.9879865293314
 31
0.0
  0
LINE
  5
555
330
1F
100
AcDbEntity
  8
0
100
AcDbLine
 10
147.5982193860575
 20
368.9879865293312
 30
0.0
 11
147.598219386057
 21
363.8879887648311
 31
0.0
  0
LINE
  5
556
330
1F
100
AcDbEntity
  8
0
100
AcDbLine
 10
251.8981846004639
 20
18.97195465710371
 30
0.0
 11
246.5981925936613
 21
18.97195465710371
 31
0.0
  0
LINE
  5
557
330
1F
100
AcDbEntity
  8
0
100
AcDbLine
 10
149.3982176179578
 20
363.8879887648311
 30
0.0
 11
149.398217617958
 21
359.9379889425311
 31
0.0
  0
LINE
  5
558
330
1F
100
AcDbEntity
  8
0
100
AcDbLine
 10
336.3981608178184
 20
311.9880060381766
 30
0.0
 11
336.3981608178185
 21
212.7218881808674
 31
0.0
  0
LINE
  5
559
330
1F
100
AcDbEntity
  8
0
100
AcDbLine
 10
64.89824821560083
 20
87.77192960125956
 30
0.0
 11
64.89824821560093
 21
85.97193136935919
 31
0.0
  0
LINE
  5
55A
330
1F
100
AcDbEntity
  8
0
100
AcDbLine
 10
73.94824580240083
 20
92.1719342729574
 30
0.0
 11
69.99824598010143
 21
92.1719342729574
 31
0.0
  0
LINE
  5
55B
330
1F
100
AcDbEntity
  8
0
100
AcDbLine
 10
69.99824598010121
 20
85.97193136935878
 30
0.0
 11
69.99824598010111
 21
87.77192960125921
 31
0.0
  0
LINE
  5
55C
330
1F
100
AcDbEntity
  8
0
100
AcDbLine
 10
59.59824939380083
 20
97.47193152785817
 30
0.0
 11
55.24825150259982
 21
97.47193152785817
 31
0.0
  0
LINE
  5
55D
330
1F
100
AcDbEntity
  8
0
100
AcDbLine
 10
59.59824939380083
 20
73.67194162935601
 30
0.0
 11
55.24825150260001
 21
73.67194162935601
 31
0.0
  0
LINE
  5
55E
330
1F
100
AcDbEntity
  8
0
100
AcDbLine
 10
69.99824598010111
 20
93.97193250485814
 30
0.0
 11
64.89824821560083
 21
93.97193250485814
 31
0.0
  0
LINE
  5
55F
330
1F
100
AcDbEntity
  8
0
100
AcDbLine
 10
73.94824580240102
 20
87.77192960125956
 30
0.0
 11
73.94824580240083
 21
92.1719342729574
 31
0.0
  0
LINE
  5
560
330
1F
100
AcDbEntity
  8
0
100
AcDbLine
 10
246.5981925936621
 20
368.9879865293312
 30
0.0
 11
246.5981925936619
 21
374.2879853511311
 31
0.0
  0
LINE
  5
561
330
1F
100
AcDbEntity
  8
0
100
AcDbLine
 10
336.3981608178185
 20
180.121903840163
 30
0.0
 11
336.3981608178182
 21
106.2719222448605
 31
0.0
  0
LINE
  5
562
330
1F
100
AcDbEntity
  8
0
100
AcDbLine
 10
242.1981879219635
 20
374.2879853511313
 30
0.0
 11
242.1981879219637
 21
368.9879865293313
 31
0.0
  0
LINE
  5
563
330
1F
100
AcDbEntity
  8
0
100
AcDbLine
 10
69.99824598010157
 20
330.4880024069776
 30
0.0
 11
69.99824598010135
 21
332.2880006388783
 31
0.0
  0
LINE
  5
564
330
1F
100
AcDbEntity
  8
0
100
AcDbLine
 10
246.5981925936615
 20
363.8879887648307
 30
0.0
 11
248.3981908255621
 21
363.8879887648308
 31
0.0
  0
LINE
  5
565
330
1F
100
AcDbEntity
  8
0
100
AcDbLine
 10
149.3982176179578
 20
374.2879853511313
 30
0.0
 11
149.398217617958
 21
368.9879865293314
 31
0.0
  0
LINE
  5
566
330
1F
100
AcDbEntity
  8
0
100
AcDbLine
 10
73.94824580240115
 20
326.0879977352798
 30
0.0
 11
73.94824580240094
 21
330.4880024069774
 31
0.0
  0
LINE
  5
567
330
1F
100
AcDbEntity
  8
0
100
AcDbLine
 10
240.3981896900631
 20
368.9879865293311
 30
0.0
 11
240.3981896900628
 21
363.8879887648309
 31
0.0
  0
LINE
  5
568
330
1F
100
AcDbEntity
  8
0
100
AcDbLine
 10
64.89824821560083
 20
93.97193250485814
 30
0.0
 11
64.89824821560083
 21
92.1719342729578
 31
0.0
  0
LINE
  5
569
330
1F
100
AcDbEntity
  8
0
100
AcDbLine
 10
64.89824821560093
 20
85.97193136935919
 30
0.0
 11
69.99824598010121
 21
85.97193136935878
 31
0.0
  0
LINE
  5
56A
330
1F
100
AcDbEntity
  8
0
100
AcDbLine
 10
59.59824939380083
 20
18.97195465710376
 30
0.0
 11
59.59824939380083
 21
73.67194162935601
 31
0.0
  0
LINE
  5
56B
330
1F
100
AcDbEntity
  8
0
100
AcDbLine
 10
69.99824598010135
 20
324.2879995033789
 30
0.0
 11
69.99824598010135
 21
326.0879977352796
 31
0.0
  0
LINE
  5
56C
330
1F
100
AcDbEntity
  8
0
100
AcDbLine
 10
336.3981608178182
 20
18.97195465710371
 30
0.0
 11
260.6981805655648
 21
18.97195465710371
 31
0.0
  0
LINE
  5
56D
330
1F
100
AcDbEntity
  8
0
100
AcDbLine
 10
69.99824598010143
 20
194.221895537266
 30
0.0
 11
73.9482458024012
 21
194.2218955372663
 31
0.0
  0
LINE
  5
56E
330
1F
100
AcDbEntity
  8
0
100
AcDbLine
 10
73.94824580240102
 20
198.6219002089639
 30
0.0
 11
69.9982459801015
 21
198.621900208964
 31
0.0
  0
LINE
  5
56F
330
1F
100
AcDbEntity
  8
0
100
AcDbLine
 10
331.0981619960181
 20
332.2880006388776
 30
0.0
 11
325.9981642315179
 21
332.2880006388779
 31
0.0
  0
LINE
  5
570
330
1F
100
AcDbEntity
  8
0
100
AcDbLine
 10
331.0981619960184
 20
330.4880024069772
 30
0.0
 11
331.0981619960181
 21
332.2880006388776
 31
0.0
  0
LINE
  5
571
330
1F
100
AcDbEntity
  8
0
100
AcDbLine
 10
322.0481644092185
 20
326.0879977352794
 30
0.0
 11
325.9981642315179
 21
326.0879977352793
 31
0.0
  0
LINE
  5
572
330
1F
100
AcDbEntity
  8
0
100
AcDbLine
 10
64.89824821560104
 20
324.2879995033793
 30
0.0
 11
69.99824598010135
 21
324.2879995033789
 31
0.0
  0
LINE
  5
573
330
1F
100
AcDbEntity
  8
0
100
AcDbLine
 10
155.5982205215559
 20
24.27195347890387
 30
0.0
 11
155.5982205215563
 21
29.37195124340417
 31
0.0
  0
LINE
  5
574
330
1F
100
AcDbEntity
  8
0
100
AcDbLine
 10
153.7982222896553
 20
24.27195347890375
 30
0.0
 11
155.5982205215559
 21
24.27195347890387
 31
0.0
  0
LINE
  5
575
330
1F
100
AcDbEntity
  8
0
100
AcDbLine
 10
149.3982176179577
 20
33.32195106570367
 30
0.0
 11
149.3982176179577
 21
29.37195124340434
 31
0.0
  0
LINE
  5
576
330
1F
100
AcDbEntity
  8
0
100
AcDbLine
 10
155.5982205215563
 20
29.37195124340417
 30
0.0
 11
153.7982222896557
 21
29.37195124340434
 31
0.0
  0
LINE
  5
577
330
1F
100
AcDbEntity
  8
0
100
AcDbLine
 10
144.098220363057
 20
18.97195465710416
 30
0.0
 11
144.0982203630569
 21
14.62195676590261
 31
0.0
  0
LINE
  5
578
330
1F
100
AcDbEntity
  8
0
100
AcDbLine
 10
167.8982102615591
 20
18.97195465710376
 30
0.0
 11
167.8982102615591
 21
14.62195676590301
 31
0.0
  0
LINE
  5
579
330
1F
100
AcDbEntity
  8
0
100
AcDbLine
 10
147.598219386057
 20
29.37195124340417
 30
0.0
 11
147.5982193860568
 21
24.27195347890375
 31
0.0
  0
LINE
  5
57A
330
1F
100
AcDbEntity
  8
0
100
AcDbLine
 10
59.59824939380101
 20
203.9218974638648
 30
0.0
 11
55.24825150259992
 21
203.9218974638649
 31
0.0
  0
LINE
  5
57B
330
1F
100
AcDbEntity
  8
0
100
AcDbLine
 10
336.3981608178182
 20
73.67193790415647
 30
0.0
 11
336.3981608178182
 21
18.97195465710371
 31
0.0
  0
LINE
  5
57C
330
1F
100
AcDbEntity
  8
0
100
AcDbLine
 10
149.3982176179572
 20
24.27195347890375
 30
0.0
 11
149.3982176179574
 21
18.97195465710376
 31
0.0
  0
LINE
  5
57D
330
1F
100
AcDbEntity
  8
0
100
AcDbLine
 10
149.3982176179577
 20
29.37195124340434
 30
0.0
 11
147.598219386057
 21
29.37195124340417
 31
0.0
  0
LINE
  5
57E
330
1F
100
AcDbEntity
  8
0
100
AcDbLine
 10
147.5982193860568
 20
24.27195347890375
 30
0.0
 11
149.3982176179572
 21
24.27195347890375
 31
0.0
  0
LINE
  5
57F
330
1F
100
AcDbEntity
  8
0
100
AcDbLine
 10
59.59824939380095
 20
344.5879941040801
 30
0.0
 11
59.59824939380116
 21
374.2879853511315
 31
0.0
  0
LINE
  5
580
330
1F
100
AcDbEntity
  8
0
100
AcDbLine
 10
59.59824939380083
 20
194.2218955372661
 30
0.0
 11
64.89824821560093
 21
194.2218955372663
 31
0.0
  0
LINE
  5
581
330
1F
100
AcDbEntity
  8
0
100
AcDbLine
 10
64.89824821560093
 20
198.6219002089648
 30
0.0
 11
59.59824939380121
 21
198.6219002089644
 31
0.0
  0
LINE
  5
582
330
1F
100
AcDbEntity
  8
0
100
AcDbLine
 10
64.89824821560103
 20
192.4218973053659
 30
0.0
 11
69.99824598010143
 21
192.4218973053656
 31
0.0
  0
LINE
  5
583
330
1F
100
AcDbEntity
  8
0
100
AcDbLine
 10
248.3981908255618
 20
24.27195347890387
 30
0.0
 11
248.398190825562
 21
29.371951243404
 31
0.0
  0
LINE
  5
584
330
1F
100
AcDbEntity
  8
0
100
AcDbLine
 10
246.5981925936611
 20
24.27195347890347
 30
0.0
 11
248.3981908255618
 21
24.27195347890387
 31
0.0
  0
LINE
  5
585
330
1F
100
AcDbEntity
  8
0
100
AcDbLine
 10
242.1981879219635
 20
33.32195106570362
 30
0.0
 11
242.1981879219635
 21
29.37195124340434
 31
0.0
  0
LINE
  5
586
330
1F
100
AcDbEntity
  8
0
100
AcDbLine
 10
325.9981642315179
 20
332.2880006388779
 30
0.0
 11
325.9981642315179
 21
330.4880024069773
 31
0.0
  0
LINE
  5
587
330
1F
100
AcDbEntity
  8
0
100
AcDbLine
 10
336.3981608178184
 20
320.7880004803786
 30
0.0
 11
340.7481587090193
 21
320.7880004803785
 31
0.0
  0
LINE
  5
588
330
1F
100
AcDbEntity
  8
0
100
AcDbLine
 10
336.3981608178184
 20
344.5879903788808
 30
0.0
 11
340.7481587090192
 21
344.5879903788807
 31
0.0
  0
LINE
  5
589
330
1F
100
AcDbEntity
  8
0
100
AcDbLine
 10
325.9981642315179
 20
324.2879995033787
 30
0.0
 11
331.0981619960184
 21
324.2879995033785
 31
0.0
  0
LINE
  5
58A
330
1F
100
AcDbEntity
  8
0
100
AcDbLine
 10
322.048164409218
 20
330.4880024069771
 30
0.0
 11
322.0481644092185
 21
326.0879977352794
 31
0.0
  0
LINE
  5
58B
330
1F
100
AcDbEntity
  8
0
100
AcDbLine
 10
322.0481644092182
 20
87.77192960125921
 30
0.0
 11
325.9981642315178
 21
87.771929601259
 31
0.0
  0
LINE
  5
58C
330
1F
100
AcDbEntity
  8
0
100
AcDbLine
 10
322.0481644092182
 20
198.6219002089636
 30
0.0
 11
322.0481644092184
 21
194.2218955372658
 31
0.0
  0
LINE
  5
58D
330
1F
100
AcDbEntity
  8
0
100
AcDbLine
 10
135.2982259208551
 20
18.97195465710376
 30
0.0
 11
59.59824939380083
 21
18.97195465710376
 31
0.0
  0
LINE
  5
58E
330
1F
100
AcDbEntity
  8
0
100
AcDbLine
 10
336.3981608178185
 20
198.6219002089636
 30
0.0
 11
331.0981619960183
 21
198.6219002089636
 31
0.0
  0
LINE
  5
58F
330
1F
100
AcDbEntity
  8
0
100
AcDbLine
 10
336.3981608178182
 20
326.0879977352792
 30
0.0
 11
336.3981608178184
 21
320.7880004803786
 31
0.0
  0
LINE
  5
590
330
1F
100
AcDbEntity
  8
0
100
AcDbLine
 10
336.3981608178184
 20
335.78799441378
 30
0.0
 11
336.3981608178184
 21
330.4880024069772
 31
0.0
  0
LINE
  5
591
330
1F
100
AcDbEntity
  8
0
100
AcDbLine
 10
325.9981642315179
 20
326.0879977352793
 30
0.0
 11
325.9981642315179
 21
324.2879995033787
 31
0.0
  0
LINE
  5
592
330
1F
100
AcDbEntity
  8
0
100
AcDbLine
 10
331.0981619960184
 20
324.2879995033785
 30
0.0
 11
331.0981619960182
 21
326.0879977352788
 31
0.0
  0
LINE
  5
593
330
1F
100
AcDbEntity
  8
0
100
AcDbLine
 10
325.9981642315179
 20
198.6219002089637
 30
0.0
 11
322.0481644092182
 21
198.6219002089636
 31
0.0
  0
LINE
  5
594
330
1F
100
AcDbEntity
  8
0
100
AcDbLine
 10
336.3981608178185
 20
203.9218922157666
 30
0.0
 11
336.3981608178185
 21
198.6219002089636
 31
0.0
  0
LINE
  5
595
330
1F
100
AcDbEntity
  8
0
100
AcDbLine
 10
248.3981908255624
 20
368.9879865293312
 30
0.0
 11
246.5981925936621
 21
368.9879865293312
 31
0.0
  0
LINE
  5
596
330
1F
100
AcDbEntity
  8
0
100
AcDbLine
 10
331.0981619960181
 20
87.7719296012586
 30
0.0
 11
336.3981608178182
 21
87.77192960125882
 31
0.0
  0
LINE
  5
597
330
1F
100
AcDbEntity
  8
0
100
AcDbLine
 10
325.9981642315178
 20
87.771929601259
 30
0.0
 11
325.9981642315179
 21
85.97193136935819
 31
0.0
  0
LINE
  5
598
330
1F
100
AcDbEntity
  8
0
100
AcDbLine
 10
228.0981999500602
 20
374.2879853511313
 30
0.0
 11
228.0981999500602
 21
378.6379832423319
 31
0.0
  0
LINE
  5
599
330
1F
100
AcDbEntity
  8
0
100
AcDbLine
 10
248.3981908255621
 20
363.8879887648308
 30
0.0
 11
248.3981908255624
 21
368.9879865293312
 31
0.0
  0
LINE
  5
59A
330
1F
100
AcDbEntity
  8
0
100
AcDbLine
 10
242.1981879219637
 20
368.9879865293313
 30
0.0
 11
240.3981896900631
 21
368.9879865293311
 31
0.0
  0
LINE
  5
59B
330
1F
100
AcDbEntity
  8
0
100
AcDbLine
 10
64.89824821560083
 20
92.1719342729578
 30
0.0
 11
59.59824939380101
 21
92.1719342729578
 31
0.0
  0
LINE
  5
59C
330
1F
100
AcDbEntity
  8
0
100
AcDbLine
 10
69.99824598010143
 20
92.1719342729574
 30
0.0
 11
69.99824598010111
 21
93.97193250485814
 31
0.0
  0
LINE
  5
59D
330
1F
100
AcDbEntity
  8
0
100
AcDbLine
 10
336.3981608178182
 20
82.47193234635835
 30
0.0
 11
340.7481587090193
 21
82.47193234635814
 31
0.0
  0
LINE
  5
59E
330
1F
100
AcDbEntity
  8
0
100
AcDbLine
 10
336.3981608178182
 20
106.2719222448605
 30
0.0
 11
340.7481587090192
 21
106.2719222448605
 31
0.0
  0
LINE
  5
59F
330
1F
100
AcDbEntity
  8
0
100
AcDbLine
 10
325.9981642315179
 20
85.97193136935819
 30
0.0
 11
331.0981619960181
 21
85.97193136935819
 31
0.0
  0
LINE
  5
5A0
330
1F
100
AcDbEntity
  8
0
100
AcDbLine
 10
69.99824598010135
 20
332.2880006388783
 30
0.0
 11
64.89824821560095
 21
332.2880006388783
 31
0.0
  0
LINE
  5
5A1
330
1F
100
AcDbEntity
  8
0
100
AcDbLine
 10
246.5981925936613
 20
18.97195465710371
 30
0.0
 11
246.5981925936611
 21
24.27195347890347
 31
0.0
  0
LINE
  5
5A2
330
1F
100
AcDbEntity
  8
0
100
AcDbLine
 10
59.59824939380121
 20
198.6219002089644
 30
0.0
 11
59.59824939380101
 21
203.9218974638648
 31
0.0
  0
LINE
  5
5A3
330
1F
100
AcDbEntity
  8
0
100
AcDbLine
 10
69.99824598010143
 20
192.4218973053656
 30
0.0
 11
69.99824598010143
 21
194.221895537266
 31
0.0
  0
LINE
  5
5A4
330
1F
100
AcDbEntity
  8
0
100
AcDbLine
 10
64.89824821560093
 20
194.2218955372663
 30
0.0
 11
64.89824821560103
 21
192.4218973053659
 31
0.0
  0
LINE
  5
5A5
330
1F
100
AcDbEntity
  8
0
100
AcDbLine
 10
59.5982493938007
 20
87.77192960125956
 30
0.0
 11
64.89824821560083
 21
87.77192960125956
 31
0.0
  0
LINE
  5
5A6
330
1F
100
AcDbEntity
  8
0
100
AcDbLine
 10
69.99824598010111
 20
87.77192960125921
 30
0.0
 11
73.94824580240102
 21
87.77192960125956
 31
0.0
  0
LINE
  5
5A7
330
1F
100
AcDbEntity
  8
0
100
AcDbLine
 10
331.0981619960181
 20
194.2218955372652
 30
0.0
 11
336.3981608178182
 21
194.2218955372656
 31
0.0
  0
LINE
  5
5A8
330
1F
100
AcDbEntity
  8
0
100
AcDbLine
 10
325.9981642315179
 20
194.2218955372656
 30
0.0
 11
325.9981642315179
 21
192.4218973053651
 31
0.0
  0
LINE
  5
5A9
330
1F
100
AcDbEntity
  8
0
100
AcDbLine
 10
331.0981619960183
 20
192.421897305365
 30
0.0
 11
331.0981619960181
 21
194.2218955372652
 31
0.0
  0
LINE
  5
5AA
330
1F
100
AcDbEntity
  8
0
100
AcDbLine
 10
331.0981619960181
 20
200.4218984408641
 30
0.0
 11
325.9981642315179
 21
200.4218984408646
 31
0.0
  0
LINE
  5
5AB
330
1F
100
AcDbEntity
  8
0
100
AcDbLine
 10
149.3982176179574
 20
18.97195465710376
 30
0.0
 11
144.098220363057
 21
18.97195465710416
 31
0.0
  0
LINE
  5
5AC
330
1F
100
AcDbEntity
  8
0
100
AcDbLine
 10
242.1981879219631
 20
18.97195465710376
 30
0.0
 11
236.8981906670628
 21
18.97195465710376
 31
0.0
  0
LINE
  5
5AD
330
1F
100
AcDbEntity
  8
0
100
AcDbLine
 10
64.89824821560086
 20
326.0879977352798
 30
0.0
 11
64.89824821560104
 21
324.2879995033793
 31
0.0
  0
LINE
  5
5AE
330
1F
100
AcDbEntity
  8
0
100
AcDbLine
 10
248.398190825562
 20
29.371951243404
 30
0.0
 11
246.5981925936613
 21
29.37195124340417
 31
0.0
  0
LINE
  5
5AF
330
1F
100
AcDbEntity
  8
0
100
AcDbLine
 10
153.7982222896555
 20
18.97195465710376
 30
0.0
 11
153.7982222896553
 21
24.27195347890375
 31
0.0
  0
LINE
  5
5B0
330
1F
100
AcDbEntity
  8
0
100
AcDbLine
 10
153.7982222896557
 20
29.37195124340434
 30
0.0
 11
153.7982222896553
 21
33.32195106570401
 31
0.0
  0
LINE
  5
5B1
330
1F
100
AcDbEntity
  8
0
100
AcDbLine
 10
159.0982142964582
 20
18.97195465710376
 30
0.0
 11
153.7982222896555
 21
18.97195465710376
 31
0.0
  0
LINE
  5
5B2
330
1F
100
AcDbEntity
  8
0
100
AcDbLine
 10
73.9482458024012
 20
194.2218955372663
 30
0.0
 11
73.94824580240102
 21
198.6219002089639
 31
0.0
  0
LINE
  5
5B3
330
1F
100
AcDbEntity
  8
0
100
AcDbLine
 10
64.89824821560093
 20
200.4218984408651
 30
0.0
 11
64.89824821560093
 21
198.6219002089648
 31
0.0
  0
LINE
  5
5B4
330
1F
100
AcDbEntity
  8
0
100
AcDbLine
 10
69.99824598010133
 20
200.4218984408651
 30
0.0
 11
64.89824821560093
 21
200.4218984408651
 31
0.0
  0
LINE
  5
5B5
330
1F
100
AcDbEntity
  8
0
100
AcDbLine
 10
336.3981608178182
 20
87.77192960125882
 30
0.0
 11
336.3981608178182
 21
82.47193234635835
 31
0.0
  0
LINE
  5
5B6
330
1F
100
AcDbEntity
  8
0
100
AcDbLine
 10
331.0981619960181
 20
93.97193250485742
 30
0.0
 11
325.9981642315179
 21
93.97193250485781
 31
0.0
  0
LINE
  5
5B7
330
1F
100
AcDbEntity
  8
0
100
AcDbLine
 10
149.398217617958
 20
368.9879865293314
 30
0.0
 11
147.5982193860575
 21
368.9879865293312
 31
0.0
  0
LINE
  5
5B8
330
1F
100
AcDbEntity
  8
0
100
AcDbLine
 10
153.7982222896557
 20
359.9379889425313
 30
0.0
 11
153.7982222896557
 21
363.8879887648308
 31
0.0
  0
LINE
  5
5B9
330
1F
100
AcDbEntity
  8
0
100
AcDbLine
 10
147.598219386057
 20
363.8879887648311
 30
0.0
 11
149.3982176179578
 21
363.8879887648311
 31
0.0
  0
LINE
  5
5BA
330
1F
100
AcDbEntity
  8
0
100
AcDbLine
 10
159.0982195445564
 20
374.2879853511312
 30
0.0
 11
159.0982195445564
 21
378.6379832423323
 31
0.0
  0
LINE
  5
5BB
330
1F
100
AcDbEntity
  8
0
100
AcDbLine
 10
246.5981925936619
 20
374.2879853511311
 30
0.0
 11
251.8981898485622
 21
374.2879853511311
 31
0.0
  0
LINE
  5
5BC
330
1F
100
AcDbEntity
  8
0
100
AcDbLine
 10
153.7982222896553
 20
33.32195106570401
 30
0.0
 11
149.3982176179577
 21
33.32195106570367
 31
0.0
  0
LINE
  5
5BD
330
1F
100
AcDbEntity
  8
0
100
AcDbLine
 10
59.59824939380077
 20
326.0879977352797
 30
0.0
 11
64.89824821560086
 21
326.0879977352798
 31
0.0
  0
LINE
  5
5BE
330
1F
100
AcDbEntity
  8
0
100
AcDbLine
 10
69.99824598010135
 20
326.0879977352796
 30
0.0
 11
73.94824580240115
 21
326.0879977352798
 31
0.0
  0
LINE
  5
5BF
330
1F
100
AcDbEntity
  8
0
100
AcDbLine
 10
73.94824580240094
 20
330.4880024069774
 30
0.0
 11
69.99824598010157
 21
330.4880024069776
 31
0.0
  0
LINE
  5
5C0
330
1F
100
AcDbEntity
  8
0
100
AcDbLine
 10
59.59824939380101
 20
92.1719342729578
 30
0.0
 11
59.59824939380083
 21
97.47193152785817
 31
0.0
  0
LINE
  5
5C1
330
1F
100
AcDbEntity
  8
0
100
AcDbLine
 10
59.59824939380083
 20
106.27192597006
 30
0.0
 11
59.59824939380101
 21
180.1219075653627
 31
0.0
  0
LINE
  5
5C2
330
1F
100
AcDbEntity
  8
0
100
AcDbLine
 10
59.59824939380101
 20
212.7218919060666
 30
0.0
 11
59.59824939380095
 21
311.9880097633761
 31
0.0
  0
LINE
  5
5C3
330
1F
100
AcDbEntity
  8
0
100
AcDbLine
 10
59.59824939380061
 20
82.4719375944567
 30
0.0
 11
59.5982493938007
 21
87.77192960125956
 31
0.0
  0
LINE
  5
5C4
330
1F
100
AcDbEntity
  8
0
100
AcDbLine
 10
240.3981896900627
 20
29.37195124340417
 30
0.0
 11
240.3981896900626
 21
24.27195347890347
 31
0.0
  0
LINE
  5
5C5
330
1F
100
AcDbEntity
  8
0
100
AcDbLine
 10
246.5981925936611
 20
33.32195106570379
 30
0.0
 11
242.1981879219635
 21
33.32195106570362
 31
0.0
  0
LINE
  5
5C6
330
1F
100
AcDbEntity
  8
0
100
AcDbLine
 10
242.1981879219631
 20
24.27195347890347
 30
0.0
 11
242.1981879219631
 21
18.97195465710376
 31
0.0
  0
LINE
  5
5C7
330
1F
100
AcDbEntity
  8
0
100
AcDbLine
 10
322.0481644092184
 20
194.2218955372658
 30
0.0
 11
325.9981642315179
 21
194.2218955372656
 31
0.0
  0
LINE
  5
5C8
330
1F
100
AcDbEntity
  8
0
100
AcDbLine
 10
325.9981642315179
 20
200.4218984408646
 30
0.0
 11
325.9981642315179
 21
198.6219002089637
 31
0.0
  0
LINE
  5
5C9
330
1F
100
AcDbEntity
  8
0
100
AcDbLine
 10
336.3981608178182
 20
188.9218982823652
 30
0.0
 11
340.7481587090193
 21
188.9218982823651
 31
0.0
  0
LINE
  5
5CA
330
1F
100
AcDbEntity
  8
0
100
AcDbLine
 10
336.3981608178185
 20
212.7218881808674
 30
0.0
 11
340.7481587090192
 21
212.7218881808673
 31
0.0
  0
LINE
  5
5CB
330
1F
100
AcDbEntity
  8
0
100
AcDbLine
 10
325.9981642315179
 20
192.4218973053651
 30
0.0
 11
331.0981619960183
 21
192.421897305365
 31
0.0
  0
LINE
  5
5CC
330
1F
100
AcDbEntity
  8
0
100
AcDbLine
 10
155.5982205215564
 20
363.8879887648311
 30
0.0
 11
155.5982205215566
 21
368.9879865293314
 31
0.0
  0
LINE
  5
5CD
330
1F
100
AcDbEntity
  8
0
100
AcDbLine
 10
149.398217617958
 20
359.9379889425311
 30
0.0
 11
153.7982222896557
 21
359.9379889425313
 31
0.0
  0
LINE
  5
5CE
330
1F
100
AcDbEntity
  8
0
100
AcDbLine
 10
236.8981906670628
 20
18.97195465710376
 30
0.0
 11
236.8981906670628
 21
14.62195676590261
 31
0.0
  0
LINE
  5
5CF
330
1F
100
AcDbEntity
  8
0
100
AcDbLine
 10
260.6981805655648
 20
18.97195465710371
 30
0.0
 11
260.6981805655648
 21
14.62195676590267
 31
0.0
  0
LINE
  5
5D0
330
1F
100
AcDbEntity
  8
0
100
AcDbLine
 10
246.5981925936615
 20
359.9379889425311
 30
0.0
 11
246.5981925936615
 21
363.8879887648307
 31
0.0
  0
LINE
  5
5D1
330
1F
100
AcDbEntity
  8
0
100
AcDbLine
 10
251.8981898485622
 20
374.2879853511311
 30
0.0
 11
251.8981898485622
 21
378.6379832423321
 31
0.0
  0
LINE
  5
5D2
330
1F
100
AcDbEntity
  8
0
100
AcDbLine
 10
59.5982493938007
 20
188.9219035304634
 30
0.0
 11
59.59824939380083
 21
194.2218955372661
 31
0.0
  0
LINE
  5
5D3
330
1F
100
AcDbEntity
  8
0
100
AcDbLine
 10
336.3981608178184
 20
330.4880024069772
 30
0.0
 11
331.0981619960184
 21
330.4880024069772
 31
0.0
  0
LINE
  5
5D4
330
1F
100
AcDbEntity
  8
0
100
AcDbLine
 10
325.9981642315179
 20
330.4880024069773
 30
0.0
 11
322.048164409218
 21
330.4880024069771
 31
0.0
  0
LINE
  5
5D5
330
1F
100
AcDbEntity
  8
0
100
AcDbLine
 10
336.3981608178182
 20
194.2218955372656
 30
0.0
 11
336.3981608178182
 21
188.9218982823652
 31
0.0
  0
LINE
  5
5D6
330
1F
100
AcDbEntity
  8
0
100
AcDbLine
 10
331.0981619960182
 20
326.0879977352788
 30
0.0
 11
336.3981608178182
 21
326.0879977352792
 31
0.0
  0
LINE
  5
5D7
330
1F
100
AcDbEntity
  8
0
100
AcDbLine
 10
69.9982459801015
 20
198.621900208964
 30
0.0
 11
69.99824598010133
 21
200.4218984408651
 31
0.0
  0
LINE
  5
5D8
330
1F
100
AcDbEntity
  8
0
100
AcDbLine
 10
336.3981608178185
 20
97.47192627975966
 30
0.0
 11
336.3981608178182
 21
92.17193427295701
 31
0.0
  0
LINE
  5
5D9
330
1F
100
AcDbEntity
  8
0
100
AcDbLine
 10
246.5981925936613
 20
29.37195124340417
 30
0.0
 11
246.5981925936611
 21
33.32195106570379
 31
0.0
  0
LINE
  5
5DA
330
1F
100
AcDbEntity
  8
0
100
AcDbLine
 10
153.798222289656
 20
374.2879853511312
 30
0.0
 11
159.0982195445564
 21
374.2879853511312
 31
0.0
  0
LINE
  5
5DB
330
1F
100
AcDbEntity
  8
0
100
AcDbLine
 10
167.8982139867583
 20
374.2879853511313
 30
0.0
 11
228.0981999500602
 21
374.2879853511313
 31
0.0
  0
LINE
  5
5DC
330
1F
100
AcDbEntity
  8
0
100
AcDbLine
 10
236.8981959151609
 20
374.2879853511313
 30
0.0
 11
242.1981879219635
 21
374.2879853511313
 31
0.0
  0
LINE
  5
5DD
330
1F
100
AcDbEntity
  8
0
100
AcDbLine
 10
59.59824939380101
 20
180.1219075653627
 30
0.0
 11
55.24825150260014
 21
180.1219075653629
 31
0.0
  0
LINE
  5
5DE
330
1F
100
AcDbEntity
  8
0
100
AcDbLine
 10
240.3981896900626
 20
24.27195347890347
 30
0.0
 11
242.1981879219631
 21
24.27195347890347
 31
0.0
  0
LINE
  5
5DF
330
1F
100
AcDbEntity
  8
0
100
AcDbLine
 10
64.89824821560095
 20
332.2880006388783
 30
0.0
 11
64.89824821560095
 21
330.4880024069782
 31
0.0
  0
LINE
  5
5E0
330
1F
100
AcDbEntity
  8
0
100
AcDbLine
 10
64.89824821560095
 20
330.4880024069782
 30
0.0
 11
59.59824939380116
 21
330.4880024069779
 31
0.0
  0
LINE
  5
5E1
330
1F
100
AcDbEntity
  8
0
100
AcDbLine
 10
59.59824939380116
 20
330.4880024069779
 30
0.0
 11
59.59824939380116
 21
335.7879996618783
 31
0.0
  0
LINE
  5
5E2
330
1F
100
AcDbEntity
  8
0
100
AcDbLine
 10
228.0981962248607
 20
18.97195465710376
 30
0.0
 11
167.8982102615591
 21
18.97195465710376
 31
0.0
  0
LINE
  5
5E3
330
1F
100
AcDbEntity
  8
0
100
AcDbLine
 10
59.59824939380116
 20
335.7879996618783
 30
0.0
 11
55.24825150259996
 21
335.7879996618784
 31
0.0
  0
LINE
  5
5E4
330
1F
100
AcDbEntity
  8
0
100
AcDbLine
 10
260.6981842907642
 20
374.2879853511313
 30
0.0
 11
336.3981608178184
 21
374.2879853511312
 31
0.0
  0
LINE
  5
5E5
330
1F
100
AcDbEntity
  8
0
100
AcDbLine
 10
336.3981608178184
 20
374.2879853511312
 30
0.0
 11
336.3981608178184
 21
344.5879903788808
 31
0.0
  0
LINE
  5
5E6
330
1F
100
AcDbEntity
  8
0
100
AcDbLine
 10
240.3981896900628
 20
363.8879887648309
 30
0.0
 11
242.1981879219635
 21
363.8879887648309
 31
0.0
  0
LINE
  5
5E7
330
1F
100
AcDbEntity
  8
0
100
AcDbLine
 10
242.1981879219635
 20
363.8879887648309
 30
0.0
 11
242.1981879219637
 21
359.9379889425311
 31
0.0
  0
LINE
  5
5E8
330
1F
100
AcDbEntity
  8
0
100
AcDbLine
 10
242.1981879219637
 20
359.9379889425311
 30
0.0
 11
246.5981925936615
 21
359.9379889425311
 31
0.0
  0
LINE
  5
5E9
330
1F
100
AcDbEntity
  8
0
100
AcDbLine
 10
336.3981608178182
 20
92.17193427295701
 30
0.0
 11
331.0981619960181
 21
92.17193427295686
 31
0.0
  0
LINE
  5
5EA
330
1F
100
AcDbEntity
  8
0
100
AcDbLine
 10
331.0981619960181
 20
92.17193427295686
 30
0.0
 11
331.0981619960181
 21
93.97193250485742
 31
0.0
  0
LINE
  5
5EB
330
1F
100
AcDbEntity
  8
0
100
AcDbLine
 10
325.9981642315179
 20
93.97193250485781
 30
0.0
 11
325.9981642315178
 21
92.17193427295701
 31
0.0
  0
LINE
  5
5EC
330
1F
100
AcDbEntity
  8
0
100
AcDbLine
 10
325.9981642315178
 20
92.17193427295701
 30
0.0
 11
322.048164409218
 21
92.17193427295686
 31
0.0
  0
LINE
  5
5ED
330
1F
100
AcDbEntity
  8
0
100
AcDbLine
 10
322.048164409218
 20
92.17193427295686
 30
0.0
 11
322.0481644092182
 21
87.77192960125921
 31
0.0
  0
LINE
  5
5EE
330
1F
100
AcDbEntity
  8
0
100
AcDbLine
 10
242.1981879219635
 20
29.37195124340434
 30
0.0
 11
240.3981896900627
 21
29.37195124340417
 31
0.0
  0
LINE
  5
5EF
330
1F
100
AcDbEntity
  8
0
100
AcDbLine
 10
59.59824939380116
 20
374.2879853511315
 30
0.0
 11
135.2982296460542
 21
374.2879853511313
 31
0.0
  0
LINE
  5
5F0
330
1F
100
AcDbEntity
  8
0
100
AcDbLine
 10
135.2982296460542
 20
374.2879853511313
 30
0.0
 11
135.2982296460544
 21
378.637983242332
 31
0.0
  0
LINE
  5
5F1
330
1F
100
AcDbEntity
  8
0
100
AcDbLine
 10
142.0982256111553
 20
380.6379832423319
 30
0.0
 11
142.6158637013605
 21
380.5698348949099
 31
0.0
  0
LINE
  5
5F2
330
1F
100
AcDbEntity
  8
0
100
AcDbLine
 10
142.6158637013605
 20
380.5698348949099
 30
0.0
 11
143.0982256111555
 21
380.3700340499006
 31
0.0
  0
LINE
  5
5F3
330
1F
100
AcDbEntity
  8
0
100
AcDbLine
 10
143.0982256111555
 20
380.3700340499006
 30
0.0
 11
143.5124391735284
 21
380.0521968047049
 31
0.0
  0
LINE
  5
5F4
330
1F
100
AcDbEntity
  8
0
100
AcDbLine
 10
143.5124391735284
 20
380.0521968047049
 30
0.0
 11
143.8302764187243
 21
379.6379832423319
 31
0.0
  0
LINE
  5
5F5
330
1F
100
AcDbEntity
  8
0
100
AcDbLine
 10
143.8302764187243
 20
379.6379832423319
 30
0.0
 11
144.0300772637335
 21
379.1556213325368
 31
0.0
  0
LINE
  5
5F6
330
1F
100
AcDbEntity
  8
0
100
AcDbLine
 10
144.0982256111553
 20
378.6379832423317
 30
0.0
 11
144.098225611155
 21
374.2879853511313
 31
0.0
  0
LINE
  5
5F7
330
1F
100
AcDbEntity
  8
0
100
AcDbLine
 10
144.0300772637335
 20
379.1556213325368
 30
0.0
 11
144.0982256111553
 21
378.6379832423317
 31
0.0
  0
LINE
  5
5F8
330
1F
100
AcDbEntity
  8
0
100
AcDbLine
 10
159.0982195445564
 20
378.6379832423323
 30
0.0
 11
159.1663678919783
 21
379.1556213325374
 31
0.0
  0
LINE
  5
5F9
330
1F
100
AcDbEntity
  8
0
100
AcDbLine
 10
159.1663678919783
 20
379.1556213325374
 30
0.0
 11
159.3661687369877
 21
379.6379832423323
 31
0.0
  0
LINE
  5
5FA
330
1F
100
AcDbEntity
  8
0
100
AcDbLine
 10
159.3661687369877
 20
379.6379832423323
 30
0.0
 11
159.6840059821833
 21
380.0521968047054
 31
0.0
  0
LINE
  5
5FB
330
1F
100
AcDbEntity
  8
0
100
AcDbLine
 10
159.6840059821833
 20
380.0521968047054
 30
0.0
 11
160.0982195445564
 21
380.3700340499011
 31
0.0
  0
LINE
  5
5FC
330
1F
100
AcDbEntity
  8
0
100
AcDbLine
 10
160.0982195445564
 20
380.3700340499011
 30
0.0
 11
160.5805814543513
 21
380.5698348949103
 31
0.0
  0
LINE
  5
5FD
330
1F
100
AcDbEntity
  8
0
100
AcDbLine
 10
161.0982195445563
 20
380.6379832423323
 30
0.0
 11
165.8982139867584
 21
380.6379832423326
 31
0.0
  0
LINE
  5
5FE
330
1F
100
AcDbEntity
  8
0
100
AcDbLine
 10
160.5805814543513
 20
380.5698348949103
 30
0.0
 11
161.0982195445563
 21
380.6379832423323
 31
0.0
  0
LINE
  5
5FF
330
1F
100
AcDbEntity
  8
0
100
AcDbLine
 10
167.8982139867583
 20
378.6379832423325
 30
0.0
 11
167.8982139867583
 21
374.2879853511313
 31
0.0
  0
LINE
  5
600
330
1F
100
AcDbEntity
  8
0
100
AcDbLine
 10
167.8982139867583
 20
378.6379832423325
 30
0.0
 11
167.8300656393365
 21
379.1556213325375
 31
0.0
  0
LINE
  5
601
330
1F
100
AcDbEntity
  8
0
100
AcDbLine
 10
167.8300656393365
 20
379.1556213325375
 30
0.0
 11
167.6302647943272
 21
379.6379832423326
 31
0.0
  0
LINE
  5
602
330
1F
100
AcDbEntity
  8
0
100
AcDbLine
 10
167.6302647943272
 20
379.6379832423326
 30
0.0
 11
167.3124275491314
 21
380.0521968047057
 31
0.0
  0
LINE
  5
603
330
1F
100
AcDbEntity
  8
0
100
AcDbLine
 10
167.3124275491314
 20
380.0521968047057
 30
0.0
 11
166.8982139867584
 21
380.3700340499013
 31
0.0
  0
LINE
  5
604
330
1F
100
AcDbEntity
  8
0
100
AcDbLine
 10
166.8982139867584
 20
380.3700340499013
 30
0.0
 11
166.4158520769633
 21
380.5698348949107
 31
0.0
  0
LINE
  5
605
330
1F
100
AcDbEntity
  8
0
100
AcDbLine
 10
166.4158520769633
 20
380.5698348949107
 30
0.0
 11
165.8982139867584
 21
380.6379832423326
 31
0.0
  0
LINE
  5
606
330
1F
100
AcDbEntity
  8
0
100
AcDbLine
 10
135.2982296460544
 20
378.637983242332
 30
0.0
 11
135.3663779934761
 21
379.1556213325372
 31
0.0
  0
LINE
  5
607
330
1F
100
AcDbEntity
  8
0
100
AcDbLine
 10
135.3663779934761
 20
379.1556213325372
 30
0.0
 11
135.5661788384854
 21
379.637983242332
 31
0.0
  0
LINE
  5
608
330
1F
100
AcDbEntity
  8
0
100
AcDbLine
 10
135.5661788384854
 20
379.637983242332
 30
0.0
 11
135.8840160836812
 21
380.0521968047052
 31
0.0
  0
LINE
  5
609
330
1F
100
AcDbEntity
  8
0
100
AcDbLine
 10
135.8840160836812
 20
380.0521968047052
 30
0.0
 11
136.2982296460544
 21
380.3700340499009
 31
0.0
  0
LINE
  5
60A
330
1F
100
AcDbEntity
  8
0
100
AcDbLine
 10
136.2982296460544
 20
380.3700340499009
 30
0.0
 11
136.7805915558492
 21
380.5698348949101
 31
0.0
  0
LINE
  5
60B
330
1F
100
AcDbEntity
  8
0
100
AcDbLine
 10
137.2982296460544
 20
380.637983242332
 30
0.0
 11
142.0982256111553
 21
380.6379832423319
 31
0.0
  0
LINE
  5
60C
330
1F
100
AcDbEntity
  8
0
100
AcDbLine
 10
136.7805915558492
 20
380.5698348949101
 30
0.0
 11
137.2982296460544
 21
380.637983242332
 31
0.0
  0
LINE
  5
60D
330
1F
100
AcDbEntity
  8
0
100
AcDbLine
 10
251.8981898485622
 20
378.6379832423321
 30
0.0
 11
251.9663381959842
 21
379.1556213325372
 31
0.0
  0
LINE
  5
60E
330
1F
100
AcDbEntity
  8
0
100
AcDbLine
 10
251.9663381959842
 20
379.1556213325372
 30
0.0
 11
252.1661390409935
 21
379.6379832423322
 31
0.0
  0
LINE
  5
60F
330
1F
100
AcDbEntity
  8
0
100
AcDbLine
 10
252.1661390409935
 20
379.6379832423322
 30
0.0
 11
252.4839762861892
 21
380.0521968047052
 31
0.0
  0
LINE
  5
610
330
1F
100
AcDbEntity
  8
0
100
AcDbLine
 10
252.4839762861892
 20
380.0521968047052
 30
0.0
 11
252.8981898485623
 21
380.370034049901
 31
0.0
  0
LINE
  5
611
330
1F
100
AcDbEntity
  8
0
100
AcDbLine
 10
252.8981898485623
 20
380.370034049901
 30
0.0
 11
253.3805517583572
 21
380.5698348949102
 31
0.0
  0
LINE
  5
612
330
1F
100
AcDbEntity
  8
0
100
AcDbLine
 10
253.8981898485622
 20
380.6379832423322
 30
0.0
 11
258.6981842907642
 21
380.6379832423324
 31
0.0
  0
LINE
  5
613
330
1F
100
AcDbEntity
  8
0
100
AcDbLine
 10
253.3805517583572
 20
380.5698348949102
 30
0.0
 11
253.8981898485622
 21
380.6379832423322
 31
0.0
  0
LINE
  5
614
330
1F
100
AcDbEntity
  8
0
100
AcDbLine
 10
260.6981842907643
 20
378.6379832423323
 30
0.0
 11
260.6981842907642
 21
374.2879853511313
 31
0.0
  0
LINE
  5
615
330
1F
100
AcDbEntity
  8
0
100
AcDbLine
 10
260.6981842907643
 20
378.6379832423323
 30
0.0
 11
260.6300359433423
 21
379.1556213325374
 31
0.0
  0
LINE
  5
616
330
1F
100
AcDbEntity
  8
0
100
AcDbLine
 10
260.6300359433423
 20
379.1556213325374
 30
0.0
 11
260.4302350983332
 21
379.6379832423324
 31
0.0
  0
LINE
  5
617
330
1F
100
AcDbEntity
  8
0
100
AcDbLine
 10
260.4302350983332
 20
379.6379832423324
 30
0.0
 11
260.1123978531374
 21
380.0521968047055
 31
0.0
  0
LINE
  5
618
330
1F
100
AcDbEntity
  8
0
100
AcDbLine
 10
260.1123978531374
 20
380.0521968047055
 30
0.0
 11
259.6981842907642
 21
380.3700340499012
 31
0.0
  0
LINE
  5
619
330
1F
100
AcDbEntity
  8
0
100
AcDbLine
 10
259.6981842907642
 20
380.3700340499012
 30
0.0
 11
259.2158223809692
 21
380.5698348949105
 31
0.0
  0
LINE
  5
61A
330
1F
100
AcDbEntity
  8
0
100
AcDbLine
 10
259.2158223809692
 20
380.5698348949105
 30
0.0
 11
258.6981842907642
 21
380.6379832423324
 31
0.0
  0
LINE
  5
61B
330
1F
100
AcDbEntity
  8
0
100
AcDbLine
 10
236.8981959151611
 20
378.6379832423317
 30
0.0
 11
236.8981959151609
 21
374.2879853511313
 31
0.0
  0
LINE
  5
61C
330
1F
100
AcDbEntity
  8
0
100
AcDbLine
 10
236.8981959151611
 20
378.6379832423317
 30
0.0
 11
236.8300475677393
 21
379.1556213325368
 31
0.0
  0
LINE
  5
61D
330
1F
100
AcDbEntity
  8
0
100
AcDbLine
 10
236.8300475677393
 20
379.1556213325368
 30
0.0
 11
236.6302467227301
 21
379.6379832423317
 31
0.0
  0
LINE
  5
61E
330
1F
100
AcDbEntity
  8
0
100
AcDbLine
 10
236.6302467227301
 20
379.6379832423317
 30
0.0
 11
236.3124094775342
 21
380.0521968047048
 31
0.0
  0
LINE
  5
61F
330
1F
100
AcDbEntity
  8
0
100
AcDbLine
 10
236.3124094775342
 20
380.0521968047048
 30
0.0
 11
235.8981959151612
 21
380.3700340499006
 31
0.0
  0
LINE
  5
620
330
1F
100
AcDbEntity
  8
0
100
AcDbLine
 10
235.8981959151612
 20
380.3700340499006
 30
0.0
 11
235.4158340053662
 21
380.5698348949099
 31
0.0
  0
LINE
  5
621
330
1F
100
AcDbEntity
  8
0
100
AcDbLine
 10
235.4158340053662
 20
380.5698348949099
 30
0.0
 11
234.8981959151612
 21
380.6379832423317
 31
0.0
  0
LINE
  5
622
330
1F
100
AcDbEntity
  8
0
100
AcDbLine
 10
228.0981999500602
 20
378.6379832423319
 30
0.0
 11
228.1663482974821
 21
379.1556213325368
 31
0.0
  0
LINE
  5
623
330
1F
100
AcDbEntity
  8
0
100
AcDbLine
 10
228.1663482974821
 20
379.1556213325368
 30
0.0
 11
228.3661491424912
 21
379.6379832423319
 31
0.0
  0
LINE
  5
624
330
1F
100
AcDbEntity
  8
0
100
AcDbLine
 10
228.3661491424912
 20
379.6379832423319
 30
0.0
 11
228.683986387687
 21
380.052196804705
 31
0.0
  0
LINE
  5
625
330
1F
100
AcDbEntity
  8
0
100
AcDbLine
 10
228.683986387687
 20
380.052196804705
 30
0.0
 11
229.0981999500602
 21
380.3700340499008
 31
0.0
  0
LINE
  5
626
330
1F
100
AcDbEntity
  8
0
100
AcDbLine
 10
229.0981999500602
 20
380.3700340499008
 30
0.0
 11
229.580561859855
 21
380.5698348949099
 31
0.0
  0
LINE
  5
627
330
1F
100
AcDbEntity
  8
0
100
AcDbLine
 10
230.0981999500602
 20
380.6379832423319
 30
0.0
 11
234.8981959151612
 21
380.6379832423317
 31
0.0
  0
LINE
  5
628
330
1F
100
AcDbEntity
  8
0
100
AcDbLine
 10
229.580561859855
 20
380.5698348949099
 30
0.0
 11
230.0981999500602
 21
380.6379832423319
 31
0.0
  0
LINE
  5
629
330
1F
100
AcDbEntity
  8
0
100
AcDbLine
 10
228.0981962248607
 20
14.62195676590238
 30
0.0
 11
228.0981962248607
 21
18.97195465710376
 31
0.0
  0
LINE
  5
62A
330
1F
100
AcDbEntity
  8
0
100
AcDbLine
 10
228.0981962248607
 20
14.62195676590238
 30
0.0
 11
228.1663445722827
 21
14.10431867569736
 31
0.0
  0
LINE
  5
62B
330
1F
100
AcDbEntity
  8
0
100
AcDbLine
 10
228.1663445722827
 20
14.10431867569736
 30
0.0
 11
228.3661454172918
 21
13.62195676590238
 31
0.0
  0
LINE
  5
62C
330
1F
100
AcDbEntity
  8
0
100
AcDbLine
 10
228.3661454172918
 20
13.62195676590238
 30
0.0
 11
228.6839826624876
 21
13.20774320352933
 31
0.0
  0
LINE
  5
62D
330
1F
100
AcDbEntity
  8
0
100
AcDbLine
 10
228.6839826624876
 20
13.20774320352933
 30
0.0
 11
229.0981962248607
 21
12.88990595833366
 31
0.0
  0
LINE
  5
62E
330
1F
100
AcDbEntity
  8
0
100
AcDbLine
 10
229.0981962248607
 20
12.88990595833366
 30
0.0
 11
229.5805581346558
 21
12.69010511332431
 31
0.0
  0
LINE
  5
62F
330
1F
100
AcDbEntity
  8
0
100
AcDbLine
 10
229.5805581346558
 20
12.69010511332431
 30
0.0
 11
230.0981962248607
 21
12.62195676590238
 31
0.0
  0
LINE
  5
630
330
1F
100
AcDbEntity
  8
0
100
AcDbLine
 10
236.8981906670628
 20
14.62195676590261
 30
0.0
 11
236.8300423196409
 21
14.10431867569758
 31
0.0
  0
LINE
  5
631
330
1F
100
AcDbEntity
  8
0
100
AcDbLine
 10
236.8300423196409
 20
14.10431867569758
 30
0.0
 11
236.6302414746316
 21
13.62195676590261
 31
0.0
  0
LINE
  5
632
330
1F
100
AcDbEntity
  8
0
100
AcDbLine
 10
236.6302414746316
 20
13.62195676590261
 30
0.0
 11
236.3124042294359
 21
13.20774320352962
 31
0.0
  0
LINE
  5
633
330
1F
100
AcDbEntity
  8
0
100
AcDbLine
 10
236.3124042294359
 20
13.20774320352962
 30
0.0
 11
235.8981906670628
 21
12.88990595833377
 31
0.0
  0
LINE
  5
634
330
1F
100
AcDbEntity
  8
0
100
AcDbLine
 10
235.8981906670628
 20
12.88990595833377
 30
0.0
 11
235.4158287572679
 21
12.69010511332448
 31
0.0
  0
LINE
  5
635
330
1F
100
AcDbEntity
  8
0
100
AcDbLine
 10
234.8981906670628
 20
12.62195676590261
 30
0.0
 11
230.0981962248607
 21
12.62195676590238
 31
0.0
  0
LINE
  5
636
330
1F
100
AcDbEntity
  8
0
100
AcDbLine
 10
235.4158287572679
 20
12.69010511332448
 30
0.0
 11
234.8981906670628
 21
12.62195676590261
 31
0.0
  0
LINE
  5
637
330
1F
100
AcDbEntity
  8
0
100
AcDbLine
 10
340.7481587090196
 20
180.121903840163
 30
0.0
 11
336.3981608178185
 21
180.121903840163
 31
0.0
  0
LINE
  5
638
330
1F
100
AcDbEntity
  8
0
100
AcDbLine
 10
340.7481587090196
 20
180.121903840163
 30
0.0
 11
341.2657967992245
 21
180.190052187585
 31
0.0
  0
LINE
  5
639
330
1F
100
AcDbEntity
  8
0
100
AcDbLine
 10
341.2657967992245
 20
180.190052187585
 30
0.0
 11
341.7481587090196
 21
180.3898530325943
 31
0.0
  0
LINE
  5
63A
330
1F
100
AcDbEntity
  8
0
100
AcDbLine
 10
341.7481587090196
 20
180.3898530325943
 30
0.0
 11
342.1623722713927
 21
180.70769027779
 31
0.0
  0
LINE
  5
63B
330
1F
100
AcDbEntity
  8
0
100
AcDbLine
 10
342.1623722713927
 20
180.70769027779
 30
0.0
 11
342.4802095165884
 21
181.121903840163
 31
0.0
  0
LINE
  5
63C
330
1F
100
AcDbEntity
  8
0
100
AcDbLine
 10
342.4802095165884
 20
181.121903840163
 30
0.0
 11
342.6800103615976
 21
181.6042657499581
 31
0.0
  0
LINE
  5
63D
330
1F
100
AcDbEntity
  8
0
100
AcDbLine
 10
342.6800103615976
 20
181.6042657499581
 30
0.0
 11
342.7481587090195
 21
182.1219038401632
 31
0.0
  0
LINE
  5
63E
330
1F
100
AcDbEntity
  8
0
100
AcDbLine
 10
342.7481587090188
 20
99.47192627975944
 30
0.0
 11
342.6800103615969
 21
98.95428818955441
 31
0.0
  0
LINE
  5
63F
330
1F
100
AcDbEntity
  8
0
100
AcDbLine
 10
342.6800103615969
 20
98.95428818955441
 30
0.0
 11
342.4802095165877
 21
98.47192627975942
 31
0.0
  0
LINE
  5
640
330
1F
100
AcDbEntity
  8
0
100
AcDbLine
 10
342.4802095165877
 20
98.47192627975942
 30
0.0
 11
342.1623722713917
 21
98.05771271738628
 31
0.0
  0
LINE
  5
641
330
1F
100
AcDbEntity
  8
0
100
AcDbLine
 10
342.1623722713917
 20
98.05771271738628
 30
0.0
 11
341.7481587090187
 21
97.73987547219059
 31
0.0
  0
LINE
  5
642
330
1F
100
AcDbEntity
  8
0
100
AcDbLine
 10
341.7481587090187
 20
97.73987547219059
 30
0.0
 11
341.2657967992236
 21
97.5400746271813
 31
0.0
  0
LINE
  5
643
330
1F
100
AcDbEntity
  8
0
100
AcDbLine
 10
340.7481587090186
 20
97.47192627975948
 30
0.0
 11
336.3981608178185
 21
97.47192627975966
 31
0.0
  0
LINE
  5
644
330
1F
100
AcDbEntity
  8
0
100
AcDbLine
 10
341.2657967992236
 20
97.5400746271813
 30
0.0
 11
340.7481587090186
 21
97.47192627975948
 31
0.0
  0
LINE
  5
645
330
1F
100
AcDbEntity
  8
0
100
AcDbLine
 10
53.24825150259982
 20
99.47193152785809
 30
0.0
 11
53.24825150259961
 21
104.27192597006
 31
0.0
  0
LINE
  5
646
330
1F
100
AcDbEntity
  8
0
100
AcDbLine
 10
53.24825150259982
 20
99.47193152785809
 30
0.0
 11
53.31639985002173
 21
98.95429343765307
 31
0.0
  0
LINE
  5
647
330
1F
100
AcDbEntity
  8
0
100
AcDbLine
 10
53.31639985002173
 20
98.95429343765307
 30
0.0
 11
53.516200695031
 21
98.47193152785814
 31
0.0
  0
LINE
  5
648
330
1F
100
AcDbEntity
  8
0
100
AcDbLine
 10
53.516200695031
 20
98.47193152785814
 30
0.0
 11
53.83403794022671
 21
98.05771796548498
 31
0.0
  0
LINE
  5
649
330
1F
100
AcDbEntity
  8
0
100
AcDbLine
 10
53.83403794022671
 20
98.05771796548498
 30
0.0
 11
54.24825150259983
 21
97.73988072028931
 31
0.0
  0
LINE
  5
64A
330
1F
100
AcDbEntity
  8
0
100
AcDbLine
 10
54.24825150259983
 20
97.73988072028931
 30
0.0
 11
54.73061341239483
 21
97.54007987528007
 31
0.0
  0
LINE
  5
64B
330
1F
100
AcDbEntity
  8
0
100
AcDbLine
 10
54.73061341239483
 20
97.54007987528007
 30
0.0
 11
55.24825150259982
 21
97.47193152785817
 31
0.0
  0
LINE
  5
64C
330
1F
100
AcDbEntity
  8
0
100
AcDbLine
 10
55.24825150260001
 20
73.67194162935601
 30
0.0
 11
54.73061341239493
 21
73.74008997677781
 31
0.0
  0
LINE
  5
64D
330
1F
100
AcDbEntity
  8
0
100
AcDbLine
 10
54.73061341239493
 20
73.74008997677781
 30
0.0
 11
54.24825150259993
 21
73.93989082178713
 31
0.0
  0
LINE
  5
64E
330
1F
100
AcDbEntity
  8
0
100
AcDbLine
 10
54.24825150259993
 20
73.93989082178713
 30
0.0
 11
53.83403794022682
 21
74.2577280669829
 31
0.0
  0
LINE
  5
64F
330
1F
100
AcDbEntity
  8
0
100
AcDbLine
 10
53.83403794022682
 20
74.2577280669829
 30
0.0
 11
53.51620069503113
 21
74.67194162935602
 31
0.0
  0
LINE
  5
650
330
1F
100
AcDbEntity
  8
0
100
AcDbLine
 10
53.51620069503113
 20
74.67194162935602
 30
0.0
 11
53.31639985002181
 21
75.15430353915099
 31
0.0
  0
LINE
  5
651
330
1F
100
AcDbEntity
  8
0
100
AcDbLine
 10
53.24825150260001
 20
75.67194162935613
 30
0.0
 11
53.24825150260021
 21
80.47193759445695
 31
0.0
  0
LINE
  5
652
330
1F
100
AcDbEntity
  8
0
100
AcDbLine
 10
53.31639985002181
 20
75.15430353915099
 30
0.0
 11
53.24825150260001
 21
75.67194162935613
 31
0.0
  0
LINE
  5
653
330
1F
100
AcDbEntity
  8
0
100
AcDbLine
 10
55.24825150260031
 20
82.47193759445684
 30
0.0
 11
59.59824939380061
 21
82.4719375944567
 31
0.0
  0
LINE
  5
654
330
1F
100
AcDbEntity
  8
0
100
AcDbLine
 10
55.24825150260031
 20
82.47193759445684
 30
0.0
 11
54.73061341239532
 21
82.40378924703509
 31
0.0
  0
LINE
  5
655
330
1F
100
AcDbEntity
  8
0
100
AcDbLine
 10
54.73061341239532
 20
82.40378924703509
 30
0.0
 11
54.24825150260033
 21
82.2039884020258
 31
0.0
  0
LINE
  5
656
330
1F
100
AcDbEntity
  8
0
100
AcDbLine
 10
54.24825150260033
 20
82.2039884020258
 30
0.0
 11
53.83403794022722
 21
81.88615115683012
 31
0.0
  0
LINE
  5
657
330
1F
100
AcDbEntity
  8
0
100
AcDbLine
 10
53.83403794022722
 20
81.88615115683012
 30
0.0
 11
53.51620069503141
 21
81.47193759445697
 31
0.0
  0
LINE
  5
658
330
1F
100
AcDbEntity
  8
0
100
AcDbLine
 10
53.51620069503141
 20
81.47193759445697
 30
0.0
 11
53.31639985002212
 21
80.98957568466209
 31
0.0
  0
LINE
  5
659
330
1F
100
AcDbEntity
  8
0
100
AcDbLine
 10
53.31639985002212
 20
80.98957568466209
 30
0.0
 11
53.24825150260021
 21
80.47193759445695
 31
0.0
  0
LINE
  5
65A
330
1F
100
AcDbEntity
  8
0
100
AcDbLine
 10
53.24825150259997
 20
337.7879996618783
 30
0.0
 11
53.24825150259977
 21
342.5879941040802
 31
0.0
  0
LINE
  5
65B
330
1F
100
AcDbEntity
  8
0
100
AcDbLine
 10
53.24825150259997
 20
337.7879996618783
 30
0.0
 11
53.31639985002184
 21
337.2703615716734
 31
0.0
  0
LINE
  5
65C
330
1F
100
AcDbEntity
  8
0
100
AcDbLine
 10
53.31639985002184
 20
337.2703615716734
 30
0.0
 11
53.51620069503116
 21
336.7879996618784
 31
0.0
  0
LINE
  5
65D
330
1F
100
AcDbEntity
  8
0
100
AcDbLine
 10
53.51620069503116
 20
336.7879996618784
 30
0.0
 11
53.83403794022685
 21
336.3737860995053
 31
0.0
  0
LINE
  5
65E
330
1F
100
AcDbEntity
  8
0
100
AcDbLine
 10
53.83403794022685
 20
336.3737860995053
 30
0.0
 11
54.24825150259995
 21
336.0559488543095
 31
0.0
  0
LINE
  5
65F
330
1F
100
AcDbEntity
  8
0
100
AcDbLine
 10
54.24825150259995
 20
336.0559488543095
 30
0.0
 11
54.73061341239496
 21
335.8561480093002
 31
0.0
  0
LINE
  5
660
330
1F
100
AcDbEntity
  8
0
100
AcDbLine
 10
54.73061341239496
 20
335.8561480093002
 30
0.0
 11
55.24825150259996
 21
335.7879996618784
 31
0.0
  0
LINE
  5
661
330
1F
100
AcDbEntity
  8
0
100
AcDbLine
 10
342.7481587090194
 20
75.67193790415648
 30
0.0
 11
342.6800103615976
 21
75.15429981395134
 31
0.0
  0
LINE
  5
662
330
1F
100
AcDbEntity
  8
0
100
AcDbLine
 10
342.6800103615976
 20
75.15429981395134
 30
0.0
 11
342.4802095165883
 21
74.67193790415638
 31
0.0
  0
LINE
  5
663
330
1F
100
AcDbEntity
  8
0
100
AcDbLine
 10
342.4802095165883
 20
74.67193790415638
 30
0.0
 11
342.1623722713927
 21
74.25772434178326
 31
0.0
  0
LINE
  5
664
330
1F
100
AcDbEntity
  8
0
100
AcDbLine
 10
342.1623722713927
 20
74.25772434178326
 30
0.0
 11
341.7481587090194
 21
73.93988709658748
 31
0.0
  0
LINE
  5
665
330
1F
100
AcDbEntity
  8
0
100
AcDbLine
 10
341.7481587090194
 20
73.93988709658748
 30
0.0
 11
341.2657967992243
 21
73.74008625157819
 31
0.0
  0
LINE
  5
666
330
1F
100
AcDbEntity
  8
0
100
AcDbLine
 10
340.7481587090193
 20
73.67193790415638
 30
0.0
 11
336.3981608178182
 21
73.67193790415647
 31
0.0
  0
LINE
  5
667
330
1F
100
AcDbEntity
  8
0
100
AcDbLine
 10
341.2657967992243
 20
73.74008625157819
 30
0.0
 11
340.7481587090193
 21
73.67193790415638
 31
0.0
  0
LINE
  5
668
330
1F
100
AcDbEntity
  8
0
100
AcDbLine
 10
142.098220363057
 20
12.62195676590261
 30
0.0
 11
137.298225920855
 21
12.6219567659025
 31
0.0
  0
LINE
  5
669
330
1F
100
AcDbEntity
  8
0
100
AcDbLine
 10
142.098220363057
 20
12.62195676590261
 30
0.0
 11
142.615858453262
 21
12.69010511332448
 31
0.0
  0
LINE
  5
66A
330
1F
100
AcDbEntity
  8
0
100
AcDbLine
 10
142.615858453262
 20
12.69010511332448
 30
0.0
 11
143.0982203630569
 21
12.88990595833377
 31
0.0
  0
LINE
  5
66B
330
1F
100
AcDbEntity
  8
0
100
AcDbLine
 10
143.0982203630569
 20
12.88990595833377
 30
0.0
 11
143.51243392543
 21
13.2077432035295
 31
0.0
  0
LINE
  5
66C
330
1F
100
AcDbEntity
  8
0
100
AcDbLine
 10
143.51243392543
 20
13.2077432035295
 30
0.0
 11
143.8302711706258
 21
13.62195676590261
 31
0.0
  0
LINE
  5
66D
330
1F
100
AcDbEntity
  8
0
100
AcDbLine
 10
143.8302711706258
 20
13.62195676590261
 30
0.0
 11
144.0300720156351
 21
14.10431867569753
 31
0.0
  0
LINE
  5
66E
330
1F
100
AcDbEntity
  8
0
100
AcDbLine
 10
144.0300720156351
 20
14.10431867569753
 30
0.0
 11
144.0982203630569
 21
14.62195676590261
 31
0.0
  0
LINE
  5
66F
330
1F
100
AcDbEntity
  8
0
100
AcDbLine
 10
135.2982259208549
 20
14.62195676590261
 30
0.0
 11
135.2982259208551
 21
18.97195465710376
 31
0.0
  0
LINE
  5
670
330
1F
100
AcDbEntity
  8
0
100
AcDbLine
 10
135.2982259208549
 20
14.62195676590261
 30
0.0
 11
135.3663742682767
 21
14.10431867569753
 31
0.0
  0
LINE
  5
671
330
1F
100
AcDbEntity
  8
0
100
AcDbLine
 10
135.3663742682767
 20
14.10431867569753
 30
0.0
 11
135.566175113286
 21
13.62195676590261
 31
0.0
  0
LINE
  5
672
330
1F
100
AcDbEntity
  8
0
100
AcDbLine
 10
135.566175113286
 20
13.62195676590261
 30
0.0
 11
135.8840123584817
 21
13.20774320352939
 31
0.0
  0
LINE
  5
673
330
1F
100
AcDbEntity
  8
0
100
AcDbLine
 10
135.8840123584817
 20
13.20774320352939
 30
0.0
 11
136.2982259208549
 21
12.88990595833366
 31
0.0
  0
LINE
  5
674
330
1F
100
AcDbEntity
  8
0
100
AcDbLine
 10
136.2982259208549
 20
12.88990595833366
 30
0.0
 11
136.7805878306499
 21
12.69010511332431
 31
0.0
  0
LINE
  5
675
330
1F
100
AcDbEntity
  8
0
100
AcDbLine
 10
136.7805878306499
 20
12.69010511332431
 30
0.0
 11
137.298225920855
 21
12.6219567659025
 31
0.0
  0
LINE
  5
676
330
1F
100
AcDbEntity
  8
0
100
AcDbLine
 10
55.2482515025996
 20
106.27192597006
 30
0.0
 11
59.59824939380083
 21
106.27192597006
 31
0.0
  0
LINE
  5
677
330
1F
100
AcDbEntity
  8
0
100
AcDbLine
 10
55.2482515025996
 20
106.27192597006
 30
0.0
 11
54.73061341239453
 21
106.2037776226381
 31
0.0
  0
LINE
  5
678
330
1F
100
AcDbEntity
  8
0
100
AcDbLine
 10
54.73061341239453
 20
106.2037776226381
 30
0.0
 11
54.24825150259962
 21
106.0039767776289
 31
0.0
  0
LINE
  5
679
330
1F
100
AcDbEntity
  8
0
100
AcDbLine
 10
54.24825150259962
 20
106.0039767776289
 30
0.0
 11
53.83403794022642
 21
105.6861395324331
 31
0.0
  0
LINE
  5
67A
330
1F
100
AcDbEntity
  8
0
100
AcDbLine
 10
53.83403794022642
 20
105.6861395324331
 30
0.0
 11
53.51620069503072
 21
105.27192597006
 31
0.0
  0
LINE
  5
67B
330
1F
100
AcDbEntity
  8
0
100
AcDbLine
 10
53.51620069503072
 20
105.27192597006
 30
0.0
 11
53.31639985002141
 21
104.789564060265
 31
0.0
  0
LINE
  5
67C
330
1F
100
AcDbEntity
  8
0
100
AcDbLine
 10
53.31639985002141
 20
104.789564060265
 30
0.0
 11
53.24825150259961
 21
104.27192597006
 31
0.0
  0
LINE
  5
67D
330
1F
100
AcDbEntity
  8
0
100
AcDbLine
 10
340.7481587090187
 20
335.7879944137799
 30
0.0
 11
336.3981608178184
 21
335.78799441378
 31
0.0
  0
LINE
  5
67E
330
1F
100
AcDbEntity
  8
0
100
AcDbLine
 10
340.7481587090187
 20
335.7879944137799
 30
0.0
 11
341.2657967992239
 21
335.8561427612017
 31
0.0
  0
LINE
  5
67F
330
1F
100
AcDbEntity
  8
0
100
AcDbLine
 10
341.2657967992239
 20
335.8561427612017
 30
0.0
 11
341.7481587090187
 21
336.055943606211
 31
0.0
  0
LINE
  5
680
330
1F
100
AcDbEntity
  8
0
100
AcDbLine
 10
341.7481587090187
 20
336.055943606211
 30
0.0
 11
342.1623722713918
 21
336.3737808514067
 31
0.0
  0
LINE
  5
681
330
1F
100
AcDbEntity
  8
0
100
AcDbLine
 10
342.1623722713918
 20
336.3737808514067
 30
0.0
 11
342.4802095165877
 21
336.7879944137798
 31
0.0
  0
LINE
  5
682
330
1F
100
AcDbEntity
  8
0
100
AcDbLine
 10
342.4802095165877
 20
336.7879944137798
 30
0.0
 11
342.680010361597
 21
337.2703563235747
 31
0.0
  0
LINE
  5
683
330
1F
100
AcDbEntity
  8
0
100
AcDbLine
 10
342.680010361597
 20
337.2703563235747
 30
0.0
 11
342.7481587090187
 21
337.7879944137798
 31
0.0
  0
LINE
  5
684
330
1F
100
AcDbEntity
  8
0
100
AcDbLine
 10
342.7481587090192
 20
318.7880004803786
 30
0.0
 11
342.7481587090195
 21
313.9880060381766
 31
0.0
  0
LINE
  5
685
330
1F
100
AcDbEntity
  8
0
100
AcDbLine
 10
342.7481587090192
 20
318.7880004803786
 30
0.0
 11
342.6800103615974
 21
319.3056385705836
 31
0.0
  0
LINE
  5
686
330
1F
100
AcDbEntity
  8
0
100
AcDbLine
 10
342.6800103615974
 20
319.3056385705836
 30
0.0
 11
342.4802095165881
 21
319.7880004803785
 31
0.0
  0
LINE
  5
687
330
1F
100
AcDbEntity
  8
0
100
AcDbLine
 10
342.4802095165881
 20
319.7880004803785
 30
0.0
 11
342.1623722713924
 21
320.2022140427516
 31
0.0
  0
LINE
  5
688
330
1F
100
AcDbEntity
  8
0
100
AcDbLine
 10
342.1623722713924
 20
320.2022140427516
 30
0.0
 11
341.7481587090192
 21
320.5200512879474
 31
0.0
  0
LINE
  5
689
330
1F
100
AcDbEntity
  8
0
100
AcDbLine
 10
341.7481587090192
 20
320.5200512879474
 30
0.0
 11
341.2657967992242
 21
320.7198521329567
 31
0.0
  0
LINE
  5
68A
330
1F
100
AcDbEntity
  8
0
100
AcDbLine
 10
341.2657967992242
 20
320.7198521329567
 30
0.0
 11
340.7481587090193
 21
320.7880004803785
 31
0.0
  0
LINE
  5
68B
330
1F
100
AcDbEntity
  8
0
100
AcDbLine
 10
340.7481587090194
 20
311.9880060381766
 30
0.0
 11
336.3981608178184
 21
311.9880060381766
 31
0.0
  0
LINE
  5
68C
330
1F
100
AcDbEntity
  8
0
100
AcDbLine
 10
340.7481587090194
 20
311.9880060381766
 30
0.0
 11
341.2657967992245
 21
312.0561543855984
 31
0.0
  0
LINE
  5
68D
330
1F
100
AcDbEntity
  8
0
100
AcDbLine
 10
341.2657967992245
 20
312.0561543855984
 30
0.0
 11
341.7481587090195
 21
312.2559552306077
 31
0.0
  0
LINE
  5
68E
330
1F
100
AcDbEntity
  8
0
100
AcDbLine
 10
341.7481587090195
 20
312.2559552306077
 30
0.0
 11
342.1623722713925
 21
312.5737924758035
 31
0.0
  0
LINE
  5
68F
330
1F
100
AcDbEntity
  8
0
100
AcDbLine
 10
342.1623722713925
 20
312.5737924758035
 30
0.0
 11
342.4802095165883
 21
312.9880060381766
 31
0.0
  0
LINE
  5
690
330
1F
100
AcDbEntity
  8
0
100
AcDbLine
 10
342.4802095165883
 20
312.9880060381766
 30
0.0
 11
342.6800103615975
 21
313.4703679479716
 31
0.0
  0
LINE
  5
691
330
1F
100
AcDbEntity
  8
0
100
AcDbLine
 10
342.6800103615975
 20
313.4703679479716
 30
0.0
 11
342.7481587090195
 21
313.9880060381766
 31
0.0
  0
LINE
  5
692
330
1F
100
AcDbEntity
  8
0
100
AcDbLine
 10
165.8982102615591
 20
12.62195676590312
 30
0.0
 11
161.098214296458
 21
12.62195676590312
 31
0.0
  0
LINE
  5
693
330
1F
100
AcDbEntity
  8
0
100
AcDbLine
 10
165.8982102615591
 20
12.62195676590312
 30
0.0
 11
166.4158483517641
 21
12.69010511332487
 31
0.0
  0
LINE
  5
694
330
1F
100
AcDbEntity
  8
0
100
AcDbLine
 10
166.4158483517641
 20
12.69010511332487
 30
0.0
 11
166.8982102615591
 21
12.88990595833417
 31
0.0
  0
LINE
  5
695
330
1F
100
AcDbEntity
  8
0
100
AcDbLine
 10
166.8982102615591
 20
12.88990595833417
 30
0.0
 11
167.3124238239321
 21
13.20774320353001
 31
0.0
  0
LINE
  5
696
330
1F
100
AcDbEntity
  8
0
100
AcDbLine
 10
167.3124238239321
 20
13.20774320353001
 30
0.0
 11
167.6302610691279
 21
13.62195676590301
 31
0.0
  0
LINE
  5
697
330
1F
100
AcDbEntity
  8
0
100
AcDbLine
 10
167.6302610691279
 20
13.62195676590301
 30
0.0
 11
167.8300619141372
 21
14.10431867569798
 31
0.0
  0
LINE
  5
698
330
1F
100
AcDbEntity
  8
0
100
AcDbLine
 10
167.8300619141372
 20
14.10431867569798
 30
0.0
 11
167.8982102615591
 21
14.62195676590301
 31
0.0
  0
LINE
  5
699
330
1F
100
AcDbEntity
  8
0
100
AcDbLine
 10
53.24825150260001
 20
205.9218974638648
 30
0.0
 11
53.24825150259982
 21
210.7218919060668
 31
0.0
  0
LINE
  5
69A
330
1F
100
AcDbEntity
  8
0
100
AcDbLine
 10
53.24825150260001
 20
205.9218974638648
 30
0.0
 11
53.3163998500219
 21
205.4042593736598
 31
0.0
  0
LINE
  5
69B
330
1F
100
AcDbEntity
  8
0
100
AcDbLine
 10
53.3163998500219
 20
205.4042593736598
 30
0.0
 11
53.51620069503113
 21
204.9218974638649
 31
0.0
  0
LINE
  5
69C
330
1F
100
AcDbEntity
  8
0
100
AcDbLine
 10
53.51620069503113
 20
204.9218974638649
 30
0.0
 11
53.8340379402269
 21
204.5076839014918
 31
0.0
  0
LINE
  5
69D
330
1F
100
AcDbEntity
  8
0
100
AcDbLine
 10
53.8340379402269
 20
204.5076839014918
 30
0.0
 11
54.24825150260002
 21
204.1898466562961
 31
0.0
  0
LINE
  5
69E
330
1F
100
AcDbEntity
  8
0
100
AcDbLine
 10
54.24825150260002
 20
204.1898466562961
 30
0.0
 11
54.73061341239493
 21
203.9900458112868
 31
0.0
  0
LINE
  5
69F
330
1F
100
AcDbEntity
  8
0
100
AcDbLine
 10
54.73061341239493
 20
203.9900458112868
 30
0.0
 11
55.24825150259992
 21
203.9218974638649
 31
0.0
  0
LINE
  5
6A0
330
1F
100
AcDbEntity
  8
0
100
AcDbLine
 10
159.098214296458
 20
14.62195676590312
 30
0.0
 11
159.0982142964582
 21
18.97195465710376
 31
0.0
  0
LINE
  5
6A1
330
1F
100
AcDbEntity
  8
0
100
AcDbLine
 10
159.098214296458
 20
14.62195676590312
 30
0.0
 11
159.1663626438799
 21
14.10431867569815
 31
0.0
  0
LINE
  5
6A2
330
1F
100
AcDbEntity
  8
0
100
AcDbLine
 10
159.1663626438799
 20
14.10431867569815
 30
0.0
 11
159.3661634888891
 21
13.62195676590312
 31
0.0
  0
LINE
  5
6A3
330
1F
100
AcDbEntity
  8
0
100
AcDbLine
 10
159.3661634888891
 20
13.62195676590312
 30
0.0
 11
159.684000734085
 21
13.20774320353001
 31
0.0
  0
LINE
  5
6A4
330
1F
100
AcDbEntity
  8
0
100
AcDbLine
 10
159.684000734085
 20
13.20774320353001
 30
0.0
 11
160.098214296458
 21
12.88990595833417
 31
0.0
  0
LINE
  5
6A5
330
1F
100
AcDbEntity
  8
0
100
AcDbLine
 10
160.098214296458
 20
12.88990595833417
 30
0.0
 11
160.580576206253
 21
12.69010511332487
 31
0.0
  0
LINE
  5
6A6
330
1F
100
AcDbEntity
  8
0
100
AcDbLine
 10
160.580576206253
 20
12.69010511332487
 30
0.0
 11
161.098214296458
 21
12.62195676590312
 31
0.0
  0
LINE
  5
6A7
330
1F
100
AcDbEntity
  8
0
100
AcDbLine
 10
55.24825150259992
 20
212.7218919060669
 30
0.0
 11
59.59824939380101
 21
212.7218919060666
 31
0.0
  0
LINE
  5
6A8
330
1F
100
AcDbEntity
  8
0
100
AcDbLine
 10
55.24825150259992
 20
212.7218919060669
 30
0.0
 11
54.73061341239483
 21
212.653743558645
 31
0.0
  0
LINE
  5
6A9
330
1F
100
AcDbEntity
  8
0
100
AcDbLine
 10
54.73061341239483
 20
212.653743558645
 30
0.0
 11
54.24825150259983
 21
212.4539427136358
 31
0.0
  0
LINE
  5
6AA
330
1F
100
AcDbEntity
  8
0
100
AcDbLine
 10
54.24825150259983
 20
212.4539427136358
 30
0.0
 11
53.83403794022671
 21
212.13610546844
 31
0.0
  0
LINE
  5
6AB
330
1F
100
AcDbEntity
  8
0
100
AcDbLine
 10
53.83403794022671
 20
212.13610546844
 30
0.0
 11
53.51620069503091
 21
211.7218919060669
 31
0.0
  0
LINE
  5
6AC
330
1F
100
AcDbEntity
  8
0
100
AcDbLine
 10
53.51620069503091
 20
211.7218919060669
 30
0.0
 11
53.31639985002162
 21
211.2395299962719
 31
0.0
  0
LINE
  5
6AD
330
1F
100
AcDbEntity
  8
0
100
AcDbLine
 10
53.31639985002162
 20
211.2395299962719
 30
0.0
 11
53.24825150259982
 21
210.7218919060668
 31
0.0
  0
LINE
  5
6AE
330
1F
100
AcDbEntity
  8
0
100
AcDbLine
 10
55.24825150259987
 20
344.5879941040804
 30
0.0
 11
59.59824939380095
 21
344.5879941040801
 31
0.0
  0
LINE
  5
6AF
330
1F
100
AcDbEntity
  8
0
100
AcDbLine
 10
55.24825150259987
 20
344.5879941040804
 30
0.0
 11
54.73061341239485
 21
344.5198457566584
 31
0.0
  0
LINE
  5
6B0
330
1F
100
AcDbEntity
  8
0
100
AcDbLine
 10
54.73061341239485
 20
344.5198457566584
 30
0.0
 11
54.24825150259987
 21
344.3200449116492
 31
0.0
  0
LINE
  5
6B1
330
1F
100
AcDbEntity
  8
0
100
AcDbLine
 10
54.24825150259987
 20
344.3200449116492
 30
0.0
 11
53.83403794022676
 21
344.0022076664534
 31
0.0
  0
LINE
  5
6B2
330
1F
100
AcDbEntity
  8
0
100
AcDbLine
 10
53.83403794022676
 20
344.0022076664534
 30
0.0
 11
53.51620069503095
 21
343.5879941040803
 31
0.0
  0
LINE
  5
6B3
330
1F
100
AcDbEntity
  8
0
100
AcDbLine
 10
53.51620069503095
 20
343.5879941040803
 30
0.0
 11
53.31639985002166
 21
343.1056321942853
 31
0.0
  0
LINE
  5
6B4
330
1F
100
AcDbEntity
  8
0
100
AcDbLine
 10
53.31639985002166
 20
343.1056321942853
 30
0.0
 11
53.24825150259977
 21
342.5879941040802
 31
0.0
  0
LINE
  5
6B5
330
1F
100
AcDbEntity
  8
0
100
AcDbLine
 10
55.24825150260056
 20
320.788005728477
 30
0.0
 11
59.59824939380077
 21
320.7880057284768
 31
0.0
  0
LINE
  5
6B6
330
1F
100
AcDbEntity
  8
0
100
AcDbLine
 10
55.24825150260056
 20
320.788005728477
 30
0.0
 11
54.73061341239546
 21
320.7198573810552
 31
0.0
  0
LINE
  5
6B7
330
1F
100
AcDbEntity
  8
0
100
AcDbLine
 10
54.73061341239546
 20
320.7198573810552
 30
0.0
 11
54.24825150260045
 21
320.520056536046
 31
0.0
  0
LINE
  5
6B8
330
1F
100
AcDbEntity
  8
0
100
AcDbLine
 10
54.24825150260045
 20
320.520056536046
 30
0.0
 11
53.83403794022736
 21
320.2022192908501
 31
0.0
  0
LINE
  5
6B9
330
1F
100
AcDbEntity
  8
0
100
AcDbLine
 10
53.83403794022736
 20
320.2022192908501
 30
0.0
 11
53.51620069503155
 21
319.7880057284772
 31
0.0
  0
LINE
  5
6BA
330
1F
100
AcDbEntity
  8
0
100
AcDbLine
 10
53.51620069503155
 20
319.7880057284772
 30
0.0
 11
53.31639985002228
 21
319.3056438186822
 31
0.0
  0
LINE
  5
6BB
330
1F
100
AcDbEntity
  8
0
100
AcDbLine
 10
53.31639985002228
 20
319.3056438186822
 30
0.0
 11
53.24825150260036
 21
318.7880057284772
 31
0.0
  0
LINE
  5
6BC
330
1F
100
AcDbEntity
  8
0
100
AcDbLine
 10
340.7481587090192
 20
344.5879903788807
 30
0.0
 11
341.2657967992242
 21
344.5198420314589
 31
0.0
  0
LINE
  5
6BD
330
1F
100
AcDbEntity
  8
0
100
AcDbLine
 10
341.2657967992242
 20
344.5198420314589
 30
0.0
 11
341.7481587090192
 21
344.3200411864497
 31
0.0
  0
LINE
  5
6BE
330
1F
100
AcDbEntity
  8
0
100
AcDbLine
 10
341.7481587090192
 20
344.3200411864497
 30
0.0
 11
342.1623722713922
 21
344.0022039412538
 31
0.0
  0
LINE
  5
6BF
330
1F
100
AcDbEntity
  8
0
100
AcDbLine
 10
342.1623722713922
 20
344.0022039412538
 30
0.0
 11
342.480209516588
 21
343.5879903788806
 31
0.0
  0
LINE
  5
6C0
330
1F
100
AcDbEntity
  8
0
100
AcDbLine
 10
342.480209516588
 20
343.5879903788806
 30
0.0
 11
342.6800103615972
 21
343.1056284690857
 31
0.0
  0
LINE
  5
6C1
330
1F
100
AcDbEntity
  8
0
100
AcDbLine
 10
342.7481587090192
 20
342.5879903788807
 30
0.0
 11
342.7481587090187
 21
337.7879944137798
 31
0.0
  0
LINE
  5
6C2
330
1F
100
AcDbEntity
  8
0
100
AcDbLine
 10
342.6800103615972
 20
343.1056284690857
 30
0.0
 11
342.7481587090192
 21
342.5879903788807
 31
0.0
  0
LINE
  5
6C3
330
1F
100
AcDbEntity
  8
0
100
AcDbLine
 10
253.8981846004638
 20
12.62195676590301
 30
0.0
 11
253.3805465102588
 21
12.69010511332487
 31
0.0
  0
LINE
  5
6C4
330
1F
100
AcDbEntity
  8
0
100
AcDbLine
 10
253.3805465102588
 20
12.69010511332487
 30
0.0
 11
252.898184600464
 21
12.88990595833411
 31
0.0
  0
LINE
  5
6C5
330
1F
100
AcDbEntity
  8
0
100
AcDbLine
 10
252.898184600464
 20
12.88990595833411
 30
0.0
 11
252.4839710380908
 21
13.20774320352984
 31
0.0
  0
LINE
  5
6C6
330
1F
100
AcDbEntity
  8
0
100
AcDbLine
 10
252.4839710380908
 20
13.20774320352984
 30
0.0
 11
252.166133792895
 21
13.62195676590301
 31
0.0
  0
LINE
  5
6C7
330
1F
100
AcDbEntity
  8
0
100
AcDbLine
 10
252.166133792895
 20
13.62195676590301
 30
0.0
 11
251.9663329478857
 21
14.10431867569798
 31
0.0
  0
LINE
  5
6C8
330
1F
100
AcDbEntity
  8
0
100
AcDbLine
 10
251.8981846004639
 20
14.62195676590301
 30
0.0
 11
251.8981846004639
 21
18.97195465710371
 31
0.0
  0
LINE
  5
6C9
330
1F
100
AcDbEntity
  8
0
100
AcDbLine
 10
251.9663329478857
 20
14.10431867569798
 30
0.0
 11
251.8981846004639
 21
14.62195676590301
 31
0.0
  0
LINE
  5
6CA
330
1F
100
AcDbEntity
  8
0
100
AcDbLine
 10
342.7481587090192
 20
80.47193234635818
 30
0.0
 11
342.7481587090194
 21
75.67193790415648
 31
0.0
  0
LINE
  5
6CB
330
1F
100
AcDbEntity
  8
0
100
AcDbLine
 10
342.7481587090192
 20
80.47193234635818
 30
0.0
 11
342.6800103615974
 21
80.98957043656321
 31
0.0
  0
LINE
  5
6CC
330
1F
100
AcDbEntity
  8
0
100
AcDbLine
 10
342.6800103615974
 20
80.98957043656321
 30
0.0
 11
342.4802095165881
 21
81.47193234635812
 31
0.0
  0
LINE
  5
6CD
330
1F
100
AcDbEntity
  8
0
100
AcDbLine
 10
342.4802095165881
 20
81.47193234635812
 30
0.0
 11
342.1623722713923
 21
81.88614590873118
 31
0.0
  0
LINE
  5
6CE
330
1F
100
AcDbEntity
  8
0
100
AcDbLine
 10
342.1623722713923
 20
81.88614590873118
 30
0.0
 11
341.7481587090192
 21
82.20398315392703
 31
0.0
  0
LINE
  5
6CF
330
1F
100
AcDbEntity
  8
0
100
AcDbLine
 10
341.7481587090192
 20
82.20398315392703
 30
0.0
 11
341.2657967992243
 21
82.4037839989363
 31
0.0
  0
LINE
  5
6D0
330
1F
100
AcDbEntity
  8
0
100
AcDbLine
 10
341.2657967992243
 20
82.4037839989363
 30
0.0
 11
340.7481587090193
 21
82.47193234635814
 31
0.0
  0
LINE
  5
6D1
330
1F
100
AcDbEntity
  8
0
100
AcDbLine
 10
340.7481587090192
 20
106.2719222448605
 30
0.0
 11
341.2657967992241
 21
106.2037738974385
 31
0.0
  0
LINE
  5
6D2
330
1F
100
AcDbEntity
  8
0
100
AcDbLine
 10
341.2657967992241
 20
106.2037738974385
 30
0.0
 11
341.7481587090192
 21
106.0039730524293
 31
0.0
  0
LINE
  5
6D3
330
1F
100
AcDbEntity
  8
0
100
AcDbLine
 10
341.7481587090192
 20
106.0039730524293
 30
0.0
 11
342.1623722713921
 21
105.6861358072335
 31
0.0
  0
LINE
  5
6D4
330
1F
100
AcDbEntity
  8
0
100
AcDbLine
 10
342.1623722713921
 20
105.6861358072335
 30
0.0
 11
342.4802095165879
 21
105.2719222448603
 31
0.0
  0
LINE
  5
6D5
330
1F
100
AcDbEntity
  8
0
100
AcDbLine
 10
342.4802095165879
 20
105.2719222448603
 30
0.0
 11
342.6800103615974
 21
104.7895603350654
 31
0.0
  0
LINE
  5
6D6
330
1F
100
AcDbEntity
  8
0
100
AcDbLine
 10
342.748158709019
 20
104.2719222448603
 30
0.0
 11
342.7481587090188
 21
99.47192627975944
 31
0.0
  0
LINE
  5
6D7
330
1F
100
AcDbEntity
  8
0
100
AcDbLine
 10
342.6800103615974
 20
104.7895603350654
 30
0.0
 11
342.748158709019
 21
104.2719222448603
 31
0.0
  0
LINE
  5
6D8
330
1F
100
AcDbEntity
  8
0
100
AcDbLine
 10
342.7481587090188
 20
205.9218922157664
 30
0.0
 11
342.6800103615969
 21
205.4042541255613
 31
0.0
  0
LINE
  5
6D9
330
1F
100
AcDbEntity
  8
0
100
AcDbLine
 10
342.6800103615969
 20
205.4042541255613
 30
0.0
 11
342.4802095165877
 21
204.9218922157664
 31
0.0
  0
LINE
  5
6DA
330
1F
100
AcDbEntity
  8
0
100
AcDbLine
 10
342.4802095165877
 20
204.9218922157664
 30
0.0
 11
342.1623722713917
 21
204.5076786533933
 31
0.0
  0
LINE
  5
6DB
330
1F
100
AcDbEntity
  8
0
100
AcDbLine
 10
342.1623722713917
 20
204.5076786533933
 30
0.0
 11
341.7481587090187
 21
204.1898414081975
 31
0.0
  0
LINE
  5
6DC
330
1F
100
AcDbEntity
  8
0
100
AcDbLine
 10
341.7481587090187
 20
204.1898414081975
 30
0.0
 11
341.2657967992239
 21
203.9900405631883
 31
0.0
  0
LINE
  5
6DD
330
1F
100
AcDbEntity
  8
0
100
AcDbLine
 10
340.7481587090186
 20
203.9218922157665
 30
0.0
 11
336.3981608178185
 21
203.9218922157666
 31
0.0
  0
LINE
  5
6DE
330
1F
100
AcDbEntity
  8
0
100
AcDbLine
 10
341.2657967992239
 20
203.9900405631883
 30
0.0
 11
340.7481587090186
 21
203.9218922157665
 31
0.0
  0
LINE
  5
6DF
330
1F
100
AcDbEntity
  8
0
100
AcDbLine
 10
340.7481587090193
 20
188.9218982823651
 30
0.0
 11
341.2657967992243
 21
188.8537499349431
 31
0.0
  0
LINE
  5
6E0
330
1F
100
AcDbEntity
  8
0
100
AcDbLine
 10
341.2657967992243
 20
188.8537499349431
 30
0.0
 11
341.7481587090192
 21
188.653949089934
 31
0.0
  0
LINE
  5
6E1
330
1F
100
AcDbEntity
  8
0
100
AcDbLine
 10
341.7481587090192
 20
188.653949089934
 30
0.0
 11
342.1623722713925
 21
188.336111844738
 31
0.0
  0
LINE
  5
6E2
330
1F
100
AcDbEntity
  8
0
100
AcDbLine
 10
342.1623722713925
 20
188.336111844738
 30
0.0
 11
342.4802095165881
 21
187.921898282365
 31
0.0
  0
LINE
  5
6E3
330
1F
100
AcDbEntity
  8
0
100
AcDbLine
 10
342.4802095165881
 20
187.921898282365
 30
0.0
 11
342.6800103615974
 21
187.43953637257
 31
0.0
  0
LINE
  5
6E4
330
1F
100
AcDbEntity
  8
0
100
AcDbLine
 10
342.7481587090192
 20
186.9218982823652
 30
0.0
 11
342.7481587090195
 21
182.1219038401632
 31
0.0
  0
LINE
  5
6E5
330
1F
100
AcDbEntity
  8
0
100
AcDbLine
 10
342.6800103615974
 20
187.43953637257
 30
0.0
 11
342.7481587090192
 21
186.9218982823652
 31
0.0
  0
LINE
  5
6E6
330
1F
100
AcDbEntity
  8
0
100
AcDbLine
 10
55.2482515026004
 20
188.9219035304637
 30
0.0
 11
59.5982493938007
 21
188.9219035304634
 31
0.0
  0
LINE
  5
6E7
330
1F
100
AcDbEntity
  8
0
100
AcDbLine
 10
55.2482515026004
 20
188.9219035304637
 30
0.0
 11
54.73061341239541
 21
188.8537551830419
 31
0.0
  0
LINE
  5
6E8
330
1F
100
AcDbEntity
  8
0
100
AcDbLine
 10
54.73061341239541
 20
188.8537551830419
 30
0.0
 11
54.24825150260041
 21
188.6539543380326
 31
0.0
  0
LINE
  5
6E9
330
1F
100
AcDbEntity
  8
0
100
AcDbLine
 10
54.24825150260041
 20
188.6539543380326
 30
0.0
 11
53.83403794022733
 21
188.3361170928369
 31
0.0
  0
LINE
  5
6EA
330
1F
100
AcDbEntity
  8
0
100
AcDbLine
 10
53.83403794022733
 20
188.3361170928369
 30
0.0
 11
53.5162006950315
 21
187.9219035304636
 31
0.0
  0
LINE
  5
6EB
330
1F
100
AcDbEntity
  8
0
100
AcDbLine
 10
53.5162006950315
 20
187.9219035304636
 30
0.0
 11
53.31639985002222
 21
187.4395416206688
 31
0.0
  0
LINE
  5
6EC
330
1F
100
AcDbEntity
  8
0
100
AcDbLine
 10
53.31639985002222
 20
187.4395416206688
 30
0.0
 11
53.24825150260032
 21
186.9219035304636
 31
0.0
  0
LINE
  5
6ED
330
1F
100
AcDbEntity
  8
0
100
AcDbLine
 10
258.6981805655646
 20
12.62195676590283
 30
0.0
 11
253.8981846004638
 21
12.62195676590301
 31
0.0
  0
LINE
  5
6EE
330
1F
100
AcDbEntity
  8
0
100
AcDbLine
 10
258.6981805655646
 20
12.62195676590283
 30
0.0
 11
259.2158186557697
 21
12.69010511332465
 31
0.0
  0
LINE
  5
6EF
330
1F
100
AcDbEntity
  8
0
100
AcDbLine
 10
259.2158186557697
 20
12.69010511332465
 30
0.0
 11
259.6981805655648
 21
12.88990595833377
 31
0.0
  0
LINE
  5
6F0
330
1F
100
AcDbEntity
  8
0
100
AcDbLine
 10
259.6981805655648
 20
12.88990595833377
 30
0.0
 11
260.1123941279378
 21
13.20774320352962
 31
0.0
  0
LINE
  5
6F1
330
1F
100
AcDbEntity
  8
0
100
AcDbLine
 10
260.1123941279378
 20
13.20774320352962
 30
0.0
 11
260.4302313731336
 21
13.62195676590266
 31
0.0
  0
LINE
  5
6F2
330
1F
100
AcDbEntity
  8
0
100
AcDbLine
 10
260.4302313731336
 20
13.62195676590266
 30
0.0
 11
260.6300322181428
 21
14.10431867569769
 31
0.0
  0
LINE
  5
6F3
330
1F
100
AcDbEntity
  8
0
100
AcDbLine
 10
260.6300322181428
 20
14.10431867569769
 30
0.0
 11
260.6981805655648
 21
14.62195676590267
 31
0.0
  0
LINE
  5
6F4
330
1F
100
AcDbEntity
  8
0
100
AcDbLine
 10
340.7481587090192
 20
212.7218881808673
 30
0.0
 11
341.2657967992241
 21
212.6537398334455
 31
0.0
  0
LINE
  5
6F5
330
1F
100
AcDbEntity
  8
0
100
AcDbLine
 10
341.2657967992241
 20
212.6537398334455
 30
0.0
 11
341.7481587090192
 21
212.4539389884362
 31
0.0
  0
LINE
  5
6F6
330
1F
100
AcDbEntity
  8
0
100
AcDbLine
 10
341.7481587090192
 20
212.4539389884362
 30
0.0
 11
342.1623722713921
 21
212.1361017432404
 31
0.0
  0
LINE
  5
6F7
330
1F
100
AcDbEntity
  8
0
100
AcDbLine
 10
342.1623722713921
 20
212.1361017432404
 30
0.0
 11
342.4802095165879
 21
211.7218881808673
 31
0.0
  0
LINE
  5
6F8
330
1F
100
AcDbEntity
  8
0
100
AcDbLine
 10
342.4802095165879
 20
211.7218881808673
 30
0.0
 11
342.6800103615974
 21
211.2395262710723
 31
0.0
  0
LINE
  5
6F9
330
1F
100
AcDbEntity
  8
0
100
AcDbLine
 10
342.748158709019
 20
210.7218881808672
 30
0.0
 11
342.7481587090188
 21
205.9218922157664
 31
0.0
  0
LINE
  5
6FA
330
1F
100
AcDbEntity
  8
0
100
AcDbLine
 10
342.6800103615974
 20
211.2395262710723
 30
0.0
 11
342.748158709019
 21
210.7218881808672
 31
0.0
  0
LINE
  5
6FB
330
1F
100
AcDbEntity
  8
0
100
AcDbLine
 10
53.24825150260021
 20
182.1219075653629
 30
0.0
 11
53.24825150260032
 21
186.9219035304636
 31
0.0
  0
LINE
  5
6FC
330
1F
100
AcDbEntity
  8
0
100
AcDbLine
 10
53.24825150260021
 20
182.1219075653629
 30
0.0
 11
53.31639985002201
 21
181.6042694751579
 31
0.0
  0
LINE
  5
6FD
330
1F
100
AcDbEntity
  8
0
100
AcDbLine
 10
53.31639985002201
 20
181.6042694751579
 30
0.0
 11
53.51620069503121
 21
181.1219075653629
 31
0.0
  0
LINE
  5
6FE
330
1F
100
AcDbEntity
  8
0
100
AcDbLine
 10
53.51620069503121
 20
181.1219075653629
 30
0.0
 11
53.83403794022701
 21
180.7076940029898
 31
0.0
  0
LINE
  5
6FF
330
1F
100
AcDbEntity
  8
0
100
AcDbLine
 10
53.83403794022701
 20
180.7076940029898
 30
0.0
 11
54.24825150260012
 21
180.389856757794
 31
0.0
  0
LINE
  5
700
330
1F
100
AcDbEntity
  8
0
100
AcDbLine
 10
54.24825150260012
 20
180.389856757794
 30
0.0
 11
54.73061341239501
 21
180.1900559127847
 31
0.0
  0
LINE
  5
701
330
1F
100
AcDbEntity
  8
0
100
AcDbLine
 10
54.73061341239501
 20
180.1900559127847
 30
0.0
 11
55.24825150260014
 21
180.1219075653629
 31
0.0
  0
LINE
  5
702
330
1F
100
AcDbEntity
  8
0
100
AcDbLine
 10
53.24825150260027
 20
313.9880097633763
 30
0.0
 11
53.24825150260036
 21
318.7880057284772
 31
0.0
  0
LINE
  5
703
330
1F
100
AcDbEntity
  8
0
100
AcDbLine
 10
53.24825150260027
 20
313.9880097633763
 30
0.0
 11
53.31639985002206
 21
313.4703716731712
 31
0.0
  0
LINE
  5
704
330
1F
100
AcDbEntity
  8
0
100
AcDbLine
 10
53.31639985002206
 20
313.4703716731712
 30
0.0
 11
53.51620069503136
 21
312.9880097633763
 31
0.0
  0
LINE
  5
705
330
1F
100
AcDbEntity
  8
0
100
AcDbLine
 10
53.51620069503136
 20
312.9880097633763
 30
0.0
 11
53.83403794022706
 21
312.5737962010032
 31
0.0
  0
LINE
  5
706
330
1F
100
AcDbEntity
  8
0
100
AcDbLine
 10
53.83403794022706
 20
312.5737962010032
 30
0.0
 11
54.24825150260016
 21
312.2559589558073
 31
0.0
  0
LINE
  5
707
330
1F
100
AcDbEntity
  8
0
100
AcDbLine
 10
54.24825150260016
 20
312.2559589558073
 30
0.0
 11
54.73061341239517
 21
312.0561581107981
 31
0.0
  0
LINE
  5
708
330
1F
100
AcDbEntity
  8
0
100
AcDbLine
 10
54.73061341239517
 20
312.0561581107981
 30
0.0
 11
55.24825150260014
 21
311.9880097633762
 31
0.0
  0
LINE
  5
709
330
1F
100
AcDbEntity
  8
0
100
AcDbLine
 10
59.59824939380095
 20
311.9880097633761
 30
0.0
 11
55.24825150260014
 21
311.9880097633762
 31
0.0
  0
LINE
  5
70A
330
1F
100
AcDbEntity
  8
0
100
AcDbLine
 10
331.0981619960183
 20
198.6219002089636
 30
0.0
 11
331.0981619960181
 21
200.4218984408641
 31
0.0
  0
LINE
  5
70B
330
1F
100
AcDbEntity
  8
0
100
AcDbLine
 10
59.59824939380077
 20
320.7880057284768
 30
0.0
 11
59.59824939380077
 21
326.0879977352797
 31
0.0
  0
LINE
  5
70C
330
1F
100
AcDbEntity
  8
0
100
AcDbLine
 10
144.098225611155
 20
374.2879853511313
 30
0.0
 11
149.3982176179578
 21
374.2879853511313
 31
0.0
  0
LINE
  5
70D
330
1F
100
AcDbEntity
  8
0
100
AcDbLine
 10
331.0981619960181
 20
85.97193136935819
 30
0.0
 11
331.0981619960181
 21
87.7719296012586
 31
0.0
  0
LINE
  5
70E
330
1F
100
AcDbEntity
  8
0
100
AcDbLine
 10
318.5199230570901
 20
37.7469546571038
 30
0.0
 11
318.7646790922264
 21
38.33784799660265
 31
0.0
  0
LINE
  5
70F
330
1F
100
AcDbEntity
  8
0
100
AcDbLine
 10
318.7646790922264
 20
38.33784799660265
 30
0.0
 11
318.8481608178181
 21
38.97195465710382
 31
0.0
  0
LINE
  5
710
330
1F
100
AcDbEntity
  8
0
100
AcDbLine
 10
82.04824939380083
 20
38.97195465710382
 30
0.0
 11
81.96476766820902
 21
39.606061317605
 31
0.0
  0
LINE
  5
711
330
1F
100
AcDbEntity
  8
0
100
AcDbLine
 10
81.96476766820902
 20
39.606061317605
 30
0.0
 11
81.72001163307269
 21
40.19695465710379
 31
0.0
  0
LINE
  5
712
330
1F
100
AcDbEntity
  8
0
100
AcDbLine
 10
81.72001163307269
 20
40.19695465710379
 30
0.0
 11
81.33066100770781
 21
40.70436627101083
 31
0.0
  0
LINE
  5
713
330
1F
100
AcDbEntity
  8
0
100
AcDbLine
 10
81.33066100770781
 20
40.70436627101083
 30
0.0
 11
80.82324939380084
 21
41.09371689637572
 31
0.0
  0
LINE
  5
714
330
1F
100
AcDbEntity
  8
0
100
AcDbLine
 10
80.82324939380084
 20
41.09371689637572
 30
0.0
 11
80.23235605430201
 21
41.338472931512
 31
0.0
  0
LINE
  5
715
330
1F
100
AcDbEntity
  8
0
100
AcDbLine
 10
80.23235605430201
 20
41.338472931512
 30
0.0
 11
79.59824939380081
 21
41.42195465710381
 31
0.0
  0
LINE
  5
716
330
1F
100
AcDbEntity
  8
0
100
AcDbLine
 10
79.59824939380081
 20
41.42195465710381
 30
0.0
 11
78.96414273329961
 21
41.338472931512
 31
0.0
  0
LINE
  5
717
330
1F
100
AcDbEntity
  8
0
100
AcDbLine
 10
78.96414273329961
 20
41.338472931512
 30
0.0
 11
78.37324939380081
 21
41.09371689637572
 31
0.0
  0
LINE
  5
718
330
1F
100
AcDbEntity
  8
0
100
AcDbLine
 10
78.37324939380081
 20
41.09371689637572
 30
0.0
 11
77.86583777989372
 21
40.70436627101083
 31
0.0
  0
LINE
  5
719
330
1F
100
AcDbEntity
  8
0
100
AcDbLine
 10
77.86583777989372
 20
40.70436627101083
 30
0.0
 11
77.47648715452889
 21
40.19695465710379
 31
0.0
  0
LINE
  5
71A
330
1F
100
AcDbEntity
  8
0
100
AcDbLine
 10
77.47648715452889
 20
40.19695465710379
 30
0.0
 11
77.23173111939259
 21
39.606061317605
 31
0.0
  0
LINE
  5
71B
330
1F
100
AcDbEntity
  8
0
100
AcDbLine
 10
77.23173111939259
 20
39.606061317605
 30
0.0
 11
77.14824939380083
 21
38.97195465710382
 31
0.0
  0
LINE
  5
71C
330
1F
100
AcDbEntity
  8
0
100
AcDbLine
 10
77.14824939380083
 20
38.97195465710382
 30
0.0
 11
77.23173111939259
 21
38.33784799660265
 31
0.0
  0
LINE
  5
71D
330
1F
100
AcDbEntity
  8
0
100
AcDbLine
 10
77.23173111939259
 20
38.33784799660265
 30
0.0
 11
77.47648715452889
 21
37.7469546571038
 31
0.0
  0
LINE
  5
71E
330
1F
100
AcDbEntity
  8
0
100
AcDbLine
 10
77.47648715452889
 20
37.7469546571038
 30
0.0
 11
77.86583777989372
 21
37.23954304319682
 31
0.0
  0
LINE
  5
71F
330
1F
100
AcDbEntity
  8
0
100
AcDbLine
 10
77.86583777989372
 20
37.23954304319682
 30
0.0
 11
78.37324939380081
 21
36.85019241783186
 31
0.0
  0
LINE
  5
720
330
1F
100
AcDbEntity
  8
0
100
AcDbLine
 10
78.37324939380081
 20
36.85019241783186
 30
0.0
 11
78.96414273329961
 21
36.60543638269564
 31
0.0
  0
LINE
  5
721
330
1F
100
AcDbEntity
  8
0
100
AcDbLine
 10
78.96414273329961
 20
36.60543638269564
 30
0.0
 11
79.59824939380081
 21
36.52195465710383
 31
0.0
  0
LINE
  5
722
330
1F
100
AcDbEntity
  8
0
100
AcDbLine
 10
317.6231608178182
 20
41.09371689637572
 30
0.0
 11
317.0322674783193
 21
41.338472931512
 31
0.0
  0
LINE
  5
723
330
1F
100
AcDbEntity
  8
0
100
AcDbLine
 10
317.0322674783193
 20
41.338472931512
 30
0.0
 11
316.3981608178182
 21
41.42195465710381
 31
0.0
  0
LINE
  5
724
330
1F
100
AcDbEntity
  8
0
100
AcDbLine
 10
316.3981608178182
 20
41.42195465710381
 30
0.0
 11
315.764054157317
 21
41.338472931512
 31
0.0
  0
LINE
  5
725
330
1F
100
AcDbEntity
  8
0
100
AcDbLine
 10
315.764054157317
 20
41.338472931512
 30
0.0
 11
315.1731608178182
 21
41.09371689637572
 31
0.0
  0
LINE
  5
726
330
1F
100
AcDbEntity
  8
0
100
AcDbLine
 10
315.1731608178182
 20
41.09371689637572
 30
0.0
 11
314.6657492039111
 21
40.70436627101083
 31
0.0
  0
LINE
  5
727
330
1F
100
AcDbEntity
  8
0
100
AcDbLine
 10
314.6657492039111
 20
40.70436627101083
 30
0.0
 11
314.2763985785463
 21
40.19695465710379
 31
0.0
  0
LINE
  5
728
330
1F
100
AcDbEntity
  8
0
100
AcDbLine
 10
314.2763985785463
 20
40.19695465710379
 30
0.0
 11
314.03164254341
 21
39.606061317605
 31
0.0
  0
LINE
  5
729
330
1F
100
AcDbEntity
  8
0
100
AcDbLine
 10
314.03164254341
 20
39.606061317605
 30
0.0
 11
313.9481608178182
 21
38.97195465710382
 31
0.0
  0
LINE
  5
72A
330
1F
100
AcDbEntity
  8
0
100
AcDbLine
 10
313.9481608178182
 20
38.97195465710382
 30
0.0
 11
314.03164254341
 21
38.33784799660265
 31
0.0
  0
LINE
  5
72B
330
1F
100
AcDbEntity
  8
0
100
AcDbLine
 10
314.03164254341
 20
38.33784799660265
 30
0.0
 11
314.2763985785463
 21
37.7469546571038
 31
0.0
  0
LINE
  5
72C
330
1F
100
AcDbEntity
  8
0
100
AcDbLine
 10
314.2763985785463
 20
37.7469546571038
 30
0.0
 11
314.6657492039111
 21
37.23954304319682
 31
0.0
  0
LINE
  5
72D
330
1F
100
AcDbEntity
  8
0
100
AcDbLine
 10
314.6657492039111
 20
37.23954304319682
 30
0.0
 11
315.1731608178182
 21
36.85019241783186
 31
0.0
  0
LINE
  5
72E
330
1F
100
AcDbEntity
  8
0
100
AcDbLine
 10
315.1731608178182
 20
36.85019241783186
 30
0.0
 11
315.764054157317
 21
36.60543638269564
 31
0.0
  0
LINE
  5
72F
330
1F
100
AcDbEntity
  8
0
100
AcDbLine
 10
315.764054157317
 20
36.60543638269564
 30
0.0
 11
316.3981608178182
 21
36.52195465710383
 31
0.0
  0
LINE
  5
730
330
1F
100
AcDbEntity
  8
0
100
AcDbLine
 10
316.3981608178182
 20
36.52195465710383
 30
0.0
 11
317.0322674783193
 21
36.60543638269564
 31
0.0
  0
LINE
  5
731
330
1F
100
AcDbEntity
  8
0
100
AcDbLine
 10
317.0322674783193
 20
36.60543638269564
 30
0.0
 11
317.6231608178182
 21
36.85019241783186
 31
0.0
  0
LINE
  5
732
330
1F
100
AcDbEntity
  8
0
100
AcDbLine
 10
317.6231608178182
 20
36.85019241783186
 30
0.0
 11
318.1305724317252
 21
37.23954304319682
 31
0.0
  0
LINE
  5
733
330
1F
100
AcDbEntity
  8
0
100
AcDbLine
 10
318.1305724317252
 20
37.23954304319682
 30
0.0
 11
318.5199230570901
 21
37.7469546571038
 31
0.0
  0
LINE
  5
734
330
1F
100
AcDbEntity
  8
0
100
AcDbLine
 10
318.1305724317252
 20
40.70436627101083
 30
0.0
 11
317.6231608178182
 21
41.09371689637572
 31
0.0
  0
LINE
  5
735
330
1F
100
AcDbEntity
  8
0
100
AcDbLine
 10
318.5199230570901
 20
40.19695465710379
 30
0.0
 11
318.1305724317252
 21
40.70436627101083
 31
0.0
  0
LINE
  5
736
330
1F
100
AcDbEntity
  8
0
100
AcDbLine
 10
318.7646790922264
 20
39.606061317605
 30
0.0
 11
318.5199230570901
 21
40.19695465710379
 31
0.0
  0
LINE
  5
737
330
1F
100
AcDbEntity
  8
0
100
AcDbLine
 10
318.8481608178181
 20
38.97195465710382
 30
0.0
 11
318.7646790922264
 21
39.606061317605
 31
0.0
  0
LINE
  5
738
330
1F
100
AcDbEntity
  8
0
100
AcDbLine
 10
81.96476766820902
 20
38.33784799660265
 30
0.0
 11
82.04824939380083
 21
38.97195465710382
 31
0.0
  0
LINE
  5
739
330
1F
100
AcDbEntity
  8
0
100
AcDbLine
 10
81.72001163307269
 20
37.7469546571038
 30
0.0
 11
81.96476766820902
 21
38.33784799660265
 31
0.0
  0
LINE
  5
73A
330
1F
100
AcDbEntity
  8
0
100
AcDbLine
 10
81.33066100770781
 20
37.23954304319682
 30
0.0
 11
81.72001163307269
 21
37.7469546571038
 31
0.0
  0
LINE
  5
73B
330
1F
100
AcDbEntity
  8
0
100
AcDbLine
 10
80.82324939380084
 20
36.85019241783186
 30
0.0
 11
81.33066100770781
 21
37.23954304319682
 31
0.0
  0
LINE
  5
73C
330
1F
100
AcDbEntity
  8
0
100
AcDbLine
 10
80.23235605430201
 20
36.60543638269564
 30
0.0
 11
80.82324939380084
 21
36.85019241783186
 31
0.0
  0
LINE
  5
73D
330
1F
100
AcDbEntity
  8
0
100
AcDbLine
 10
79.59824939380081
 20
36.52195465710383
 30
0.0
 11
80.23235605430201
 21
36.60543638269564
 31
0.0
  0
LINE
  5
73E
330
1F
100
AcDbEntity
  8
0
100
AcDbLine
 10
208.7482036084095
 20
354.1879917831296
 30
0.0
 11
201.7482056884092
 21
354.1879917831296
 31
0.0
  0
LINE
  5
73F
330
1F
100
AcDbEntity
  8
0
100
AcDbLine
 10
201.7482056884092
 20
354.1879917831296
 30
0.0
 11
201.7482056884095
 21
368.9879870471311
 31
0.0
  0
LINE
  5
740
330
1F
100
AcDbEntity
  8
0
100
AcDbLine
 10
201.7482056884095
 20
368.9879870471311
 30
0.0
 11
208.7482036084097
 21
368.9879870471311
 31
0.0
  0
LINE
  5
741
330
1F
100
AcDbEntity
  8
0
100
AcDbLine
 10
208.7482036084097
 20
368.9879870471311
 30
0.0
 11
208.7482036084095
 21
354.1879917831296
 31
0.0
  0
LINE
  5
742
330
1F
100
AcDbEntity
  8
0
100
AcDbLine
 10
187.2482103284085
 20
368.9879870471311
 30
0.0
 11
194.2482082484086
 21
368.9879870471312
 31
0.0
  0
LINE
  5
743
330
1F
100
AcDbEntity
  8
0
100
AcDbLine
 10
194.2482082484086
 20
368.9879870471312
 30
0.0
 11
194.2482082484086
 21
354.1879917831296
 31
0.0
  0
LINE
  5
744
330
1F
100
AcDbEntity
  8
0
100
AcDbLine
 10
194.2482082484086
 20
354.1879917831296
 30
0.0
 11
187.2482103284083
 21
354.1879917831299
 31
0.0
  0
LINE
  5
745
330
1F
100
AcDbEntity
  8
0
100
AcDbLine
 10
187.2482103284083
 20
354.1879917831299
 30
0.0
 11
187.2482103284085
 21
368.9879870471311
 31
0.0
  0
LINE
  5
74A
330
1F
100
AcDbEntity
  8
0
100
AcDbLine
 10
82.04824939380079
 20
354.2879853511315
 30
0.0
 11
81.96476766820898
 21
353.6538786906303
 31
0.0
  0
LINE
  5
74B
330
1F
100
AcDbEntity
  8
0
100
AcDbLine
 10
81.96476766820898
 20
353.6538786906303
 30
0.0
 11
81.72001163307266
 21
353.0629853511315
 31
0.0
  0
LINE
  5
74C
330
1F
100
AcDbEntity
  8
0
100
AcDbLine
 10
81.72001163307266
 20
353.0629853511315
 30
0.0
 11
81.33066100770776
 21
352.5555737372243
 31
0.0
  0
LINE
  5
74D
330
1F
100
AcDbEntity
  8
0
100
AcDbLine
 10
81.33066100770776
 20
352.5555737372243
 30
0.0
 11
80.82324939380077
 21
352.1662231118596
 31
0.0
  0
LINE
  5
74E
330
1F
100
AcDbEntity
  8
0
100
AcDbLine
 10
80.82324939380077
 20
352.1662231118596
 30
0.0
 11
80.23235605430194
 21
351.9214670767232
 31
0.0
  0
LINE
  5
74F
330
1F
100
AcDbEntity
  8
0
100
AcDbLine
 10
80.23235605430194
 20
351.9214670767232
 30
0.0
 11
79.59824939380077
 21
351.8379853511315
 31
0.0
  0
LINE
  5
750
330
1F
100
AcDbEntity
  8
0
100
AcDbLine
 10
79.59824939380077
 20
351.8379853511315
 30
0.0
 11
78.96414273329956
 21
351.9214670767232
 31
0.0
  0
LINE
  5
751
330
1F
100
AcDbEntity
  8
0
100
AcDbLine
 10
78.96414273329956
 20
351.9214670767232
 30
0.0
 11
78.37324939380076
 21
352.1662231118596
 31
0.0
  0
LINE
  5
752
330
1F
100
AcDbEntity
  8
0
100
AcDbLine
 10
78.37324939380076
 20
352.1662231118596
 30
0.0
 11
77.86583777989368
 21
352.5555737372243
 31
0.0
  0
LINE
  5
753
330
1F
100
AcDbEntity
  8
0
100
AcDbLine
 10
77.86583777989368
 20
352.5555737372243
 30
0.0
 11
77.47648715452886
 21
353.0629853511315
 31
0.0
  0
LINE
  5
754
330
1F
100
AcDbEntity
  8
0
100
AcDbLine
 10
77.47648715452886
 20
353.0629853511315
 30
0.0
 11
77.23173111939255
 21
353.6538786906303
 31
0.0
  0
LINE
  5
755
330
1F
100
AcDbEntity
  8
0
100
AcDbLine
 10
77.23173111939255
 20
353.6538786906303
 30
0.0
 11
77.14824939380076
 21
354.2879853511315
 31
0.0
  0
LINE
  5
756
330
1F
100
AcDbEntity
  8
0
100
AcDbLine
 10
77.14824939380076
 20
354.2879853511315
 30
0.0
 11
77.23173111939255
 21
354.9220920116326
 31
0.0
  0
LINE
  5
757
330
1F
100
AcDbEntity
  8
0
100
AcDbLine
 10
77.23173111939255
 20
354.9220920116326
 30
0.0
 11
77.47648715452886
 21
355.5129853511315
 31
0.0
  0
LINE
  5
758
330
1F
100
AcDbEntity
  8
0
100
AcDbLine
 10
77.47648715452886
 20
355.5129853511315
 30
0.0
 11
77.86583777989368
 21
356.0203969650385
 31
0.0
  0
LINE
  5
759
330
1F
100
AcDbEntity
  8
0
100
AcDbLine
 10
77.86583777989368
 20
356.0203969650385
 30
0.0
 11
78.37324939380076
 21
356.4097475904034
 31
0.0
  0
LINE
  5
75A
330
1F
100
AcDbEntity
  8
0
100
AcDbLine
 10
78.37324939380076
 20
356.4097475904034
 30
0.0
 11
78.96414273329956
 21
356.6545036255397
 31
0.0
  0
LINE
  5
75B
330
1F
100
AcDbEntity
  8
0
100
AcDbLine
 10
78.96414273329956
 20
356.6545036255397
 30
0.0
 11
79.59824939380077
 21
356.7379853511315
 31
0.0
  0
LINE
  5
75C
330
1F
100
AcDbEntity
  8
0
100
AcDbLine
 10
79.59824939380077
 20
356.7379853511315
 30
0.0
 11
80.23235605430194
 21
356.6545036255397
 31
0.0
  0
LINE
  5
75D
330
1F
100
AcDbEntity
  8
0
100
AcDbLine
 10
80.23235605430194
 20
356.6545036255397
 30
0.0
 11
80.82324939380077
 21
356.4097475904034
 31
0.0
  0
LINE
  5
75E
330
1F
100
AcDbEntity
  8
0
100
AcDbLine
 10
80.82324939380077
 20
356.4097475904034
 30
0.0
 11
81.33066100770776
 21
356.0203969650385
 31
0.0
  0
LINE
  5
75F
330
1F
100
AcDbEntity
  8
0
100
AcDbLine
 10
81.33066100770776
 20
356.0203969650385
 30
0.0
 11
81.72001163307266
 21
355.5129853511315
 31
0.0
  0
LINE
  5
760
330
1F
100
AcDbEntity
  8
0
100
AcDbLine
 10
81.72001163307266
 20
355.5129853511315
 30
0.0
 11
81.96476766820898
 21
354.9220920116326
 31
0.0
  0
LINE
  5
761
330
1F
100
AcDbEntity
  8
0
100
AcDbLine
 10
81.96476766820898
 20
354.9220920116326
 30
0.0
 11
82.04824939380079
 21
354.2879853511315
 31
0.0
  0
LINE
  5
762
330
1F
100
AcDbEntity
  8
0
100
AcDbLine
 10
318.8481608178184
 20
354.2879853511312
 30
0.0
 11
318.7646790922267
 21
353.6538786906299
 31
0.0
  0
LINE
  5
763
330
1F
100
AcDbEntity
  8
0
100
AcDbLine
 10
318.7646790922267
 20
353.6538786906299
 30
0.0
 11
318.5199230570902
 21
353.0629853511312
 31
0.0
  0
LINE
  5
764
330
1F
100
AcDbEntity
  8
0
100
AcDbLine
 10
318.5199230570902
 20
353.0629853511312
 30
0.0
 11
318.1305724317255
 21
352.5555737372242
 31
0.0
  0
LINE
  5
765
330
1F
100
AcDbEntity
  8
0
100
AcDbLine
 10
318.1305724317255
 20
352.5555737372242
 30
0.0
 11
317.6231608178185
 21
352.1662231118593
 31
0.0
  0
LINE
  5
766
330
1F
100
AcDbEntity
  8
0
100
AcDbLine
 10
317.6231608178185
 20
352.1662231118593
 30
0.0
 11
317.0322674783196
 21
351.921467076723
 31
0.0
  0
LINE
  5
767
330
1F
100
AcDbEntity
  8
0
100
AcDbLine
 10
317.0322674783196
 20
351.921467076723
 30
0.0
 11
316.3981608178184
 21
351.8379853511313
 31
0.0
  0
LINE
  5
768
330
1F
100
AcDbEntity
  8
0
100
AcDbLine
 10
316.3981608178184
 20
351.8379853511313
 30
0.0
 11
315.7640541573173
 21
351.921467076723
 31
0.0
  0
LINE
  5
769
330
1F
100
AcDbEntity
  8
0
100
AcDbLine
 10
315.7640541573173
 20
351.921467076723
 30
0.0
 11
315.1731608178185
 21
352.1662231118593
 31
0.0
  0
LINE
  5
76A
330
1F
100
AcDbEntity
  8
0
100
AcDbLine
 10
315.1731608178185
 20
352.1662231118593
 30
0.0
 11
314.6657492039113
 21
352.5555737372242
 31
0.0
  0
LINE
  5
76B
330
1F
100
AcDbEntity
  8
0
100
AcDbLine
 10
314.6657492039113
 20
352.5555737372242
 30
0.0
 11
314.2763985785467
 21
353.0629853511312
 31
0.0
  0
LINE
  5
76C
330
1F
100
AcDbEntity
  8
0
100
AcDbLine
 10
314.2763985785467
 20
353.0629853511312
 30
0.0
 11
314.0316425434103
 21
353.6538786906299
 31
0.0
  0
LINE
  5
76D
330
1F
100
AcDbEntity
  8
0
100
AcDbLine
 10
314.0316425434103
 20
353.6538786906299
 30
0.0
 11
313.9481608178183
 21
354.2879853511312
 31
0.0
  0
LINE
  5
76E
330
1F
100
AcDbEntity
  8
0
100
AcDbLine
 10
313.9481608178183
 20
354.2879853511312
 30
0.0
 11
314.0316425434103
 21
354.9220920116324
 31
0.0
  0
LINE
  5
76F
330
1F
100
AcDbEntity
  8
0
100
AcDbLine
 10
314.0316425434103
 20
354.9220920116324
 30
0.0
 11
314.2763985785467
 21
355.5129853511311
 31
0.0
  0
LINE
  5
770
330
1F
100
AcDbEntity
  8
0
100
AcDbLine
 10
314.2763985785467
 20
355.5129853511311
 30
0.0
 11
314.6657492039113
 21
356.0203969650382
 31
0.0
  0
LINE
  5
771
330
1F
100
AcDbEntity
  8
0
100
AcDbLine
 10
314.6657492039113
 20
356.0203969650382
 30
0.0
 11
315.1731608178185
 21
356.409747590403
 31
0.0
  0
LINE
  5
772
330
1F
100
AcDbEntity
  8
0
100
AcDbLine
 10
315.1731608178185
 20
356.409747590403
 30
0.0
 11
315.7640541573173
 21
356.6545036255393
 31
0.0
  0
LINE
  5
773
330
1F
100
AcDbEntity
  8
0
100
AcDbLine
 10
315.7640541573173
 20
356.6545036255393
 30
0.0
 11
316.3981608178184
 21
356.7379853511312
 31
0.0
  0
LINE
  5
774
330
1F
100
AcDbEntity
  8
0
100
AcDbLine
 10
316.3981608178184
 20
356.7379853511312
 30
0.0
 11
317.0322674783196
 21
356.6545036255393
 31
0.0
  0
LINE
  5
775
330
1F
100
AcDbEntity
  8
0
100
AcDbLine
 10
317.0322674783196
 20
356.6545036255393
 30
0.0
 11
317.6231608178185
 21
356.409747590403
 31
0.0
  0
LINE
  5
776
330
1F
100
AcDbEntity
  8
0
100
AcDbLine
 10
317.6231608178185
 20
356.409747590403
 30
0.0
 11
318.1305724317255
 21
356.0203969650382
 31
0.0
  0
LINE
  5
777
330
1F
100
AcDbEntity
  8
0
100
AcDbLine
 10
318.1305724317255
 20
356.0203969650382
 30
0.0
 11
318.5199230570902
 21
355.5129853511311
 31
0.0
  0
LINE
  5
778
330
1F
100
AcDbEntity
  8
0
100
AcDbLine
 10
318.5199230570902
 20
355.5129853511311
 30
0.0
 11
318.7646790922267
 21
354.9220920116324
 31
0.0
  0
LINE
  5
779
330
1F
100
AcDbEntity
  8
0
100
AcDbLine
 10
318.7646790922267
 20
354.9220920116324
 30
0.0
 11
318.8481608178184
 21
354.2879853511312
 31
0.0
  0
LINE
  5
77A
330
1F
100
AcDbEntity
  8
0
100
AcDbLine
 10
271.3981608178183
 20
102.7587512215074
 30
0.0
 11
271.3981608178183
 21
290.5060837485207
 31
0.0
  0
LINE
  5
77B
330
1F
100
AcDbEntity
  8
0
100
AcDbLine
 10
271.3981608178182
 20
290.5011887867278
 30
0.0
 11
252.6113642534147
 21
309.2879853511314
 31
0.0
  0
LINE
  5
77C
330
1F
100
AcDbEntity
  8
0
100
AcDbLine
 10
252.6113642534147
 20
309.2879853511314
 30
0.0
 11
143.3850459582044
 21
309.2879853511314
 31
0.0
  0
LINE
  5
77D
330
1F
100
AcDbEntity
  8
0
100
AcDbLine
 10
143.3850459582044
 20
309.2879853511314
 30
0.0
 11
124.5982493938009
 21
290.5011887867279
 31
0.0
  0
LINE
  5
77E
330
1F
100
AcDbEntity
  8
0
100
AcDbLine
 10
124.598249393801
 20
290.5118810570789
 30
0.0
 11
124.598249393801
 21
102.7587512215073
 31
0.0
  0
LINE
  5
77F
330
1F
100
AcDbEntity
  8
0
100
AcDbLine
 10
124.598249393801
 20
102.7587512215073
 30
0.0
 11
143.3850459582045
 21
83.9719546571038
 31
0.0
  0
LINE
  5
780
330
1F
100
AcDbEntity
  8
0
100
AcDbLine
 10
143.3850459582045
 20
83.9719546571038
 30
0.0
 11
252.6113642534146
 21
83.9719546571038
 31
0.0
  0
LINE
  5
781
330
1F
100
AcDbEntity
  8
0
100
AcDbLine
 10
252.6113642534146
 20
83.9719546571038
 30
0.0
 11
271.3981608178183
 21
102.7587512215074
 31
0.0
  0
CIRCLE
  5
2CA6
330
1F
100
AcDbEntity
  8
0
100
AcDbCircle
 10
196.3489916807064
 20
27.4337727987182
 30
0.0
 40
2.0
  0
CIRCLE
  5
2CA7
330
1F
100
AcDbEntity
  8
0
100
AcDbCircle
 10
196.4594973062201
 20
39.42597886107066
 30
0.0
 40
2.0
  0
ENDSEC
  0
SECTION
  2
OBJECTS
  0
DICTIONARY
  5
C
330
0
100
AcDbDictionary
281
     1
  3
ACAD_CIP_PREVIOUS_PRODUCT_INFO
350
2C52
  3
ACAD_COLOR
350
2C37
  3
ACAD_DETAILVIEWSTYLE
350
2C4E
  3
ACAD_GROUP
350
D
  3
ACAD_LAYOUT
350
1A
  3
ACAD_MATERIAL
350
3B
  3
ACAD_MLEADERSTYLE
350
2C2A
  3
ACAD_MLINESTYLE
350
17
  3
ACAD_PLOTSETTINGS
350
19
  3
ACAD_PLOTSTYLENAME
350
E
  3
ACAD_SCALELIST
350
2C39
  3
ACAD_SECTIONVIEWSTYLE
350
2C4C
  3
ACAD_TABLESTYLE
350
2C29
  3
ACAD_VISUALSTYLE
350
2A
  3
ACDB_RECOMPOSE_DATA
350
2CCF
  3
AcDbVariableDictionary
350
2C7E
  0
DICTIONARY
  5
2CAB
330
2
100
AcDbDictionary
280
     1
281
     1
  3
ACAD_LAYERSTATES
360
2CAC
  0
XRECORD
  5
2C52
102
{ACAD_REACTORS
330
C
102
}
330
C
100
AcDbXrecord
280
     1
300
ACD
300
2014
300
ACD_F_S
  0
DICTIONARY
  5
2C37
102
{ACAD_REACTORS
330
C
102
}
330
C
100
AcDbDictionary
281
     1
  0
DICTIONARY
  5
2C4E
102
{ACAD_REACTORS
330
C
102
}
330
C
100
AcDbDictionary
281
     1
  3
Imperial24
350
2C4F
  3
Metric50
350
2C93
  0
DICTIONARY
  5
D
102
{ACAD_REACTORS
330
C
102
}
330
C
100
AcDbDictionary
281
     1
  0
DICTIONARY
  5
1A
102
{ACAD_REACTORS
330
C
102
}
330
C
100
AcDbDictionary
281
     1
  3
Layout1
350
1E
  3
Layout2
350
26
  3
Model
350
22
  0
DICTIONARY
  5
3B
102
{ACAD_REACTORS
330
C
102
}
330
C
100
AcDbDictionary
281
     1
  3
ByBlock
350
3D
  3
ByLayer
350
3C
  3
Global
350
3E
  0
DICTIONARY
  5
2C2A
102
{ACAD_REACTORS
330
C
102
}
330
C
100
AcDbDictionary
281
     1
  3
Standard
350
2C4B
  0
DICTIONARY
  5
17
102
{ACAD_REACTORS
330
C
102
}
330
C
100
AcDbDictionary
281
     1
  3
Standard
350
18
  0
DICTIONARY
  5
19
102
{ACAD_REACTORS
330
C
102
}
330
C
100
AcDbDictionary
281
     1
  0
ACDBDICTIONARYWDFLT
  5
E
102
{ACAD_REACTORS
330
C
102
}
330
C
100
AcDbDictionary
281
     1
  3
Normal
350
F
100
AcDbDictionaryWithDefault
340
F
  0
DICTIONARY
  5
2C39
102
{ACAD_REACTORS
330
C
102
}
330
C
100
AcDbDictionary
281
     1
  3
A0
350
2C3A
  3
A1
350
2C3B
  3
A2
350
2C3C
  3
A3
350
2C3D
  3
A4
350
2C3E
  3
A5
350
2C3F
  3
A6
350
2C40
  3
A7
350
2C41
  3
A8
350
2C42
  3
A9
350
2C43
  3
B0
350
2C44
  3
B1
350
2C45
  3
B2
350
2C46
  3
B3
350
2C47
  3
B4
350
2C48
  3
B5
350
2C49
  3
B6
350
2C4A
  0
DICTIONARY
  5
2C4C
102
{ACAD_REACTORS
330
C
102
}
330
C
100
AcDbDictionary
281
     1
  3
Imperial24
350
2C4D
  3
Metric50
350
2C92
  0
DICTIONARY
  5
2C29
102
{ACAD_REACTORS
330
C
102
}
330
C
100
AcDbDictionary
281
     1
  3
Standard
350
2C38
  0
DICTIONARY
  5
2A
102
{ACAD_REACTORS
330
C
102
}
330
C
100
AcDbDictionary
281
     1
  3
2dWireframe
350
2F
  3
3D Hidden
350
31
  3
3dWireframe
350
30
  3
Basic
350
32
  3
Brighten
350
36
  3
ColorChange
350
3A
  3
Conceptual
350
34
  3
Dim
350
35
  3
EdgeColorOff
350
2C36
  3
Facepattern
350
39
  3
Flat
350
2B
  3
FlatWithEdges
350
2C
  3
Gouraud
350
2D
  3
GouraudWithEdges
350
2E
  3
Hidden
350
2C2E
  3
JitterOff
350
2C34
  3
Linepattern
350
38
  3
OverhangOff
350
2C35
  3
Realistic
350
33
  3
Shaded
350
2C33
  3
Shaded with edges
350
2C32
  3
Shades of Gray
350
2C2F
  3
Sketchy
350
2C30
  3
Thicken
350
37
  3
Wireframe
350
2C2D
  3
X-Ray
350
2C31
  0
XRECORD
  5
2CCF
102
{ACAD_REACTORS
330
C
102
}
330
C
100
AcDbXrecord
280
     1
 90
        1
330
2C38
330
2C4D
330
2C4F
330
2C92
330
2C93
  0
DICTIONARY
  5
2C7E
102
{ACAD_REACTORS
330
C
102
}
330
C
100
AcDbDictionary
281
     1
  3
CANNOSCALE
350
2C83
  3
CMLEADERSTYLE
350
2C80
  3
CTABLESTYLE
350
2C7F
  3
CVIEWDETAILSTYLE
350
2C81
  3
CVIEWSECTIONSTYLE
350
2C82
  0
DICTIONARY
  5
2CAC
102
{ACAD_REACTORS
330
2CAB
102
}
330
2CAB
100
AcDbDictionary
281
     1
  0
ACDBDETAILVIEWSTYLE
  5
2C4F
102
{ACAD_XDICTIONARY
360
2C88
102
}
102
{ACAD_REACTORS
330
2C4E
102
}
330
2C4E
100
AcDbModelDocViewStyle
 70
     0
  3
Imperial24
290
     0
100
AcDbDetailViewStyle
 70
     0
 71
     0
 90
        3
 71
     1
340
11
 62
   256
 40
0.24
340
0
 62
   256
 40
0.24
300

 40
0.36
280
     3
 71
     2
340
16
 90
       25
 62
   256
 71
     3
340
11
 62
   256
 40
0.24
 90
        1
 40
0.75
 90
        1
300
%<\AcVar ViewType \f "%tc1">% %<\AcVar ViewDetailId>%\PSCALE %<\AcVar ViewScale \f "%sn">%
 71
     4
340
16
 90
       25
 62
   256
340
16
 90
       25
 62
   256
280
     0
  0
ACDBDETAILVIEWSTYLE
  5
2C93
102
{ACAD_XDICTIONARY
360
2CC3
102
}
102
{ACAD_REACTORS
330
2C4E
102
}
330
2C4E
100
AcDbModelDocViewStyle
 70
     0
  3
Metric50
290
     0
100
AcDbDetailViewStyle
 70
     0
 71
     0
 90
        3
 71
     1
340
11
 62
   256
 40
5.0
340
0
 62
   256
 40
5.0
300

 40
0.0
280
     1
 71
     2
340
16
 90
       25
 62
   256
 71
     3
340
11
 62
   256
 40
5.0
 90
        0
 40
15.0
 90
        1
300
%<\AcVar ViewDetailId>% (%<\AcVar ViewScale \f "%sn">%)
 71
     4
340
16
 90
       25
 62
   256
340
16
 90
       25
 62
   256
280
     0
  0
LAYOUT
  5
1E
102
{ACAD_REACTORS
330
1A
102
}
330
1A
100
AcDbPlotSettings
  1

  2
none_device
  4

  6

 40
0.0
 41
0.0
 42
0.0
 43
0.0
 44
0.0
 45
0.0
 46
0.0
 47
0.0
 48
0.0
 49
0.0
140
0.0
141
0.0
142
1.0
143
1.0
 70
   688
 72
     0
 73
     0
 74
     5
  7

 75
    16
147
1.0
 76
     0
 77
     2
 78
   300
148
0.0
149
0.0
100
AcDbLayout
  1
Layout1
 70
     1
 71
     1
 10
0.0
 20
0.0
 11
12.0
 21
9.0
 12
0.0
 22
0.0
 32
0.0
 14
1.000000000000000E+20
 24
1.000000000000000E+20
 34
1.000000000000000E+20
 15
-1.000000000000000E+20
 25
-1.000000000000000E+20
 35
-1.000000000000000E+20
146
0.0
 13
0.0
 23
0.0
 33
0.0
 16
1.0
 26
0.0
 36
0.0
 17
0.0
 27
1.0
 37
0.0
 76
     0
330
1B
  0
LAYOUT
  5
26
102
{ACAD_REACTORS
330
1A
102
}
330
1A
100
AcDbPlotSettings
  1

  2
none_device
  4

  6

 40
0.0
 41
0.0
 42
0.0
 43
0.0
 44
0.0
 45
0.0
 46
0.0
 47
0.0
 48
0.0
 49
0.0
140
0.0
141
0.0
142
1.0
143
1.0
 70
   688
 72
     0
 73
     0
 74
     5
  7

 75
    16
147
1.0
 76
     0
 77
     2
 78
   300
148
0.0
149
0.0
100
AcDbLayout
  1
Layout2
 70
     1
 71
     2
 10
0.0
 20
0.0
 11
0.0
 21
0.0
 12
0.0
 22
0.0
 32
0.0
 14
0.0
 24
0.0
 34
0.0
 15
0.0
 25
0.0
 35
0.0
146
0.0
 13
0.0
 23
0.0
 33
0.0
 16
1.0
 26
0.0
 36
0.0
 17
0.0
 27
1.0
 37
0.0
 76
     0
330
23
  0
LAYOUT
  5
22
102
{ACAD_REACTORS
330
1A
102
}
330
1A
100
AcDbPlotSettings
  1

  2
none_device
  4

  6

 40
0.0
 41
0.0
 42
0.0
 43
0.0
 44
0.0
 45
0.0
 46
0.0
 47
0.0
 48
0.0
 49
0.0
140
0.0
141
0.0
142
1.0
143
1.0
 70
  1712
 72
     0
 73
     0
 74
     0
  7

 75
     0
147
1.0
 76
     0
 77
     2
 78
   300
148
0.0
149
0.0
100
AcDbLayout
  1
Model
 70
     1
 71
     0
 10
0.0
 20
0.0
 11
12.0
 21
9.0
 12
0.0
 22
0.0
 32
0.0
 14
1.000000000000000E+20
 24
1.000000000000000E+20
 34
1.000000000000000E+20
 15
-1.000000000000000E+20
 25
-1.000000000000000E+20
 35
-1.000000000000000E+20
146
0.0
 13
0.0
 23
0.0
 33
0.0
 16
1.0
 26
0.0
 36
0.0
 17
0.0
 27
1.0
 37
0.0
 76
     0
330
1F
331
29
  0
MATERIAL
  5
3D
102
{ACAD_REACTORS
330
3B
102
}
330
3B
100
AcDbMaterial
  1
ByBlock
  0
MATERIAL
  5
3C
102
{ACAD_REACTORS
330
3B
102
}
330
3B
100
AcDbMaterial
  1
ByLayer
  0
MATERIAL
  5
3E
102
{ACAD_REACTORS
330
3B
102
}
330
3B
100
AcDbMaterial
  1
Global
  0
MLEADERSTYLE
  5
2C4B
102
{ACAD_REACTORS
330
2C2A
102
}
330
2C2A
100
AcDbMLeaderStyle
179
     2
170
     2
171
     1
172
     0
 90
        2
 40
0.0
 41
0.0
173
     1
 91
-1056964608
340
14
 92
       -2
290
     1
 42
0.09
291
     1
 43
0.36
  3
Standard
 44
0.18
300

342
11
174
     1
178
     6
175
     1
176
     0
 93
-1056964608
 45
0.18
292
     0
297
     0
 46
0.18
 94
-1056964608
 47
1.0
 49
1.0
140
1.0
293
     1
141
0.0
294
     1
177
     0
142
1.0
295
     0
296
     0
143
0.125
271
     0
272
     9
273
     9
298
     0
  0
MLINESTYLE
  5
18
102
{ACAD_REACTORS
330
17
102
}
330
17
100
AcDbMlineStyle
  2
STANDARD
 70
     0
  3

 62
   256
 51
90.0
 52
90.0
 71
     2
 49
0.5
 62
   256
  6
BYLAYER
 49
-0.5
 62
   256
  6
BYLAYER
  0
ACDBPLACEHOLDER
  5
F
102
{ACAD_REACTORS
330
E
102
}
330
E
  0
SCALE
  5
2C3A
102
{ACAD_REACTORS
330
2C39
102
}
330
2C39
100
AcDbScale
 70
     0
300
1:1
140
1.0
141
1.0
290
     1
  0
SCALE
  5
2C3B
102
{ACAD_REACTORS
330
2C39
102
}
330
2C39
100
AcDbScale
 70
     0
300
1/128" = 1'-0"
140
0.0078125
141
12.0
290
     0
  0
SCALE
  5
2C3C
102
{ACAD_REACTORS
330
2C39
102
}
330
2C39
100
AcDbScale
 70
     0
300
1/64" = 1'-0"
140
0.015625
141
12.0
290
     0
  0
SCALE
  5
2C3D
102
{ACAD_REACTORS
330
2C39
102
}
330
2C39
100
AcDbScale
 70
     0
300
1/32" = 1'-0"
140
0.03125
141
12.0
290
     0
  0
SCALE
  5
2C3E
102
{ACAD_REACTORS
330
2C39
102
}
330
2C39
100
AcDbScale
 70
     0
300
1/16" = 1'-0"
140
0.0625
141
12.0
290
     0
  0
SCALE
  5
2C3F
102
{ACAD_REACTORS
330
2C39
102
}
330
2C39
100
AcDbScale
 70
     0
300
3/32" = 1'-0"
140
0.09375
141
12.0
290
     0
  0
SCALE
  5
2C40
102
{ACAD_REACTORS
330
2C39
102
}
330
2C39
100
AcDbScale
 70
     0
300
1/8" = 1'-0"
140
0.125
141
12.0
290
     0
  0
SCALE
  5
2C41
102
{ACAD_REACTORS
330
2C39
102
}
330
2C39
100
AcDbScale
 70
     0
300
3/16" = 1'-0"
140
0.1875
141
12.0
290
     0
  0
SCALE
  5
2C42
102
{ACAD_REACTORS
330
2C39
102
}
330
2C39
100
AcDbScale
 70
     0
300
1/4" = 1'-0"
140
0.25
141
12.0
290
     0
  0
SCALE
  5
2C43
102
{ACAD_REACTORS
330
2C39
102
}
330
2C39
100
AcDbScale
 70
     0
300
3/8" = 1'-0"
140
0.375
141
12.0
290
     0
  0
SCALE
  5
2C44
102
{ACAD_REACTORS
330
2C39
102
}
330
2C39
100
AcDbScale
 70
     0
300
1/2" = 1'-0"
140
0.5
141
12.0
290
     0
  0
SCALE
  5
2C45
102
{ACAD_REACTORS
330
2C39
102
}
330
2C39
100
AcDbScale
 70
     0
300
3/4" = 1'-0"
140
0.75
141
12.0
290
     0
  0
SCALE
  5
2C46
102
{ACAD_REACTORS
330
2C39
102
}
330
2C39
100
AcDbScale
 70
     0
300
1" = 1'-0"
140
1.0
141
12.0
290
     0
  0
SCALE
  5
2C47
102
{ACAD_REACTORS
330
2C39
102
}
330
2C39
100
AcDbScale
 70
     0
300
1-1/2" = 1'-0"
140
1.5
141
12.0
290
     0
  0
SCALE
  5
2C48
102
{ACAD_REACTORS
330
2C39
102
}
330
2C39
100
AcDbScale
 70
     0
300
3" = 1'-0"
140
3.0
141
12.0
290
     0
  0
SCALE
  5
2C49
102
{ACAD_REACTORS
330
2C39
102
}
330
2C39
100
AcDbScale
 70
     0
300
6" = 1'-0"
140
6.0
141
12.0
290
     0
  0
SCALE
  5
2C4A
102
{ACAD_REACTORS
330
2C39
102
}
330
2C39
100
AcDbScale
 70
     0
300
1'-0" = 1'-0"
140
12.0
141
12.0
290
     0
  0
ACDBSECTIONVIEWSTYLE
  5
2C4D
102
{ACAD_XDICTIONARY
360
2C86
102
}
102
{ACAD_REACTORS
330
2C4C
102
}
330
2C4C
100
AcDbModelDocViewStyle
 70
     0
  3
Imperial24
290
     0
100
AcDbSectionViewStyle
 70
     0
 71
     0
 90
       78
 71
     1
340
11
 62
   256
 40
0.24
340
0
340
0
 62
   256
 40
0.24
300
I, O, Q, S, X, Z
 40
0.48
 90
        3
 40
0.18
 90
        1
 71
     2
340
16
 90
       25
 62
   256
340
16
 90
       50
 62
   256
 40
0.24
 40
0.0
 40
0.24
 71
     3
340
11
 62
   256
 40
0.24
 90
        1
 40
0.75
 90
        1
300
%<\AcVar ViewType \f "%tc1">% %<\AcVar ViewSectionStartId>%-%<\AcVar ViewSectionEndId>%\PSCALE %<\AcVar ViewScale \f "%sn">%
 71
     4
 62
   256
 62
   257
300
ANSI31
 40
1.0
 90
        0
290
     0
290
     0
 90
        6
 40
0.0
 40
1.570796326794896
 40
0.2617993877991494
 40
1.308996938995747
 40
-0.2617993877991494
 40
1.832595714594045
  0
ACDBSECTIONVIEWSTYLE
  5
2C92
102
{ACAD_XDICTIONARY
360
2CC1
102
}
102
{ACAD_REACTORS
330
2C4C
102
}
330
2C4C
100
AcDbModelDocViewStyle
 70
     0
  3
Metric50
290
     0
100
AcDbSectionViewStyle
 70
     0
 71
     0
 90
      102
 71
     1
340
11
 62
   256
 40
5.0
340
0
340
0
 62
   256
 40
5.0
300
I, O, Q, S, X, Z
 40
10.0
 90
        0
 40
2.5
 90
        0
 71
     2
340
16
 90
       25
 62
   256
340
16
 90
       50
 62
   256
 40
5.0
 40
2.5
 40
5.0
 71
     3
340
11
 62
   256
 40
5.0
 90
        0
 40
15.0
 90
        1
300
%<\AcVar ViewSectionStartId>%-%<\AcVar ViewSectionEndId>% (%<\AcVar ViewScale \f "%sn">%)
 71
     4
 62
   256
 62
   257
300
ANSI31
 40
1.0
 90
        0
290
     0
290
     0
 90
        6
 40
0.0
 40
1.570796326794896
 40
0.2617993877991494
 40
1.308996938995747
 40
-0.2617993877991494
 40
1.832595714594046
  0
TABLESTYLE
  5
2C38
102
{ACAD_XDICTIONARY
360
2C84
102
}
102
{ACAD_REACTORS
330
2C29
102
}
330
2C29
100
AcDbTableStyle
280
     0
  3
Standard
 70
     0
 71
     0
 40
0.06
 41
0.06
280
     0
281
     0
  7
Standard
140
0.18
170
     2
 62
     0
 63
     7
283
     0
 90
      512
 91
        0
  1

274
    -2
284
     1
 64
     0
275
    -2
285
     1
 65
     0
276
    -2
286
     1
 66
     0
277
    -2
287
     1
 67
     0
278
    -2
288
     1
 68
     0
279
    -2
289
     1
 69
     0
  7
Standard
140
0.25
170
     5
 62
     0
 63
     7
283
     0
 90
      512
 91
        0
  1

274
    -2
284
     1
 64
     0
275
    -2
285
     1
 65
     0
276
    -2
286
     1
 66
     0
277
    -2
287
     1
 67
     0
278
    -2
288
     1
 68
     0
279
    -2
289
     1
 69
     0
  7
Standard
140
0.18
170
     5
 62
     0
 63
     7
283
     0
 90
      512
 91
        0
  1

274
    -2
284
     1
 64
     0
275
    -2
285
     1
 65
     0
276
    -2
286
     1
 66
     0
277
    -2
287
     1
 67
     0
278
    -2
288
     1
 68
     0
279
    -2
289
     1
 69
     0
  0
VISUALSTYLE
  5
2F
102
{ACAD_REACTORS
330
2A
102
}
330
2A
100
AcDbVisualStyle
  2
2dWireframe
 70
     4
177
     3
291
     0
 70
    58
 90
        0
176
     1
 90
        2
176
     1
 90
        0
176
     1
 90
        0
176
     1
 40
0.6
176
     1
 40
30.0
176
     1
 62
     7
420
 16777215
176
     1
 90
        1
176
     1
 90
        4
176
     1
 62
     7
176
     1
 62
   257
176
     1
 90
        1
176
     1
 90
        1
176
     1
 40
1.0
176
     1
 90
        0
176
     1
 62
   257
176
     1
 40
1.0
176
     1
 90
        1
176
     1
 90
        6
176
     1
 90
        2
176
     1
 62
     7
176
     1
 90
        5
176
     1
 90
        0
176
     1
 90
        0
176
     1
290
     0
176
     1
 90
        1
176
     1
 40
0.0
176
     1
 90
        0
176
     1
290
     1
176
     1
290
     1
176
     1
290
     0
176
     1
290
     0
176
     1
290
     0
176
     1
290
     0
176
     1
290
     0
176
     1
290
     0
176
     1
290
     0
176
     1
 90
       50
176
     1
 40
0.0
176
     1
 40
1.0
176
     1
 90
        0
176
     1
 62
    18
176
     1
 90
       50
176
     1
 90
        3
176
     1
 62
     5
420
      255
176
     1
290
     0
176
     1
 90
       50
176
     1
 90
       50
176
     1
 90
       50
176
     1
290
     0
176
     1
 90
       50
176
     1
 62
   256
176
     0
 40
1.0
176
     0
 90
        2
176
     1
  1
strokes_ogs.tif
176
     1
290
     0
176
     1
 40
1.0
176
     1
 40
1.0
176
     1
  0
VISUALSTYLE
  5
31
102
{ACAD_REACTORS
330
2A
102
}
330
2A
100
AcDbVisualStyle
  2
3D Hidden
 70
     6
177
     3
291
     0
 70
    58
 90
        1
176
     1
 90
        2
176
     1
 90
        2
176
     1
 90
        0
176
     1
 40
0.6
176
     1
 40
30.0
176
     1
 62
     7
420
 16777215
176
     1
 90
        2
176
     1
 90
        2
176
     1
 62
     7
176
     1
 62
   257
176
     1
 90
        2
176
     1
 90
        1
176
     1
 40
40.0
176
     1
 90
        0
176
     1
 62
   257
176
     1
 40
1.0
176
     1
 90
        1
176
     1
 90
        6
176
     1
 90
        2
176
     1
 62
     7
176
     1
 90
        3
176
     1
 90
        0
176
     1
 90
        0
176
     1
290
     0
176
     1
 90
        1
176
     1
 40
0.0
176
     1
 90
        0
176
     1
290
     0
176
     1
290
     1
176
     1
290
     1
176
     1
290
     0
176
     1
290
     0
176
     1
290
     0
176
     1
290
     0
176
     1
290
     0
176
     1
290
     0
176
     1
 90
       50
176
     1
 40
0.0
176
     1
 40
1.0
176
     1
 90
        0
176
     1
 62
    18
176
     1
 90
       50
176
     1
 90
        3
176
     1
 62
     5
420
      255
176
     1
290
     0
176
     1
 90
       50
176
     1
 90
       50
176
     1
 90
       50
176
     1
290
     0
176
     1
 90
       50
176
     1
 62
   256
176
     0
 40
1.0
176
     0
 90
        2
176
     1
  1
strokes_ogs.tif
176
     1
290
     0
176
     1
 40
1.0
176
     1
 40
1.0
176
     1
  0
VISUALSTYLE
  5
30
102
{ACAD_REACTORS
330
2A
102
}
330
2A
100
AcDbVisualStyle
  2
3dWireframe
 70
     5
177
     3
291
     0
 70
    58
 90
        0
176
     1
 90
        2
176
     1
 90
        0
176
     1
 90
        0
176
     1
 40
0.6
176
     1
 40
30.0
176
     1
 62
     7
420
 16777215
176
     1
 90
        1
176
     1
 90
        4
176
     1
 62
     7
176
     1
 62
   257
176
     1
 90
        1
176
     1
 90
        1
176
     1
 40
1.0
176
     1
 90
        0
176
     1
 62
   257
176
     1
 40
1.0
176
     1
 90
        1
176
     1
 90
        6
176
     1
 90
        2
176
     1
 62
     7
176
     1
 90
        5
176
     1
 90
        0
176
     1
 90
        0
176
     1
290
     0
176
     1
 90
        1
176
     1
 40
0.0
176
     1
 90
        0
176
     1
290
     0
176
     1
290
     1
176
     1
290
     1
176
     1
290
     0
176
     1
290
     0
176
     1
290
     0
176
     1
290
     0
176
     1
290
     0
176
     1
290
     0
176
     1
 90
       50
176
     1
 40
0.0
176
     1
 40
1.0
176
     1
 90
        0
176
     1
 62
    18
176
     1
 90
       50
176
     1
 90
        3
176
     1
 62
     5
420
      255
176
     1
290
     0
176
     1
 90
       50
176
     1
 90
       50
176
     1
 90
       50
176
     1
290
     0
176
     1
 90
       50
176
     1
 62
   256
176
     0
 40
1.0
176
     0
 90
        2
176
     1
  1
strokes_ogs.tif
176
     1
290
     0
176
     1
 40
1.0
176
     1
 40
1.0
176
     1
  0
VISUALSTYLE
  5
32
102
{ACAD_REACTORS
330
2A
102
}
330
2A
100
AcDbVisualStyle
  2
Basic
 70
     7
177
     3
291
     1
 70
    58
 90
        1
176
     1
 90
        0
176
     1
 90
        1
176
     1
 90
        0
176
     1
 40
0.6
176
     1
 40
30.0
176
     1
 62
     7
420
 16777215
176
     1
 90
        0
176
     1
 90
        4
176
     1
 62
     7
176
     1
 62
   257
176
     1
 90
        1
176
     1
 90
        1
176
     1
 40
1.0
176
     1
 90
        8
176
     1
 62
     7
176
     1
 40
1.0
176
     1
 90
        1
176
     1
 90
        6
176
     1
 90
        2
176
     1
 62
     7
176
     1
 90
        5
176
     1
 90
        0
176
     1
 90
        0
176
     1
290
     0
176
     1
 90
        1
176
     1
 40
0.0
176
     1
 90
        0
176
     1
290
     0
176
     1
290
     1
176
     1
290
     1
176
     1
290
     0
176
     1
290
     0
176
     1
290
     0
176
     1
290
     0
176
     1
290
     0
176
     1
290
     0
176
     1
 90
       50
176
     1
 40
0.0
176
     1
 40
1.0
176
     1
 90
        0
176
     1
 62
    18
176
     1
 90
       50
176
     1
 90
        3
176
     1
 62
     5
420
      255
176
     1
290
     0
176
     1
 90
       50
176
     1
 90
       50
176
     1
 90
       50
176
     1
290
     0
176
     1
 90
       50
176
     1
 62
   256
176
     0
 40
1.0
176
     0
 90
        2
176
     1
  1
strokes_ogs.tif
176
     1
290
     0
176
     1
 40
1.0
176
     1
 40
1.0
176
     1
  0
VISUALSTYLE
  5
36
102
{ACAD_REACTORS
330
2A
102
}
330
2A
100
AcDbVisualStyle
  2
Brighten
 70
    12
177
     3
291
     1
 70
    58
 90
        2
176
     1
 90
        2
176
     1
 90
        0
176
     1
 90
        0
176
     1
 40
0.6
176
     1
 40
30.0
176
     1
 62
     7
420
 16777215
176
     1
 90
        1
176
     1
 90
        4
176
     1
 62
     7
176
     1
 62
   257
176
     1
 90
        1
176
     1
 90
        1
176
     1
 40
1.0
176
     1
 90
        8
176
     1
 62
     7
176
     1
 40
1.0
176
     1
 90
        1
176
     1
 90
        6
176
     1
 90
        2
176
     1
 62
     7
176
     1
 90
        5
176
     1
 90
        0
176
     1
 90
        0
176
     1
290
     0
176
     1
 90
        1
176
     1
 40
50.0
176
     1
 90
        0
176
     1
290
     0
176
     1
290
     1
176
     1
290
     1
176
     1
290
     0
176
     1
290
     0
176
     1
290
     0
176
     1
290
     0
176
     1
290
     0
176
     1
290
     0
176
     1
 90
       50
176
     1
 40
0.0
176
     1
 40
1.0
176
     1
 90
        0
176
     1
 62
    18
176
     1
 90
       50
176
     1
 90
        3
176
     1
 62
     5
420
      255
176
     1
290
     0
176
     1
 90
       50
176
     1
 90
       50
176
     1
 90
       50
176
     1
290
     0
176
     1
 90
       50
176
     1
 62
   256
176
     0
 40
1.0
176
     0
 90
        2
176
     1
  1
strokes_ogs.tif
176
     1
290
     0
176
     1
 40
1.0
176
     1
 40
1.0
176
     1
  0
VISUALSTYLE
  5
3A
102
{ACAD_REACTORS
330
2A
102
}
330
2A
100
AcDbVisualStyle
  2
ColorChange
 70
    16
177
     3
291
     1
 70
    58
 90
        2
176
     1
 90
        2
176
     1
 90
        3
176
     1
 90
        0
176
     1
 40
0.6
176
     1
 40
30.0
176
     1
 62
     8
420
  8421504
176
     1
 90
        1
176
     1
 90
        4
176
     1
 62
     7
176
     1
 62
   257
176
     1
 90
        1
176
     1
 90
        1
176
     1
 40
1.0
176
     1
 90
        8
176
     1
 62
     8
420
  8421504
176
     1
 40
1.0
176
     1
 90
        1
176
     1
 90
        6
176
     1
 90
        2
176
     1
 62
     7
176
     1
 90
        5
176
     1
 90
        0
176
     1
 90
        0
176
     1
290
     0
176
     1
 90
        1
176
     1
 40
0.0
176
     1
 90
        0
176
     1
290
     0
176
     1
290
     1
176
     1
290
     1
176
     1
290
     0
176
     1
290
     0
176
     1
290
     0
176
     1
290
     0
176
     1
290
     0
176
     1
290
     0
176
     1
 90
       50
176
     1
 40
0.0
176
     1
 40
1.0
176
     1
 90
        0
176
     1
 62
    18
176
     1
 90
       50
176
     1
 90
        3
176
     1
 62
     5
420
      255
176
     1
290
     0
176
     1
 90
       50
176
     1
 90
       50
176
     1
 90
       50
176
     1
290
     0
176
     1
 90
       50
176
     1
 62
   256
176
     0
 40
1.0
176
     0
 90
        2
176
     1
  1
strokes_ogs.tif
176
     1
290
     0
176
     1
 40
1.0
176
     1
 40
1.0
176
     1
  0
VISUALSTYLE
  5
34
102
{ACAD_REACTORS
330
2A
102
}
330
2A
100
AcDbVisualStyle
  2
Conceptual
 70
     9
177
     3
291
     0
 70
    58
 90
        3
176
     1
 90
        2
176
     1
 90
        0
176
     1
 90
        0
176
     1
 40
0.6
176
     1
 40
30.0
176
     1
 62
     7
420
 16777215
176
     1
 90
        2
176
     1
 90
        2
176
     1
 62
     7
176
     1
 62
   257
176
     1
 90
        1
176
     1
 90
        1
176
     1
 40
40.0
176
     1
 90
        8
176
     1
 62
     7
176
     1
 40
1.0
176
     1
 90
        1
176
     1
 90
        6
176
     1
 90
        2
176
     1
 62
     7
176
     1
 90
        3
176
     1
 90
        0
176
     1
 90
        0
176
     1
290
     0
176
     1
 90
        1
176
     1
 40
0.0
176
     1
 90
        0
176
     1
290
     0
176
     1
290
     1
176
     1
290
     1
176
     1
290
     0
176
     1
290
     0
176
     1
290
     0
176
     1
290
     0
176
     1
290
     0
176
     1
290
     0
176
     1
 90
       50
176
     1
 40
0.0
176
     1
 40
1.0
176
     1
 90
        0
176
     1
 62
    18
176
     1
 90
       50
176
     1
 90
        3
176
     1
 62
     5
420
      255
176
     1
290
     0
176
     1
 90
       50
176
     1
 90
       50
176
     1
 90
       50
176
     1
290
     0
176
     1
 90
       50
176
     1
 62
   256
176
     0
 40
1.0
176
     0
 90
        2
176
     1
  1
strokes_ogs.tif
176
     1
290
     0
176
     1
 40
1.0
176
     1
 40
1.0
176
     1
  0
VISUALSTYLE
  5
35
102
{ACAD_REACTORS
330
2A
102
}
330
2A
100
AcDbVisualStyle
  2
Dim
 70
    11
177
     3
291
     1
 70
    58
 90
        2
176
     1
 90
        2
176
     1
 90
        0
176
     1
 90
        0
176
     1
 40
0.6
176
     1
 40
30.0
176
     1
 62
     7
420
 16777215
176
     1
 90
        1
176
     1
 90
        4
176
     1
 62
     7
176
     1
 62
   257
176
     1
 90
        1
176
     1
 90
        1
176
     1
 40
1.0
176
     1
 90
        8
176
     1
 62
     7
176
     1
 40
1.0
176
     1
 90
        1
176
     1
 90
        6
176
     1
 90
        2
176
     1
 62
     7
176
     1
 90
        5
176
     1
 90
        0
176
     1
 90
        0
176
     1
290
     0
176
     1
 90
        1
176
     1
 40
-50.0
176
     1
 90
        0
176
     1
290
     0
176
     1
290
     1
176
     1
290
     1
176
     1
290
     0
176
     1
290
     0
176
     1
290
     0
176
     1
290
     0
176
     1
290
     0
176
     1
290
     0
176
     1
 90
       50
176
     1
 40
0.0
176
     1
 40
1.0
176
     1
 90
        0
176
     1
 62
    18
176
     1
 90
       50
176
     1
 90
        3
176
     1
 62
     5
420
      255
176
     1
290
     0
176
     1
 90
       50
176
     1
 90
       50
176
     1
 90
       50
176
     1
290
     0
176
     1
 90
       50
176
     1
 62
   256
176
     0
 40
1.0
176
     0
 90
        2
176
     1
  1
strokes_ogs.tif
176
     1
290
     0
176
     1
 40
1.0
176
     1
 40
1.0
176
     1
  0
VISUALSTYLE
  5
2C36
102
{ACAD_REACTORS
330
2A
102
}
330
2A
100
AcDbVisualStyle
  2
EdgeColorOff
 70
    22
177
     3
291
     1
 70
    58
 90
        2
176
     0
 90
        2
176
     0
 90
        0
176
     0
 90
        0
176
     0
 40
0.6
176
     0
 40
30.0
176
     0
 62
     7
420
 16777215
176
     0
 90
        1
176
     0
 90
        4
176
     0
 62
     7
176
     0
 62
   257
176
     0
 90
        1
176
     0
 90
        1
176
     0
 40
1.0
176
     0
 90
        8
176
     2
 62
     7
176
     0
 40
1.0
176
     0
 90
        1
176
     0
 90
        6
176
     0
 90
        2
176
     0
 62
     7
176
     0
 90
        5
176
     0
 90
        0
176
     0
 90
        0
176
     0
290
     0
176
     0
 90
        1
176
     0
 40
0.0
176
     0
 90
        0
176
     0
290
     0
176
     1
290
     1
176
     1
290
     1
176
     1
290
     0
176
     1
290
     0
176
     1
290
     0
176
     1
290
     0
176
     1
290
     0
176
     1
290
     0
176
     1
 90
       50
176
     0
 40
0.0
176
     0
 40
1.0
176
     0
 90
        0
176
     0
 62
    18
176
     0
 90
       50
176
     0
 90
        3
176
     0
 62
     5
420
      255
176
     0
290
     0
176
     1
 90
       50
176
     0
 90
       50
176
     0
 90
       50
176
     0
290
     0
176
     1
 90
       50
176
     0
 62
   256
176
     0
 40
1.0
176
     0
 90
        2
176
     0
  1
strokes_ogs.tif
176
     0
290
     0
176
     1
 40
1.0
176
     0
 40
1.0
176
     0
  0
VISUALSTYLE
  5
39
102
{ACAD_REACTORS
330
2A
102
}
330
2A
100
AcDbVisualStyle
  2
Facepattern
 70
    15
177
     3
291
     1
 70
    58
 90
        2
176
     1
 90
        2
176
     1
 90
        0
176
     1
 90
        0
176
     1
 40
0.6
176
     1
 40
30.0
176
     1
 62
     7
420
 16777215
176
     1
 90
        1
176
     1
 90
        4
176
     1
 62
     7
176
     1
 62
   257
176
     1
 90
        1
176
     1
 90
        1
176
     1
 40
1.0
176
     1
 90
        8
176
     1
 62
     7
176
     1
 40
1.0
176
     1
 90
        1
176
     1
 90
        6
176
     1
 90
        2
176
     1
 62
     7
176
     1
 90
        5
176
     1
 90
        0
176
     1
 90
        0
176
     1
290
     0
176
     1
 90
        1
176
     1
 40
0.0
176
     1
 90
        0
176
     1
290
     0
176
     1
290
     1
176
     1
290
     1
176
     1
290
     0
176
     1
290
     0
176
     1
290
     0
176
     1
290
     0
176
     1
290
     0
176
     1
290
     0
176
     1
 90
       50
176
     1
 40
0.0
176
     1
 40
1.0
176
     1
 90
        0
176
     1
 62
    18
176
     1
 90
       50
176
     1
 90
        3
176
     1
 62
     5
420
      255
176
     1
290
     0
176
     1
 90
       50
176
     1
 90
       50
176
     1
 90
       50
176
     1
290
     0
176
     1
 90
       50
176
     1
 62
   256
176
     0
 40
1.0
176
     0
 90
        2
176
     1
  1
strokes_ogs.tif
176
     1
290
     0
176
     1
 40
1.0
176
     1
 40
1.0
176
     1
  0
VISUALSTYLE
  5
2B
102
{ACAD_REACTORS
330
2A
102
}
330
2A
100
AcDbVisualStyle
  2
Flat
 70
     0
177
     3
291
     1
 70
    58
 90
        2
176
     1
 90
        1
176
     1
 90
        1
176
     1
 90
        2
176
     1
 40
0.6
176
     1
 40
30.0
176
     1
 62
     7
420
 16777215
176
     1
 90
        0
176
     1
 90
        4
176
     1
 62
     7
176
     1
 62
   257
176
     1
 90
        1
176
     1
 90
        1
176
     1
 40
1.0
176
     1
 90
        8
176
     1
 62
     7
176
     1
 40
1.0
176
     1
 90
        1
176
     1
 90
        6
176
     1
 90
        2
176
     1
 62
     7
176
     1
 90
        5
176
     1
 90
        0
176
     1
 90
        0
176
     1
290
     0
176
     1
 90
       13
176
     1
 40
0.0
176
     1
 90
        0
176
     1
290
     0
176
     1
290
     1
176
     1
290
     1
176
     1
290
     0
176
     1
290
     0
176
     1
290
     0
176
     1
290
     0
176
     1
290
     0
176
     1
290
     0
176
     1
 90
       50
176
     1
 40
0.0
176
     1
 40
1.0
176
     1
 90
        0
176
     1
 62
    18
176
     1
 90
       50
176
     1
 90
        3
176
     1
 62
     5
420
      255
176
     1
290
     0
176
     1
 90
       50
176
     1
 90
       50
176
     1
 90
       50
176
     1
290
     0
176
     1
 90
       50
176
     1
 62
   256
176
     0
 40
1.0
176
     0
 90
        2
176
     1
  1
strokes_ogs.tif
176
     1
290
     0
176
     1
 40
1.0
176
     1
 40
1.0
176
     1
  0
VISUALSTYLE
  5
2C
102
{ACAD_REACTORS
330
2A
102
}
330
2A
100
AcDbVisualStyle
  2
FlatWithEdges
 70
     1
177
     3
291
     1
 70
    58
 90
        2
176
     1
 90
        1
176
     1
 90
        1
176
     1
 90
        2
176
     1
 40
0.6
176
     1
 40
30.0
176
     1
 62
     7
420
 16777215
176
     1
 90
        1
176
     1
 90
        4
176
     1
 62
     7
176
     1
 62
   257
176
     1
 90
        1
176
     1
 90
        1
176
     1
 40
1.0
176
     1
 90
        0
176
     1
 62
   257
176
     1
 40
1.0
176
     1
 90
        1
176
     1
 90
        6
176
     1
 90
        2
176
     1
 62
     7
176
     1
 90
        5
176
     1
 90
        0
176
     1
 90
        0
176
     1
290
     0
176
     1
 90
       13
176
     1
 40
0.0
176
     1
 90
        0
176
     1
290
     0
176
     1
290
     1
176
     1
290
     1
176
     1
290
     0
176
     1
290
     0
176
     1
290
     0
176
     1
290
     0
176
     1
290
     0
176
     1
290
     0
176
     1
 90
       50
176
     1
 40
0.0
176
     1
 40
1.0
176
     1
 90
        0
176
     1
 62
    18
176
     1
 90
       50
176
     1
 90
        3
176
     1
 62
     5
420
      255
176
     1
290
     0
176
     1
 90
       50
176
     1
 90
       50
176
     1
 90
       50
176
     1
290
     0
176
     1
 90
       50
176
     1
 62
   256
176
     0
 40
1.0
176
     0
 90
        2
176
     1
  1
strokes_ogs.tif
176
     1
290
     0
176
     1
 40
1.0
176
     1
 40
1.0
176
     1
  0
VISUALSTYLE
  5
2D
102
{ACAD_REACTORS
330
2A
102
}
330
2A
100
AcDbVisualStyle
  2
Gouraud
 70
     2
177
     3
291
     1
 70
    58
 90
        2
176
     1
 90
        2
176
     1
 90
        1
176
     1
 90
        2
176
     1
 40
0.6
176
     1
 40
30.0
176
     1
 62
     7
420
 16777215
176
     1
 90
        0
176
     1
 90
        4
176
     1
 62
     7
176
     1
 62
   257
176
     1
 90
        1
176
     1
 90
        1
176
     1
 40
1.0
176
     1
 90
        0
176
     1
 62
     7
176
     1
 40
1.0
176
     1
 90
        1
176
     1
 90
        6
176
     1
 90
        2
176
     1
 62
     7
176
     1
 90
        5
176
     1
 90
        0
176
     1
 90
        0
176
     1
290
     0
176
     1
 90
       13
176
     1
 40
0.0
176
     1
 90
        0
176
     1
290
     0
176
     1
290
     1
176
     1
290
     1
176
     1
290
     0
176
     1
290
     0
176
     1
290
     0
176
     1
290
     0
176
     1
290
     0
176
     1
290
     0
176
     1
 90
       50
176
     1
 40
0.0
176
     1
 40
1.0
176
     1
 90
        0
176
     1
 62
    18
176
     1
 90
       50
176
     1
 90
        3
176
     1
 62
     5
420
      255
176
     1
290
     0
176
     1
 90
       50
176
     1
 90
       50
176
     1
 90
       50
176
     1
290
     0
176
     1
 90
       50
176
     1
 62
   256
176
     0
 40
1.0
176
     0
 90
        2
176
     1
  1
strokes_ogs.tif
176
     1
290
     0
176
     1
 40
1.0
176
     1
 40
1.0
176
     1
  0
VISUALSTYLE
  5
2E
102
{ACAD_REACTORS
330
2A
102
}
330
2A
100
AcDbVisualStyle
  2
GouraudWithEdges
 70
     3
177
     3
291
     1
 70
    58
 90
        2
176
     1
 90
        2
176
     1
 90
        1
176
     1
 90
        2
176
     1
 40
0.6
176
     1
 40
30.0
176
     1
 62
     7
420
 16777215
176
     1
 90
        1
176
     1
 90
        4
176
     1
 62
     7
176
     1
 62
   257
176
     1
 90
        1
176
     1
 90
        1
176
     1
 40
1.0
176
     1
 90
        0
176
     1
 62
   257
176
     1
 40
1.0
176
     1
 90
        1
176
     1
 90
        6
176
     1
 90
        2
176
     1
 62
     7
176
     1
 90
        5
176
     1
 90
        0
176
     1
 90
        0
176
     1
290
     0
176
     1
 90
       13
176
     1
 40
0.0
176
     1
 90
        0
176
     1
290
     0
176
     1
290
     1
176
     1
290
     1
176
     1
290
     0
176
     1
290
     0
176
     1
290
     0
176
     1
290
     0
176
     1
290
     0
176
     1
290
     0
176
     1
 90
       50
176
     1
 40
0.0
176
     1
 40
1.0
176
     1
 90
        0
176
     1
 62
    18
176
     1
 90
       50
176
     1
 90
        3
176
     1
 62
     5
420
      255
176
     1
290
     0
176
     1
 90
       50
176
     1
 90
       50
176
     1
 90
       50
176
     1
290
     0
176
     1
 90
       50
176
     1
 62
   256
176
     0
 40
1.0
176
     0
 90
        2
176
     1
  1
strokes_ogs.tif
176
     1
290
     0
176
     1
 40
1.0
176
     1
 40
1.0
176
     1
  0
VISUALSTYLE
  5
2C2E
102
{ACAD_REACTORS
330
2A
102
}
330
2A
100
AcDbVisualStyle
  2
Hidden
 70
     6
177
     3
291
     0
 70
    58
 90
        1
176
     1
 90
        2
176
     1
 90
        2
176
     1
 90
        0
176
     1
 40
0.6
176
     1
 40
30.0
176
     1
 62
     7
420
 16777215
176
     1
 90
        2
176
     1
 90
        2
176
     1
 62
     7
176
     1
 62
   257
176
     1
 90
        2
176
     1
 90
        1
176
     1
 40
40.0
176
     1
 90
        0
176
     1
 62
   257
176
     1
 40
1.0
176
     1
 90
        1
176
     1
 90
        6
176
     1
 90
        2
176
     1
 62
     7
176
     1
 90
        3
176
     1
 90
        0
176
     1
 90
        0
176
     1
290
     0
176
     1
 90
        1
176
     1
 40
0.0
176
     1
 90
        0
176
     1
290
     0
176
     1
290
     1
176
     1
290
     1
176
     1
290
     0
176
     1
290
     0
176
     1
290
     0
176
     1
290
     0
176
     1
290
     0
176
     1
290
     0
176
     1
 90
       50
176
     1
 40
0.0
176
     1
 40
1.0
176
     1
 90
        0
176
     1
 62
    18
176
     1
 90
       50
176
     1
 90
        3
176
     1
 62
     5
420
      255
176
     1
290
     0
176
     1
 90
       50
176
     1
 90
       50
176
     1
 90
       50
176
     1
290
     0
176
     1
 90
       50
176
     1
 62
   256
176
     0
 40
1.0
176
     0
 90
        2
176
     1
  1
strokes_ogs.tif
176
     1
290
     0
176
     1
 40
1.0
176
     1
 40
1.0
176
     1
  0
VISUALSTYLE
  5
2C34
102
{ACAD_REACTORS
330
2A
102
}
330
2A
100
AcDbVisualStyle
  2
JitterOff
 70
    20
177
     3
291
     1
 70
    58
 90
        2
176
     0
 90
        2
176
     0
 90
        0
176
     0
 90
        0
176
     0
 40
0.6
176
     0
 40
30.0
176
     0
 62
     7
420
 16777215
176
     0
 90
        1
176
     0
 90
        4
176
     0
 62
     7
176
     0
 62
   257
176
     0
 90
        1
176
     0
 90
        1
176
     0
 40
1.0
176
     0
 90
       10
176
     2
 62
     7
176
     0
 40
1.0
176
     0
 90
        1
176
     0
 90
        6
176
     0
 90
        2
176
     0
 62
     7
176
     0
 90
        5
176
     0
 90
        0
176
     0
 90
        0
176
     0
290
     0
176
     0
 90
        1
176
     0
 40
0.0
176
     0
 90
        0
176
     0
290
     0
176
     1
290
     1
176
     1
290
     1
176
     1
290
     0
176
     1
290
     0
176
     1
290
     0
176
     1
290
     0
176
     1
290
     0
176
     1
290
     0
176
     1
 90
       50
176
     0
 40
0.0
176
     0
 40
1.0
176
     0
 90
        0
176
     0
 62
    18
176
     0
 90
       50
176
     0
 90
        3
176
     0
 62
     5
420
      255
176
     0
290
     0
176
     1
 90
       50
176
     0
 90
       50
176
     0
 90
       50
176
     0
290
     0
176
     1
 90
       50
176
     0
 62
   256
176
     0
 40
1.0
176
     0
 90
        2
176
     0
  1
strokes_ogs.tif
176
     0
290
     0
176
     1
 40
1.0
176
     0
 40
1.0
176
     0
  0
VISUALSTYLE
  5
38
102
{ACAD_REACTORS
330
2A
102
}
330
2A
100
AcDbVisualStyle
  2
Linepattern
 70
    14
177
     3
291
     1
 70
    58
 90
        2
176
     1
 90
        2
176
     1
 90
        0
176
     1
 90
        0
176
     1
 40
0.6
176
     1
 40
30.0
176
     1
 62
     7
420
 16777215
176
     1
 90
        1
176
     1
 90
        4
176
     1
 62
     7
176
     1
 62
   257
176
     1
 90
        7
176
     1
 90
        7
176
     1
 40
1.0
176
     1
 90
        8
176
     1
 62
     7
176
     1
 40
1.0
176
     1
 90
        1
176
     1
 90
        6
176
     1
 90
        2
176
     1
 62
     7
176
     1
 90
        5
176
     1
 90
        0
176
     1
 90
        0
176
     1
290
     0
176
     1
 90
        1
176
     1
 40
0.0
176
     1
 90
        0
176
     1
290
     0
176
     1
290
     1
176
     1
290
     1
176
     1
290
     0
176
     1
290
     0
176
     1
290
     0
176
     1
290
     0
176
     1
290
     0
176
     1
290
     0
176
     1
 90
       50
176
     1
 40
0.0
176
     1
 40
1.0
176
     1
 90
        0
176
     1
 62
    18
176
     1
 90
       50
176
     1
 90
        3
176
     1
 62
     5
420
      255
176
     1
290
     0
176
     1
 90
       50
176
     1
 90
       50
176
     1
 90
       50
176
     1
290
     0
176
     1
 90
       50
176
     1
 62
   256
176
     0
 40
1.0
176
     0
 90
        2
176
     1
  1
strokes_ogs.tif
176
     1
290
     0
176
     1
 40
1.0
176
     1
 40
1.0
176
     1
  0
VISUALSTYLE
  5
2C35
102
{ACAD_REACTORS
330
2A
102
}
330
2A
100
AcDbVisualStyle
  2
OverhangOff
 70
    21
177
     3
291
     1
 70
    58
 90
        2
176
     0
 90
        2
176
     0
 90
        0
176
     0
 90
        0
176
     0
 40
0.6
176
     0
 40
30.0
176
     0
 62
     7
420
 16777215
176
     0
 90
        1
176
     0
 90
        4
176
     0
 62
     7
176
     0
 62
   257
176
     0
 90
        1
176
     0
 90
        1
176
     0
 40
1.0
176
     0
 90
        9
176
     2
 62
     7
176
     0
 40
1.0
176
     0
 90
        1
176
     0
 90
        6
176
     0
 90
        2
176
     0
 62
     7
176
     0
 90
        5
176
     0
 90
        0
176
     0
 90
        0
176
     0
290
     0
176
     0
 90
        1
176
     0
 40
0.0
176
     0
 90
        0
176
     0
290
     0
176
     1
290
     1
176
     1
290
     1
176
     1
290
     0
176
     1
290
     0
176
     1
290
     0
176
     1
290
     0
176
     1
290
     0
176
     1
290
     0
176
     1
 90
       50
176
     0
 40
0.0
176
     0
 40
1.0
176
     0
 90
        0
176
     0
 62
    18
176
     0
 90
       50
176
     0
 90
        3
176
     0
 62
     5
420
      255
176
     0
290
     0
176
     1
 90
       50
176
     0
 90
       50
176
     0
 90
       50
176
     0
290
     0
176
     1
 90
       50
176
     0
 62
   256
176
     0
 40
1.0
176
     0
 90
        2
176
     0
  1
strokes_ogs.tif
176
     0
290
     0
176
     1
 40
1.0
176
     0
 40
1.0
176
     0
  0
VISUALSTYLE
  5
33
102
{ACAD_REACTORS
330
2A
102
}
330
2A
100
AcDbVisualStyle
  2
Realistic
 70
     8
177
     3
291
     0
 70
    58
 90
        2
176
     1
 90
        2
176
     1
 90
        0
176
     1
 90
        0
176
     1
 40
0.6
176
     1
 40
30.0
176
     1
 62
     7
420
 16777215
176
     1
 90
        1
176
     1
 90
        0
176
     1
 62
     7
176
     1
 62
   257
176
     1
 90
        1
176
     1
 90
        1
176
     1
 40
1.0
176
     1
 90
        8
176
     1
 62
     8
420
  7895160
176
     1
 40
1.0
176
     1
 90
        1
176
     1
 90
        6
176
     1
 90
        2
176
     1
 62
     7
176
     1
 90
        5
176
     1
 90
        0
176
     1
 90
        0
176
     1
290
     0
176
     1
 90
       13
176
     1
 40
0.0
176
     1
 90
        0
176
     1
290
     0
176
     1
290
     1
176
     1
290
     1
176
     1
290
     0
176
     1
290
     0
176
     1
290
     0
176
     1
290
     0
176
     1
290
     0
176
     1
290
     0
176
     1
 90
       50
176
     1
 40
0.0
176
     1
 40
1.0
176
     1
 90
        0
176
     1
 62
    18
176
     1
 90
       50
176
     1
 90
        3
176
     1
 62
     5
420
      255
176
     1
290
     0
176
     1
 90
       50
176
     1
 90
       50
176
     1
 90
       50
176
     1
290
     0
176
     1
 90
       50
176
     1
 62
   256
176
     0
 40
1.0
176
     0
 90
        2
176
     1
  1
strokes_ogs.tif
176
     1
290
     0
176
     1
 40
1.0
176
     1
 40
1.0
176
     1
  0
VISUALSTYLE
  5
2C33
102
{ACAD_REACTORS
330
2A
102
}
330
2A
100
AcDbVisualStyle
  2
Shaded
 70
    27
177
     3
291
     0
 70
    58
 90
        2
176
     1
 90
        2
176
     1
 90
        1
176
     1
 90
        2
176
     1
 40
0.6
176
     1
 40
30.0
176
     1
 62
     7
420
 16777215
176
     1
 90
        0
176
     1
 90
        4
176
     1
 62
     7
176
     1
 62
   257
176
     1
 90
        1
176
     1
 90
        1
176
     1
 40
1.0
176
     1
 90
        8
176
     1
 62
   257
176
     1
 40
1.0
176
     1
 90
        1
176
     1
 90
        6
176
     1
 90
        2
176
     1
 62
     8
420
  7895160
176
     1
 90
        3
176
     1
 90
        0
176
     1
 90
        0
176
     1
290
     0
176
     1
 90
        5
176
     1
 40
0.0
176
     1
 90
        0
176
     1
290
     0
176
     1
290
     1
176
     1
290
     1
176
     1
290
     0
176
     1
290
     0
176
     1
290
     0
176
     1
290
     0
176
     1
290
     0
176
     1
290
     0
176
     1
 90
       50
176
     1
 40
0.0
176
     1
 40
1.0
176
     1
 90
        0
176
     1
 62
    18
176
     1
 90
       50
176
     1
 90
        3
176
     1
 62
     5
420
      255
176
     1
290
     0
176
     1
 90
       50
176
     1
 90
       50
176
     1
 90
       50
176
     1
290
     0
176
     1
 90
       50
176
     1
 62
   256
176
     0
 40
1.0
176
     0
 90
        2
176
     1
  1
strokes_ogs.tif
176
     1
290
     0
176
     1
 40
1.0
176
     1
 40
1.0
176
     1
  0
VISUALSTYLE
  5
2C32
102
{ACAD_REACTORS
330
2A
102
}
330
2A
100
AcDbVisualStyle
  2
Shaded with edges
 70
    26
177
     3
291
     0
 70
    58
 90
        2
176
     1
 90
        2
176
     1
 90
        1
176
     1
 90
        2
176
     1
 40
0.6
176
     1
 40
30.0
176
     1
 62
     7
420
 16777215
176
     1
 90
        1
176
     1
 90
       10
176
     1
 62
     7
176
     1
 62
   257
176
     1
 90
        2
176
     1
 90
        1
176
     1
 40
1.0
176
     1
 90
        8
176
     1
 62
   257
176
     1
 40
1.0
176
     1
 90
        1
176
     1
 90
        6
176
     1
 90
        2
176
     1
 62
     7
176
     1
 90
        3
176
     1
 90
        0
176
     1
 90
        0
176
     1
290
     0
176
     1
 90
        5
176
     1
 40
0.0
176
     1
 90
        0
176
     1
290
     0
176
     1
290
     1
176
     1
290
     1
176
     1
290
     0
176
     1
290
     0
176
     1
290
     0
176
     1
290
     0
176
     1
290
     0
176
     1
290
     0
176
     1
 90
       50
176
     1
 40
0.0
176
     1
 40
1.0
176
     1
 90
        0
176
     1
 62
    18
176
     1
 90
       50
176
     1
 90
        3
176
     1
 62
     5
420
      255
176
     1
290
     0
176
     1
 90
       50
176
     1
 90
       50
176
     1
 90
       50
176
     1
290
     0
176
     1
 90
       50
176
     1
 62
   256
176
     0
 40
1.0
176
     0
 90
        2
176
     1
  1
strokes_ogs.tif
176
     1
290
     0
176
     1
 40
1.0
176
     1
 40
1.0
176
     1
  0
VISUALSTYLE
  5
2C2F
102
{ACAD_REACTORS
330
2A
102
}
330
2A
100
AcDbVisualStyle
  2
Shades of Gray
 70
    23
177
     3
291
     0
 70
    58
 90
        2
176
     1
 90
        2
176
     1
 90
        3
176
     1
 90
        0
176
     1
 40
0.6
176
     1
 40
30.0
176
     1
 62
     7
420
 16777215
176
     1
 90
        2
176
     1
 90
        2
176
     1
 62
     7
176
     1
 62
     7
176
     1
 90
        1
176
     1
 90
        1
176
     1
 40
40.0
176
     1
 90
        8
176
     1
 62
     7
176
     1
 40
1.0
176
     1
 90
        1
176
     1
 90
        6
176
     1
 90
        2
176
     1
 62
     7
176
     1
 90
        3
176
     1
 90
        0
176
     1
 90
        0
176
     1
290
     0
176
     1
 90
        1
176
     1
 40
0.0
176
     1
 90
        0
176
     1
290
     0
176
     1
290
     1
176
     1
290
     1
176
     1
290
     0
176
     1
290
     0
176
     1
290
     0
176
     1
290
     0
176
     1
290
     0
176
     1
290
     0
176
     1
 90
       50
176
     1
 40
0.0
176
     1
 40
1.0
176
     1
 90
        0
176
     1
 62
    18
176
     1
 90
       50
176
     1
 90
        3
176
     1
 62
     5
420
      255
176
     1
290
     0
176
     1
 90
       50
176
     1
 90
       50
176
     1
 90
       50
176
     1
290
     0
176
     1
 90
       50
176
     1
 62
   256
176
     0
 40
1.0
176
     0
 90
        2
176
     1
  1
strokes_ogs.tif
176
     1
290
     0
176
     1
 40
1.0
176
     1
 40
1.0
176
     1
  0
VISUALSTYLE
  5
2C30
102
{ACAD_REACTORS
330
2A
102
}
330
2A
100
AcDbVisualStyle
  2
Sketchy
 70
    24
177
     3
291
     0
 70
    58
 90
        1
176
     1
 90
        2
176
     1
 90
        2
176
     1
 90
        0
176
     1
 40
0.6
176
     1
 40
30.0
176
     1
 62
     7
420
 16777215
176
     1
 90
        2
176
     1
 90
        2
176
     1
 62
     7
176
     1
 62
     7
176
     1
 90
        1
176
     1
 90
        1
176
     1
 40
40.0
176
     1
 90
       11
176
     1
 62
     7
176
     1
 40
1.0
176
     1
 90
        1
176
     1
 90
        6
176
     1
 90
        2
176
     1
 62
     7
176
     1
 90
        6
176
     1
 90
        0
176
     1
 90
        0
176
     1
290
     0
176
     1
 90
        1
176
     1
 40
0.0
176
     1
 90
        0
176
     1
290
     0
176
     1
290
     1
176
     1
290
     1
176
     1
290
     0
176
     1
290
     0
176
     1
290
     0
176
     1
290
     0
176
     1
290
     0
176
     1
290
     0
176
     1
 90
       50
176
     1
 40
0.0
176
     1
 40
1.0
176
     1
 90
        0
176
     1
 62
    18
176
     1
 90
       50
176
     1
 90
        3
176
     1
 62
     5
420
      255
176
     1
290
     0
176
     1
 90
       50
176
     1
 90
       50
176
     1
 90
       50
176
     1
290
     0
176
     1
 90
       50
176
     1
 62
   256
176
     0
 40
1.0
176
     0
 90
        2
176
     1
  1
strokes_ogs.tif
176
     1
290
     0
176
     1
 40
1.0
176
     1
 40
1.0
176
     1
  0
VISUALSTYLE
  5
37
102
{ACAD_REACTORS
330
2A
102
}
330
2A
100
AcDbVisualStyle
  2
Thicken
 70
    13
177
     3
291
     1
 70
    58
 90
        2
176
     1
 90
        2
176
     1
 90
        0
176
     1
 90
        0
176
     1
 40
0.6
176
     1
 40
30.0
176
     1
 62
     7
420
 16777215
176
     1
 90
        1
176
     1
 90
        4
176
     1
 62
     7
176
     1
 62
   257
176
     1
 90
        1
176
     1
 90
        1
176
     1
 40
1.0
176
     1
 90
       12
176
     1
 62
     7
176
     1
 40
1.0
176
     1
 90
        1
176
     1
 90
        6
176
     1
 90
        2
176
     1
 62
     7
176
     1
 90
        5
176
     1
 90
        0
176
     1
 90
        0
176
     1
290
     0
176
     1
 90
        1
176
     1
 40
0.0
176
     1
 90
        0
176
     1
290
     0
176
     1
290
     1
176
     1
290
     1
176
     1
290
     0
176
     1
290
     0
176
     1
290
     0
176
     1
290
     0
176
     1
290
     0
176
     1
290
     0
176
     1
 90
       50
176
     1
 40
0.0
176
     1
 40
1.0
176
     1
 90
        0
176
     1
 62
    18
176
     1
 90
       50
176
     1
 90
        3
176
     1
 62
     5
420
      255
176
     1
290
     0
176
     1
 90
       50
176
     1
 90
       50
176
     1
 90
       50
176
     1
290
     0
176
     1
 90
       50
176
     1
 62
   256
176
     0
 40
1.0
176
     0
 90
        2
176
     1
  1
strokes_ogs.tif
176
     1
290
     0
176
     1
 40
1.0
176
     1
 40
1.0
176
     1
  0
VISUALSTYLE
  5
2C2D
102
{ACAD_REACTORS
330
2A
102
}
330
2A
100
AcDbVisualStyle
  2
Wireframe
 70
     5
177
     3
291
     0
 70
    58
 90
        0
176
     1
 90
        2
176
     1
 90
        0
176
     1
 90
        0
176
     1
 40
0.6
176
     1
 40
30.0
176
     1
 62
     7
420
 16777215
176
     1
 90
        1
176
     1
 90
        4
176
     1
 62
     7
176
     1
 62
   257
176
     1
 90
        1
176
     1
 90
        1
176
     1
 40
1.0
176
     1
 90
        0
176
     1
 62
   257
176
     1
 40
1.0
176
     1
 90
        1
176
     1
 90
        6
176
     1
 90
        2
176
     1
 62
     7
176
     1
 90
        3
176
     1
 90
        0
176
     1
 90
        0
176
     1
290
     0
176
     1
 90
        1
176
     1
 40
0.0
176
     1
 90
        0
176
     1
290
     0
176
     1
290
     1
176
     1
290
     1
176
     1
290
     0
176
     1
290
     0
176
     1
290
     0
176
     1
290
     0
176
     1
290
     0
176
     1
290
     0
176
     1
 90
       50
176
     1
 40
0.0
176
     1
 40
1.0
176
     1
 90
        0
176
     1
 62
    18
176
     1
 90
       50
176
     1
 90
        3
176
     1
 62
     5
420
      255
176
     1
290
     0
176
     1
 90
       50
176
     1
 90
       50
176
     1
 90
       50
176
     1
290
     0
176
     1
 90
       50
176
     1
 62
   256
176
     0
 40
1.0
176
     0
 90
        2
176
     1
  1
strokes_ogs.tif
176
     1
290
     0
176
     1
 40
1.0
176
     1
 40
1.0
176
     1
  0
VISUALSTYLE
  5
2C31
102
{ACAD_REACTORS
330
2A
102
}
330
2A
100
AcDbVisualStyle
  2
X-Ray
 70
    25
177
     3
291
     0
 70
    58
 90
        2
176
     1
 90
        2
176
     1
 90
        1
176
     1
 90
        1
176
     1
 40
0.5
176
     1
 40
30.0
176
     1
 62
     7
420
 16777215
176
     1
 90
        1
176
     1
 90
        0
176
     1
 62
     7
176
     1
 62
   257
176
     1
 90
        1
176
     1
 90
        1
176
     1
 40
1.0
176
     1
 90
        8
176
     1
 62
     7
176
     1
 40
1.0
176
     1
 90
        1
176
     1
 90
        6
176
     1
 90
        2
176
     1
 62
     7
176
     1
 90
        3
176
     1
 90
        0
176
     1
 90
        0
176
     1
290
     0
176
     1
 90
       13
176
     1
 40
0.0
176
     1
 90
        0
176
     1
290
     0
176
     1
290
     1
176
     1
290
     1
176
     1
290
     0
176
     1
290
     0
176
     1
290
     0
176
     1
290
     0
176
     1
290
     0
176
     1
290
     0
176
     1
 90
       50
176
     1
 40
0.0
176
     1
 40
1.0
176
     1
 90
        0
176
     1
 62
    18
176
     1
 90
       50
176
     1
 90
        3
176
     1
 62
     5
420
      255
176
     1
290
     0
176
     1
 90
       50
176
     1
 90
       50
176
     1
 90
       50
176
     1
290
     0
176
     1
 90
       50
176
     1
 62
   256
176
     0
 40
1.0
176
     0
 90
        2
176
     1
  1
strokes_ogs.tif
176
     1
290
     0
176
     1
 40
1.0
176
     1
 40
1.0
176
     1
  0
DICTIONARYVAR
  5
2C83
102
{ACAD_REACTORS
330
2C7E
102
}
330
2C7E
100
DictionaryVariables
280
     0
  1
1:1
  0
DICTIONARYVAR
  5
2C80
102
{ACAD_REACTORS
330
2C7E
102
}
330
2C7E
100
DictionaryVariables
280
     0
  1
STANDARD
  0
DICTIONARYVAR
  5
2C7F
102
{ACAD_REACTORS
330
2C7E
102
}
330
2C7E
100
DictionaryVariables
280
     0
  1
STANDARD
  0
DICTIONARYVAR
  5
2C81
102
{ACAD_REACTORS
330
2C7E
102
}
330
2C7E
100
DictionaryVariables
280
     0
  1
Imperial24
  0
DICTIONARYVAR
  5
2C82
102
{ACAD_REACTORS
330
2C7E
102
}
330
2C7E
100
DictionaryVariables
280
     0
  1
Imperial24
  0
DICTIONARY
  5
2C88
330
2C4F
100
AcDbDictionary
280
     1
281
     1
  3
ACAD_XREC_ROUNDTRIP
360
2CCC
  0
DICTIONARY
  5
2CC3
330
2C93
100
AcDbDictionary
280
     1
281
     1
  3
ACAD_XREC_ROUNDTRIP
360
2CCE
  0
DICTIONARY
  5
2C86
330
2C4D
100
AcDbDictionary
280
     1
281
     1
  3
ACAD_XREC_ROUNDTRIP
360
2CCB
  0
DICTIONARY
  5
2CC1
330
2C92
100
AcDbDictionary
280
     1
281
     1
  3
ACAD_XREC_ROUNDTRIP
360
2CCD
  0
DICTIONARY
  5
2C84
330
2C38
100
AcDbDictionary
280
     1
281
     1
  3
ACAD_ROUNDTRIP_2008_TABLESTYLE_CELLSTYLEMAP
360
2CCA
  0
XRECORD
  5
2CCC
102
{ACAD_REACTORS
330
2C88
102
}
330
2C88
100
AcDbXrecord
280
     1
102
DISPLAYNAME
  1
Imperial24
102
FLAGS
 90
        0
  0
XRECORD
  5
2CCE
102
{ACAD_REACTORS
330
2CC3
102
}
330
2CC3
100
AcDbXrecord
280
     1
102
DISPLAYNAME
  1
Metric50
102
FLAGS
 90
        0
  0
XRECORD
  5
2CCB
102
{ACAD_REACTORS
330
2C86
102
}
330
2C86
100
AcDbXrecord
280
     1
102
DISPLAYNAME
  1
Imperial24
102
FLAGS
 90
        0
  0
XRECORD
  5
2CCD
102
{ACAD_REACTORS
330
2CC1
102
}
330
2CC1
100
AcDbXrecord
280
     1
102
DISPLAYNAME
  1
Metric50
102
FLAGS
 90
        0
  0
CELLSTYLEMAP
  5
2CCA
102
{ACAD_REACTORS
330
2C84
102
}
330
2C84
100
AcDbCellStyleMap
 90
        3
300
CELLSTYLE
  1
TABLEFORMAT_BEGIN
 90
        5
170
     1
 91
        0
 92
    32768
 62
   257
 93
        1
300
CONTENTFORMAT
  1
CONTENTFORMAT_BEGIN
 90
        0
 91
        0
 92
      512
 93
        0
300

 40
0.0
140
1.0
 94
        5
 62
     0
340
11
144
0.25
309
CONTENTFORMAT_END
171
     1
301
MARGIN
  1
CELLMARGIN_BEGIN
 40
0.06
 40
0.06
 40
0.06
 40
0.06
 40
0.18
 40
0.18
309
CELLMARGIN_END
 94
        6
 95
        1
302
GRIDFORMAT
  1
GRIDFORMAT_BEGIN
 90
        0
 91
        1
 62
     0
 92
       -2
340
0
 93
        0
 40
0.045
309
GRIDFORMAT_END
 95
        2
302
GRIDFORMAT
  1
GRIDFORMAT_BEGIN
 90
        0
 91
        1
 62
     0
 92
       -2
340
0
 93
        0
 40
0.045
309
GRIDFORMAT_END
 95
        4
302
GRIDFORMAT
  1
GRIDFORMAT_BEGIN
 90
        0
 91
        1
 62
     0
 92
       -2
340
0
 93
        0
 40
0.045
309
GRIDFORMAT_END
 95
        8
302
GRIDFORMAT
  1
GRIDFORMAT_BEGIN
 90
        0
 91
        1
 62
     0
 92
       -2
340
0
 93
        0
 40
0.045
309
GRIDFORMAT_END
 95
       16
302
GRIDFORMAT
  1
GRIDFORMAT_BEGIN
 90
        0
 91
        1
 62
     0
 92
       -2
340
0
 93
        0
 40
0.045
309
GRIDFORMAT_END
 95
       32
302
GRIDFORMAT
  1
GRIDFORMAT_BEGIN
 90
        0
 91
        1
 62
     0
 92
       -2
340
0
 93
        0
 40
0.045
309
GRIDFORMAT_END
309
TABLEFORMAT_END
  1
CELLSTYLE_BEGIN
 90
        1
 91
        1
300
_TITLE
309
CELLSTYLE_END
300
CELLSTYLE
  1
TABLEFORMAT_BEGIN
 90
        5
170
     1
 91
        0
 92
        0
 62
   257
 93
        1
300
CONTENTFORMAT
  1
CONTENTFORMAT_BEGIN
 90
        0
 91
        0
 92
      512
 93
        0
300

 40
0.0
140
1.0
 94
        5
 62
     0
340
11
144
0.18
309
CONTENTFORMAT_END
171
     1
301
MARGIN
  1
CELLMARGIN_BEGIN
 40
0.06
 40
0.06
 40
0.06
 40
0.06
 40
0.18
 40
0.18
309
CELLMARGIN_END
 94
        6
 95
        1
302
GRIDFORMAT
  1
GRIDFORMAT_BEGIN
 90
        0
 91
        1
 62
     0
 92
       -2
340
0
 93
        0
 40
0.045
309
GRIDFORMAT_END
 95
        2
302
GRIDFORMAT
  1
GRIDFORMAT_BEGIN
 90
        0
 91
        1
 62
     0
 92
       -2
340
0
 93
        0
 40
0.045
309
GRIDFORMAT_END
 95
        4
302
GRIDFORMAT
  1
GRIDFORMAT_BEGIN
 90
        0
 91
        1
 62
     0
 92
       -2
340
0
 93
        0
 40
0.045
309
GRIDFORMAT_END
 95
        8
302
GRIDFORMAT
  1
GRIDFORMAT_BEGIN
 90
        0
 91
        1
 62
     0
 92
       -2
340
0
 93
        0
 40
0.045
309
GRIDFORMAT_END
 95
       16
302
GRIDFORMAT
  1
GRIDFORMAT_BEGIN
 90
        0
 91
        1
 62
     0
 92
       -2
340
0
 93
        0
 40
0.045
309
GRIDFORMAT_END
 95
       32
302
GRIDFORMAT
  1
GRIDFORMAT_BEGIN
 90
        0
 91
        1
 62
     0
 92
       -2
340
0
 93
        0
 40
0.045
309
GRIDFORMAT_END
309
TABLEFORMAT_END
  1
CELLSTYLE_BEGIN
 90
        2
 91
        1
300
_HEADER
309
CELLSTYLE_END
300
CELLSTYLE
  1
TABLEFORMAT_BEGIN
 90
        5
170
     1
 91
        0
 92
        0
 62
   257
 93
        1
300
CONTENTFORMAT
  1
CONTENTFORMAT_BEGIN
 90
        0
 91
        0
 92
      512
 93
        0
300

 40
0.0
140
1.0
 94
        2
 62
     0
340
11
144
0.18
309
CONTENTFORMAT_END
171
     1
301
MARGIN
  1
CELLMARGIN_BEGIN
 40
0.06
 40
0.06
 40
0.06
 40
0.06
 40
0.18
 40
0.18
309
CELLMARGIN_END
 94
        6
 95
        1
302
GRIDFORMAT
  1
GRIDFORMAT_BEGIN
 90
        0
 91
        1
 62
     0
 92
       -2
340
0
 93
        0
 40
0.045
309
GRIDFORMAT_END
 95
        2
302
GRIDFORMAT
  1
GRIDFORMAT_BEGIN
 90
        0
 91
        1
 62
     0
 92
       -2
340
0
 93
        0
 40
0.045
309
GRIDFORMAT_END
 95
        4
302
GRIDFORMAT
  1
GRIDFORMAT_BEGIN
 90
        0
 91
        1
 62
     0
 92
       -2
340
0
 93
        0
 40
0.045
309
GRIDFORMAT_END
 95
        8
302
GRIDFORMAT
  1
GRIDFORMAT_BEGIN
 90
        0
 91
        1
 62
     0
 92
       -2
340
0
 93
        0
 40
0.045
309
GRIDFORMAT_END
 95
       16
302
GRIDFORMAT
  1
GRIDFORMAT_BEGIN
 90
        0
 91
        1
 62
     0
 92
       -2
340
0
 93
        0
 40
0.045
309
GRIDFORMAT_END
 95
       32
302
GRIDFORMAT
  1
GRIDFORMAT_BEGIN
 90
        0
 91
        1
 62
     0
 92
       -2
340
0
 93
        0
 40
0.045
309
GRIDFORMAT_END
309
TABLEFORMAT_END
  1
CELLSTYLE_BEGIN
 90
        3
 91
        2
300
_DATA
309
CELLSTYLE_END
  0
ENDSEC
  0
SECTION
  2
ACDSDATA
 70
     2
 71
     6
  0
ACDSSCHEMA
 90
        0
  1
AcDb_Thumbnail_Schema
  2
AcDbDs::ID
280
    10
 91
        8
  2
Thumbnail_Data
280
    15
 91
        0
101
ACDSRECORD
 95
        0
 90
        1
  2
AcDbDs::TreatedAsObjectData
280
     1
291
     1
101
ACDSRECORD
 95
        0
 90
        2
  2
AcDbDs::Legacy
280
     1
291
     1
101
ACDSRECORD
  1
AcDbDs::ID
 90
        3
  2
AcDs:Indexable
280
     1
291
     1
101
ACDSRECORD
  1
AcDbDs::ID
 90
        4
  2
AcDbDs::HandleAttribute
280
     7
282
     1
  0
ACDSSCHEMA
 90
        1
  1
AcDbDs::TreatedAsObjectDataSchema
  2
AcDbDs::TreatedAsObjectData
280
     1
 91
        0
  0
ACDSSCHEMA
 90
        2
  1
AcDbDs::LegacySchema
  2
AcDbDs::Legacy
280
     1
 91
        0
  0
ACDSSCHEMA
 90
        3
  1
AcDbDs::IndexedPropertySchema
  2
AcDs:Indexable
280
     1
 91
        0
  0
ACDSSCHEMA
 90
        4
  1
AcDbDs::HandleAttributeSchema
  2
AcDbDs::HandleAttribute
280
     7
 91
        1
284
     1
  0
ACDSRECORD
 90
        0
  2
AcDbDs::ID
280
    10
320
22
  2
Thumbnail_Data
280
    15
 94
     1091
310
89504E470D0A1A0A0000000D49484452000001000000006F08030000003479EE6F00000300504C5445212830000000C8C8C80000000000000000000000000000000000000000000000000000330000660000990000CC0000FF0033000033330033660033990033CC0033FF0066000066330066660066990066CC0066FF0099
310
000099330099660099990099CC0099FF00CC0000CC3300CC6600CC9900CCCC00CCFF00FF0000FF3300FF6600FF9900FFCC00FFFF3300003300333300663300993300CC3300FF3333003333333333663333993333CC3333FF3366003366333366663366993366CC3366FF3399003399333399663399993399CC3399FF33CC00
310
33CC3333CC6633CC9933CCCC33CCFF33FF0033FF3333FF6633FF9933FFCC33FFFF6600006600336600666600996600CC6600FF6633006633336633666633996633CC6633FF6666006666336666666666996666CC6666FF6699006699336699666699996699CC6699FF66CC0066CC3366CC6666CC9966CCCC66CCFF66FF0066
310
FF3366FF6666FF9966FFCC66FFFF9900009900339900669900999900CC9900FF9933009933339933669933999933CC9933FF9966009966339966669966999966CC9966FF9999009999339999669999999999CC9999FF99CC0099CC3399CC6699CC9999CCCC99CCFF99FF0099FF3399FF6699FF9999FFCC99FFFFCC0000CC00
310
33CC0066CC0099CC00CCCC00FFCC3300CC3333CC3366CC3399CC33CCCC33FFCC6600CC6633CC6666CC6699CC66CCCC66FFCC9900CC9933CC9966CC9999CC99CCCC99FFCCCC00CCCC33CCCC66CCCC99CCCCCCCCCCFFCCFF00CCFF33CCFF66CCFF99CCFFCCCCFFFFFF0000FF0033FF0066FF0099FF00CCFF00FFFF3300FF3333
310
FF3366FF3399FF33CCFF33FFFF6600FF6633FF6666FF6699FF66CCFF66FFFF9900FF9933FF9966FF9999FF99CCFF99FFFFCC00FFCC33FFCC66FFCC99FFCCCCFFCCFFFFFF00FFFF33FFFF66FFFF99FFFFCCFFFFFF0000000D0D0D1A1A1A2828283535354343435050505D5D5D6B6B6B787878868686939393A1A1A1AEAEAEBB
310
BBBBC9C9C9D6D6D6E4E4E4F1F1F1FFFFFF000000000000000000000000000000000000000000000000000000000000B21171F6000000F54944415478DAEDDBCB0A82501486D1F3FEEFBBE735A8BCA4224884FB5F0B0A0B27E7438F976C0C000080BFA8AAE7EBF3615A6E3FECB7F9F24AE7008B18AF22EFE5AD951A06A8AF4D
310
62F5C548D9020EF693ECF177DE07CECC70BD67C173013A8F3F7D0EA8CD5382D5C1BFF526B03FD155CA7980007B832C010410400001041040000112AE060F0324DC103908907143643F40F7F1676F01F17380C3A00002082080000208E06A30F76A70EC16A811712A3C3D18967A355CF3E5CD5F872BE4E7F1AB6BDDFC287079
310
250104B86B803ADEE1FB3F28191F6035F4F97BC22E90FEB4F8F29C30F0FF02000000000000000000000000FCC80317544FFB25B2BDA40000000049454E44AE4260820049454E44AE426082
  0
ENDSEC
  0
EOF
